Besley-Regular.ufo
<glyph name="exclam" format="2">
  <advance width="638"/>
  <unicode hex="0021"/>
  <outline>
    <contour>
      <point x="200" y="98" type="curve" smooth="yes"/>
      <point x="200" y="164"/>
      <point x="252" y="216"/>
      <point x="318" y="216" type="curve" smooth="yes"/>
      <point x="384" y="216"/>
      <point x="436" y="164"/>
      <point x="436" y="98" type="curve" smooth="yes"/>
      <point x="436" y="32"/>
      <point x="384" y="-20"/>
      <point x="318" y="-20" type="curve" smooth="yes"/>
      <point x="252" y="-20"/>
      <point x="200" y="32"/>
    </contour>
    <contour>
      <point x="436" y="1318" type="curve" smooth="yes"/>
      <point x="415" y="977"/>
      <point x="360" y="732"/>
      <point x="356" y="445" type="curve" smooth="yes"/>
      <point x="356" y="423"/>
      <point x="356" y="416"/>
      <point x="332" y="416" type="curve" smooth="yes"/>
      <point x="301" y="416" type="line" smooth="yes"/>
      <point x="282" y="416"/>
      <point x="280" y="422"/>
      <point x="280" y="440" type="curve" smooth="yes"/>
      <point x="277" y="729"/>
      <point x="221" y="975"/>
      <point x="200" y="1318" type="curve" smooth="yes"/>
      <point x="200" y="1332"/>
      <point x="200" y="1344"/>
      <point x="200" y="1356" type="curve" smooth="yes"/>
      <point x="200" y="1448"/>
      <point x="224" y="1516"/>
      <point x="318" y="1516" type="curve" smooth="yes"/>
      <point x="412" y="1516"/>
      <point x="438" y="1448"/>
      <point x="438" y="1356" type="curve" smooth="yes"/>
      <point x="438" y="1344"/>
      <point x="436" y="1332"/>
    </contour>
  </outline>
</glyph>
<glyph name="numbersign" format="2">
  <advance width="1320"/>
  <unicode hex="0023"/>
  <outline>
    <contour>
      <point x="486" y="1610" type="curve" smooth="yes"/>
      <point x="546" y="1610" type="line" smooth="yes"/>
      <point x="568" y="1610"/>
      <point x="569" y="1605"/>
      <point x="567" y="1584" type="curve" smooth="yes"/>
      <point x="513" y="1121" type="line" smooth="yes"/>
      <point x="509" y="1085"/>
      <point x="508" y="1080"/>
      <point x="550" y="1080" type="curve" smooth="yes"/>
      <point x="817" y="1080" type="line" smooth="yes"/>
      <point x="859" y="1080"/>
      <point x="859" y="1082"/>
      <point x="863" y="1119" type="curve" smooth="yes"/>
      <point x="917" y="1581" type="line" smooth="yes"/>
      <point x="920" y="1606"/>
      <point x="917" y="1610"/>
      <point x="946" y="1610" type="curve" smooth="yes"/>
      <point x="998" y="1610" type="line" smooth="yes"/>
      <point x="1031" y="1610"/>
      <point x="1029" y="1608"/>
      <point x="1026" y="1579" type="curve" smooth="yes"/>
      <point x="973" y="1120" type="line" smooth="yes"/>
      <point x="968" y="1080"/>
      <point x="968" y="1080"/>
      <point x="1013" y="1080" type="curve" smooth="yes"/>
      <point x="1317" y="1080" type="line" smooth="yes"/>
      <point x="1336" y="1080"/>
      <point x="1340" y="1073"/>
      <point x="1340" y="1053" type="curve" smooth="yes"/>
      <point x="1340" y="996" type="line" smooth="yes"/>
      <point x="1340" y="976"/>
      <point x="1333" y="970"/>
      <point x="1314" y="970" type="curve" smooth="yes"/>
      <point x="985" y="970" type="line" smooth="yes"/>
      <point x="957" y="970"/>
      <point x="956" y="970"/>
      <point x="953" y="945" type="curve" smooth="yes"/>
      <point x="912" y="597" type="line" smooth="yes"/>
      <point x="909" y="568"/>
      <point x="909" y="560"/>
      <point x="945" y="560" type="curve" smooth="yes"/>
      <point x="1255" y="560" type="line" smooth="yes"/>
      <point x="1276" y="560"/>
      <point x="1280" y="553"/>
      <point x="1280" y="531" type="curve" smooth="yes"/>
      <point x="1280" y="485" type="line" smooth="yes"/>
      <point x="1280" y="453"/>
      <point x="1269" y="450"/>
      <point x="1239" y="450" type="curve" smooth="yes"/>
      <point x="922" y="450" type="line" smooth="yes"/>
      <point x="895" y="450"/>
      <point x="895" y="449"/>
      <point x="892" y="425" type="curve" smooth="yes"/>
      <point x="833" y="-84" type="line" smooth="yes"/>
      <point x="830" y="-109"/>
      <point x="830" y="-110"/>
      <point x="802" y="-110" type="curve" smooth="yes"/>
      <point x="753" y="-110" type="line" smooth="yes"/>
      <point x="719" y="-110"/>
      <point x="721" y="-109"/>
      <point x="724" y="-79" type="curve" smooth="yes"/>
      <point x="782" y="420" type="line" smooth="yes"/>
      <point x="785" y="446"/>
      <point x="782" y="450"/>
      <point x="746" y="450" type="curve" smooth="yes"/>
      <point x="471" y="450" type="line" smooth="yes"/>
      <point x="439" y="450"/>
      <point x="435" y="452"/>
      <point x="432" y="423" type="curve" smooth="yes"/>
      <point x="373" y="-86" type="line" smooth="yes"/>
      <point x="370" y="-109"/>
      <point x="371" y="-110"/>
      <point x="345" y="-110" type="curve" smooth="yes"/>
      <point x="282" y="-110" type="line" smooth="yes"/>
      <point x="256" y="-110"/>
      <point x="260" y="-105"/>
      <point x="263" y="-83" type="curve" smooth="yes"/>
      <point x="321" y="414" type="line" smooth="yes"/>
      <point x="324" y="442"/>
      <point x="323" y="450"/>
      <point x="289" y="450" type="curve" smooth="yes"/>
      <point x="4" y="450" type="line" smooth="yes"/>
      <point x="-18" y="450"/>
      <point x="-20" y="457"/>
      <point x="-20" y="480" type="curve" smooth="yes"/>
      <point x="-20" y="535" type="line" smooth="yes"/>
      <point x="-20" y="558"/>
      <point x="-13" y="560"/>
      <point x="11" y="560" type="curve" smooth="yes"/>
      <point x="308" y="560" type="line" smooth="yes"/>
      <point x="344" y="560"/>
      <point x="338" y="568"/>
      <point x="342" y="598" type="curve" smooth="yes"/>
      <point x="383" y="943" type="line" smooth="yes"/>
      <point x="386" y="967"/>
      <point x="387" y="970"/>
      <point x="359" y="970" type="curve" smooth="yes"/>
      <point x="72" y="970" type="line" smooth="yes"/>
      <point x="42" y="970"/>
      <point x="40" y="978"/>
      <point x="40" y="1009" type="curve" smooth="yes"/>
      <point x="40" y="1047" type="line" smooth="yes"/>
      <point x="40" y="1070"/>
      <point x="41" y="1080"/>
      <point x="64" y="1080" type="curve" smooth="yes"/>
      <point x="356" y="1080" type="line" smooth="yes"/>
      <point x="395" y="1080"/>
      <point x="399" y="1084"/>
      <point x="402" y="1114" type="curve" smooth="yes"/>
      <point x="457" y="1585" type="line" smooth="yes"/>
      <point x="460" y="1609"/>
      <point x="459" y="1610"/>
    </contour>
    <contour>
      <point x="801" y="970" type="curve" smooth="yes"/>
      <point x="544" y="970" type="line" smooth="yes"/>
      <point x="499" y="970"/>
      <point x="495" y="962"/>
      <point x="491" y="931" type="curve" smooth="yes"/>
      <point x="452" y="596" type="line" smooth="yes"/>
      <point x="448" y="562"/>
      <point x="455" y="560"/>
      <point x="488" y="560" type="curve" smooth="yes"/>
      <point x="756" y="560" type="line" smooth="yes"/>
      <point x="794" y="560"/>
      <point x="799" y="568"/>
      <point x="802" y="593" type="curve" smooth="yes"/>
      <point x="841" y="927" type="line" smooth="yes"/>
      <point x="846" y="969"/>
      <point x="838" y="970"/>
    </contour>
  </outline>
</glyph>
<glyph name="quotesingle" format="2">
  <advance width="400"/>
  <unicode hex="0027"/>
  <outline>
    <contour>
      <point x="298" y="1358" type="curve" smooth="yes"/>
      <point x="277" y="1216"/>
      <point x="241" y="1107"/>
      <point x="238" y="994" type="curve" smooth="yes"/>
      <point x="238" y="978"/>
      <point x="231" y="976"/>
      <point x="214" y="976" type="curve" smooth="yes"/>
      <point x="184" y="976" type="line" smooth="yes"/>
      <point x="166" y="976"/>
      <point x="163" y="983"/>
      <point x="162" y="999" type="curve" smooth="yes"/>
      <point x="158" y="1111"/>
      <point x="123" y="1218"/>
      <point x="102" y="1358" type="curve" smooth="yes"/>
      <point x="100" y="1372"/>
      <point x="100" y="1382"/>
      <point x="100" y="1394" type="curve" smooth="yes"/>
      <point x="100" y="1472"/>
      <point x="142" y="1516"/>
      <point x="200" y="1516" type="curve" smooth="yes"/>
      <point x="258" y="1516"/>
      <point x="300" y="1472"/>
      <point x="300" y="1394" type="curve" smooth="yes"/>
      <point x="300" y="1382"/>
      <point x="300" y="1372"/>
    </contour>
  </outline>
</glyph>
<glyph name="plus" format="2">
  <advance width="1060"/>
  <unicode hex="002B"/>
  <outline>
    <contour>
      <point x="620" y="836" type="curve" smooth="yes"/>
      <point x="906" y="836" type="line" smooth="yes"/>
      <point x="929" y="836"/>
      <point x="940" y="832"/>
      <point x="940" y="808" type="curve" smooth="yes"/>
      <point x="940" y="751" type="line" smooth="yes"/>
      <point x="940" y="734"/>
      <point x="939" y="726"/>
      <point x="922" y="726" type="curve" smooth="yes"/>
      <point x="624" y="726" type="line" smooth="yes"/>
      <point x="592" y="726"/>
      <point x="584" y="723"/>
      <point x="584" y="692" type="curve" smooth="yes"/>
      <point x="584" y="389" type="line" smooth="yes"/>
      <point x="584" y="372"/>
      <point x="577" y="370"/>
      <point x="559" y="370" type="curve" smooth="yes"/>
      <point x="501" y="370" type="line" smooth="yes"/>
      <point x="481" y="370"/>
      <point x="476" y="370"/>
      <point x="476" y="390" type="curve" smooth="yes"/>
      <point x="476" y="685" type="line" smooth="yes"/>
      <point x="476" y="720"/>
      <point x="475" y="726"/>
      <point x="440" y="726" type="curve" smooth="yes"/>
      <point x="149" y="726" type="line" smooth="yes"/>
      <point x="124" y="726"/>
      <point x="120" y="731"/>
      <point x="120" y="755" type="curve" smooth="yes"/>
      <point x="120" y="809" type="line" smooth="yes"/>
      <point x="120" y="831"/>
      <point x="129" y="836"/>
      <point x="150" y="836" type="curve" smooth="yes"/>
      <point x="442" y="836" type="line" smooth="yes"/>
      <point x="469" y="836"/>
      <point x="476" y="841"/>
      <point x="476" y="870" type="curve" smooth="yes"/>
      <point x="476" y="1160" type="line" smooth="yes"/>
      <point x="476" y="1183"/>
      <point x="480" y="1190"/>
      <point x="505" y="1190" type="curve" smooth="yes"/>
      <point x="562" y="1190" type="line" smooth="yes"/>
      <point x="582" y="1190"/>
      <point x="584" y="1182"/>
      <point x="584" y="1161" type="curve" smooth="yes"/>
      <point x="584" y="874" type="line" smooth="yes"/>
      <point x="584" y="842"/>
      <point x="589" y="836"/>
    </contour>
  </outline>
</glyph>
<glyph name="period" format="2">
  <advance width="470"/>
  <unicode hex="002E"/>
  <outline>
    <contour>
      <point x="115" y="100" type="curve" smooth="yes"/>
      <point x="115" y="166"/>
      <point x="169" y="220"/>
      <point x="235" y="220" type="curve" smooth="yes"/>
      <point x="301" y="220"/>
      <point x="355" y="166"/>
      <point x="355" y="100" type="curve" smooth="yes"/>
      <point x="355" y="34"/>
      <point x="301" y="-20"/>
      <point x="235" y="-20" type="curve" smooth="yes"/>
      <point x="169" y="-20"/>
      <point x="115" y="34"/>
    </contour>
  </outline>
</glyph>
<glyph name="zero" format="2">
  <advance width="1180"/>
  <unicode hex="0030"/>
  <outline>
    <contour>
      <point x="80" y="750" type="curve" smooth="yes"/>
      <point x="80" y="1316"/>
      <point x="344" y="1520"/>
      <point x="590" y="1520" type="curve" smooth="yes"/>
      <point x="856" y="1520"/>
      <point x="1100" y="1316"/>
      <point x="1100" y="750" type="curve" smooth="yes"/>
      <point x="1100" y="184"/>
      <point x="816" y="-20"/>
      <point x="590" y="-20" type="curve" smooth="yes"/>
      <point x="344" y="-20"/>
      <point x="80" y="184"/>
    </contour>
    <contour>
      <point x="300" y="750" type="curve" smooth="yes"/>
      <point x="300" y="266"/>
      <point x="422" y="80"/>
      <point x="590" y="80" type="curve" smooth="yes"/>
      <point x="778" y="80"/>
      <point x="880" y="266"/>
      <point x="880" y="750" type="curve" smooth="yes"/>
      <point x="880" y="1234"/>
      <point x="778" y="1420"/>
      <point x="590" y="1420" type="curve" smooth="yes"/>
      <point x="422" y="1420"/>
      <point x="300" y="1234"/>
    </contour>
  </outline>
</glyph>
<glyph name="one" format="2">
  <advance width="1050"/>
  <unicode hex="0031"/>
  <outline>
    <contour>
      <point x="100" y="38" type="curve" smooth="yes"/>
      <point x="100" y="80" type="line" smooth="yes"/>
      <point x="100" y="109"/>
      <point x="111" y="110"/>
      <point x="140" y="110" type="curve" smooth="yes"/>
      <point x="398" y="110" type="line" smooth="yes"/>
      <point x="434" y="110"/>
      <point x="440" y="118"/>
      <point x="440" y="152" type="curve" smooth="yes"/>
      <point x="440" y="1173" type="line" smooth="yes"/>
      <point x="440" y="1209"/>
      <point x="437" y="1220"/>
      <point x="402" y="1220" type="curve" smooth="yes"/>
      <point x="178" y="1220" type="line" smooth="yes"/>
      <point x="149" y="1220"/>
      <point x="134" y="1222"/>
      <point x="134" y="1254" type="curve" smooth="yes"/>
      <point x="134" y="1284" type="line" smooth="yes"/>
      <point x="134" y="1320"/>
      <point x="138" y="1330"/>
      <point x="176" y="1330" type="curve" smooth="yes"/>
      <point x="370" y="1331"/>
      <point x="435" y="1345"/>
      <point x="522" y="1538" type="curve" smooth="yes"/>
      <point x="532" y="1559"/>
      <point x="530" y="1580"/>
      <point x="564" y="1580" type="curve" smooth="yes"/>
      <point x="592" y="1580" type="line" smooth="yes"/>
      <point x="617" y="1580"/>
      <point x="630" y="1579"/>
      <point x="630" y="1554" type="curve" smooth="yes"/>
      <point x="630" y="162" type="line" smooth="yes"/>
      <point x="630" y="115"/>
      <point x="636" y="110"/>
      <point x="684" y="110" type="curve" smooth="yes"/>
      <point x="906" y="110" type="line" smooth="yes"/>
      <point x="932" y="110"/>
      <point x="950" y="109"/>
      <point x="950" y="80" type="curve" smooth="yes"/>
      <point x="950" y="40" type="line" smooth="yes"/>
      <point x="950" y="8"/>
      <point x="947" y="0"/>
      <point x="916" y="0" type="curve" smooth="yes"/>
      <point x="134" y="0" type="line" smooth="yes"/>
      <point x="104" y="0"/>
      <point x="100" y="7"/>
    </contour>
  </outline>
</glyph>
<glyph name="two" format="2">
  <advance width="1140"/>
  <unicode hex="0032"/>
  <outline>
    <contour>
      <point x="1070" y="325" type="curve" smooth="yes"/>
      <point x="1085" y="63"/>
      <point x="963" y="-20"/>
      <point x="790" y="-20" type="curve" smooth="yes"/>
      <point x="576" y="-20"/>
      <point x="446" y="100"/>
      <point x="300" y="100" type="curve" smooth="yes"/>
      <point x="241" y="100"/>
      <point x="210" y="73"/>
      <point x="190" y="30" type="curve" smooth="yes"/>
      <point x="183" y="13"/>
      <point x="178" y="0"/>
      <point x="151" y="0" type="curve" smooth="yes"/>
      <point x="103" y="0" type="line" smooth="yes"/>
      <point x="82" y="0"/>
      <point x="80" y="10"/>
      <point x="80" y="29" type="curve" smooth="yes"/>
      <point x="89" y="307"/>
      <point x="235" y="503"/>
      <point x="514" y="698" type="curve" smooth="yes"/>
      <point x="662" y="801"/>
      <point x="834" y="942"/>
      <point x="834" y="1170" type="curve" smooth="yes"/>
      <point x="834" y="1348"/>
      <point x="732" y="1436"/>
      <point x="554" y="1436" type="curve" smooth="yes"/>
      <point x="396" y="1436"/>
      <point x="270" y="1348"/>
      <point x="270" y="1294" type="curve" smooth="yes"/>
      <point x="270" y="1248"/>
      <point x="364" y="1238"/>
      <point x="364" y="1146" type="curve" smooth="yes"/>
      <point x="364" y="1072"/>
      <point x="299" y="1030"/>
      <point x="245" y="1030" type="curve" smooth="yes"/>
      <point x="187" y="1030"/>
      <point x="112" y="1066"/>
      <point x="112" y="1162" type="curve" smooth="yes"/>
      <point x="112" y="1346"/>
      <point x="290" y="1520"/>
      <point x="584" y="1520" type="curve" smooth="yes"/>
      <point x="866" y="1520"/>
      <point x="1056" y="1400"/>
      <point x="1056" y="1140" type="curve" smooth="yes"/>
      <point x="1056" y="900"/>
      <point x="847" y="740"/>
      <point x="564" y="580" type="curve" smooth="yes"/>
      <point x="372" y="472"/>
      <point x="260" y="339"/>
      <point x="207" y="204" type="curve" smooth="yes"/>
      <point x="192" y="165"/>
      <point x="170" y="134"/>
      <point x="186" y="134" type="curve" smooth="yes"/>
      <point x="205" y="134"/>
      <point x="203" y="163"/>
      <point x="230" y="191" type="curve" smooth="yes"/>
      <point x="276" y="238"/>
      <point x="340" y="269"/>
      <point x="420" y="269" type="curve" smooth="yes"/>
      <point x="570" y="269"/>
      <point x="650" y="181"/>
      <point x="802" y="181" type="curve" smooth="yes"/>
      <point x="919" y="181"/>
      <point x="968" y="235"/>
      <point x="975" y="327" type="curve" smooth="yes"/>
      <point x="978" y="350"/>
      <point x="977" y="354"/>
      <point x="1003" y="354" type="curve" smooth="yes"/>
      <point x="1044" y="354" type="line" smooth="yes"/>
      <point x="1067" y="354"/>
      <point x="1069" y="349"/>
    </contour>
  </outline>
</glyph>
<glyph name="four" format="2">
  <advance width="1080"/>
  <unicode hex="0034"/>
  <outline>
    <contour>
      <point x="1030" y="84" type="curve" smooth="yes"/>
      <point x="1030" y="26" type="line" smooth="yes"/>
      <point x="1030" y="3"/>
      <point x="1023" y="0"/>
      <point x="999" y="0" type="curve" smooth="yes"/>
      <point x="532" y="0" type="line" smooth="yes"/>
      <point x="507" y="0"/>
      <point x="500" y="5"/>
      <point x="500" y="32" type="curve" smooth="yes"/>
      <point x="500" y="77" type="line" smooth="yes"/>
      <point x="500" y="103"/>
      <point x="505" y="110"/>
      <point x="530" y="110" type="curve" smooth="yes"/>
      <point x="662" y="110" type="line" smooth="yes"/>
      <point x="683" y="110"/>
      <point x="690" y="115"/>
      <point x="690" y="135" type="curve" smooth="yes"/>
      <point x="690" y="422" type="line" smooth="yes"/>
      <point x="690" y="453"/>
      <point x="687" y="460"/>
      <point x="657" y="460" type="curve" smooth="yes"/>
      <point x="154" y="460" type="line" smooth="yes"/>
      <point x="124" y="460"/>
      <point x="117" y="463"/>
      <point x="103" y="477" type="curve" smooth="yes"/>
      <point x="77" y="503" type="line" smooth="yes"/>
      <point x="58" y="522"/>
      <point x="63" y="528"/>
      <point x="74" y="555" type="curve" smooth="yes"/>
      <point x="214" y="886"/>
      <point x="626" y="1050"/>
      <point x="728" y="1447" type="curve" smooth="yes"/>
      <point x="736" y="1477"/>
      <point x="728" y="1500"/>
      <point x="769" y="1500" type="curve" smooth="yes"/>
      <point x="878" y="1500" type="line" smooth="yes"/>
      <point x="919" y="1500"/>
      <point x="927" y="1496"/>
      <point x="922" y="1459" type="curve" smooth="yes"/>
      <point x="867" y="1047"/>
      <point x="392" y="874"/>
      <point x="234" y="618" type="curve" smooth="yes"/>
      <point x="215" y="587"/>
      <point x="223" y="570"/>
      <point x="280" y="570" type="curve" smooth="yes"/>
      <point x="672" y="570" type="line" smooth="yes"/>
      <point x="693" y="570"/>
      <point x="690" y="575"/>
      <point x="690" y="595" type="curve" smooth="yes"/>
      <point x="690" y="720" type="line" smooth="yes"/>
      <point x="690" y="753"/>
      <point x="698" y="752"/>
      <point x="715" y="765" type="curve" smooth="yes"/>
      <point x="762" y="801"/>
      <point x="790" y="848"/>
      <point x="820" y="938" type="curve" smooth="yes"/>
      <point x="826" y="955"/>
      <point x="823" y="970"/>
      <point x="848" y="970" type="curve" smooth="yes"/>
      <point x="854" y="970" type="line" smooth="yes"/>
      <point x="880" y="970"/>
      <point x="880" y="963"/>
      <point x="880" y="939" type="curve" smooth="yes"/>
      <point x="880" y="614" type="line" smooth="yes"/>
      <point x="880" y="576"/>
      <point x="885" y="570"/>
      <point x="922" y="570" type="curve" smooth="yes"/>
      <point x="1029" y="570" type="line" smooth="yes"/>
      <point x="1056" y="570"/>
      <point x="1060" y="563"/>
      <point x="1060" y="535" type="curve" smooth="yes"/>
      <point x="1060" y="490" type="line" smooth="yes"/>
      <point x="1060" y="463"/>
      <point x="1052" y="460"/>
      <point x="1024" y="460" type="curve" smooth="yes"/>
      <point x="915" y="460" type="line" smooth="yes"/>
      <point x="884" y="460"/>
      <point x="880" y="450"/>
      <point x="880" y="421" type="curve" smooth="yes"/>
      <point x="880" y="146" type="line" smooth="yes"/>
      <point x="880" y="115"/>
      <point x="886" y="110"/>
      <point x="918" y="110" type="curve" smooth="yes"/>
      <point x="995" y="110" type="line" smooth="yes"/>
      <point x="1020" y="110"/>
      <point x="1030" y="109"/>
    </contour>
  </outline>
</glyph>
<glyph name="six" format="2">
  <advance width="1100"/>
  <unicode hex="0036"/>
  <outline>
    <contour>
      <point x="746" y="1382" type="curve" smooth="yes"/>
      <point x="746" y="1408"/>
      <point x="716" y="1436"/>
      <point x="638" y="1436" type="curve" smooth="yes"/>
      <point x="406" y="1436"/>
      <point x="319" y="1203"/>
      <point x="303" y="860" type="curve" smooth="yes"/>
      <point x="301" y="827"/>
      <point x="297" y="814"/>
      <point x="304" y="810" type="curve" smooth="yes"/>
      <point x="312" y="806"/>
      <point x="316" y="820"/>
      <point x="333" y="839" type="curve" smooth="yes"/>
      <point x="400" y="913"/>
      <point x="500" y="960"/>
      <point x="632" y="960" type="curve" smooth="yes"/>
      <point x="854" y="960"/>
      <point x="1040" y="800"/>
      <point x="1040" y="470" type="curve" smooth="yes"/>
      <point x="1040" y="150"/>
      <point x="860" y="-20"/>
      <point x="578" y="-20" type="curve" smooth="yes"/>
      <point x="256" y="-20"/>
      <point x="100" y="170"/>
      <point x="100" y="740" type="curve" smooth="yes"/>
      <point x="100" y="1220"/>
      <point x="306" y="1520"/>
      <point x="628" y="1520" type="curve" smooth="yes"/>
      <point x="792" y="1520"/>
      <point x="940" y="1446"/>
      <point x="940" y="1282" type="curve" smooth="yes"/>
      <point x="940" y="1186"/>
      <point x="870" y="1150"/>
      <point x="812" y="1150" type="curve" smooth="yes"/>
      <point x="758" y="1150"/>
      <point x="698" y="1192"/>
      <point x="698" y="1266" type="curve" smooth="yes"/>
      <point x="698" y="1338"/>
      <point x="746" y="1356"/>
    </contour>
    <contour>
      <point x="840" y="470" type="curve" smooth="yes"/>
      <point x="840" y="698"/>
      <point x="746" y="862"/>
      <point x="588" y="862" type="curve" smooth="yes"/>
      <point x="422" y="862"/>
      <point x="300" y="720"/>
      <point x="300" y="560" type="curve" smooth="yes"/>
      <point x="300" y="262"/>
      <point x="400" y="70"/>
      <point x="598" y="70" type="curve" smooth="yes"/>
      <point x="776" y="70"/>
      <point x="840" y="252"/>
    </contour>
  </outline>
</glyph>
<glyph name="eight" format="2">
  <advance width="1060"/>
  <unicode hex="0038"/>
  <outline>
    <contour>
      <point x="270" y="420" type="curve" smooth="yes"/>
      <point x="270" y="252"/>
      <point x="352" y="70"/>
      <point x="530" y="70" type="curve" smooth="yes"/>
      <point x="708" y="70"/>
      <point x="790" y="252"/>
      <point x="790" y="420" type="curve" smooth="yes"/>
      <point x="790" y="588"/>
      <point x="708" y="770"/>
      <point x="530" y="770" type="curve" smooth="yes"/>
      <point x="352" y="770"/>
      <point x="270" y="588"/>
    </contour>
    <contour>
      <point x="120" y="1140" type="curve" smooth="yes"/>
      <point x="120" y="1360"/>
      <point x="288" y="1520"/>
      <point x="530" y="1520" type="curve" smooth="yes"/>
      <point x="772" y="1520"/>
      <point x="940" y="1360"/>
      <point x="940" y="1140" type="curve" smooth="yes"/>
      <point x="940" y="987"/>
      <point x="859" y="880"/>
      <point x="728" y="827" type="curve" smooth="yes"/>
      <point x="708" y="819"/>
      <point x="695" y="818"/>
      <point x="695" y="811" type="curve" smooth="yes"/>
      <point x="695" y="805"/>
      <point x="703" y="802"/>
      <point x="726" y="794" type="curve" smooth="yes"/>
      <point x="889" y="734"/>
      <point x="990" y="598"/>
      <point x="990" y="420" type="curve" smooth="yes"/>
      <point x="990" y="180"/>
      <point x="812" y="-20"/>
      <point x="530" y="-20" type="curve" smooth="yes"/>
      <point x="248" y="-20"/>
      <point x="70" y="180"/>
      <point x="70" y="420" type="curve" smooth="yes"/>
      <point x="70" y="595"/>
      <point x="167" y="722"/>
      <point x="326" y="784" type="curve" smooth="yes"/>
      <point x="345" y="792"/>
      <point x="372" y="799"/>
      <point x="372" y="808" type="curve" smooth="yes"/>
      <point x="372" y="817"/>
      <point x="355" y="820"/>
      <point x="324" y="833" type="curve" smooth="yes"/>
      <point x="198" y="887"/>
      <point x="120" y="990"/>
    </contour>
    <contour>
      <point x="320" y="1140" type="curve" smooth="yes"/>
      <point x="320" y="992"/>
      <point x="392" y="850"/>
      <point x="530" y="850" type="curve" smooth="yes"/>
      <point x="668" y="850"/>
      <point x="740" y="992"/>
      <point x="740" y="1140" type="curve" smooth="yes"/>
      <point x="740" y="1288"/>
      <point x="668" y="1430"/>
      <point x="530" y="1430" type="curve" smooth="yes"/>
      <point x="392" y="1430"/>
      <point x="320" y="1288"/>
    </contour>
  </outline>
</glyph>
<glyph name="B" format="2">
  <advance width="1495"/>
  <unicode hex="0042"/>
  <anchor x="706" y="0" name="Anchor-2"/>
  <anchor x="674" y="1500" name="Anchor-0"/>
  <outline>
    <contour>
      <point x="875" y="110" type="line" smooth="yes"/>
      <point x="1047" y="110"/>
      <point x="1195" y="222"/>
      <point x="1195" y="420" type="curve" smooth="yes"/>
      <point x="1195" y="618"/>
      <point x="1047" y="720"/>
      <point x="875" y="720" type="curve" smooth="yes"/>
      <point x="534" y="720" type="line" smooth="yes"/>
      <point x="491" y="720"/>
      <point x="485" y="711"/>
      <point x="485" y="666" type="curve" smooth="yes"/>
      <point x="485" y="148" type="line" smooth="yes"/>
      <point x="485" y="115"/>
      <point x="496" y="110"/>
      <point x="531" y="110" type="curve" smooth="yes"/>
    </contour>
    <contour>
      <point x="534" y="830" type="curve" smooth="yes"/>
      <point x="855" y="830" type="line" smooth="yes"/>
      <point x="1007" y="830"/>
      <point x="1155" y="912"/>
      <point x="1155" y="1110" type="curve" smooth="yes"/>
      <point x="1155" y="1308"/>
      <point x="1007" y="1390"/>
      <point x="855" y="1390" type="curve" smooth="yes"/>
      <point x="520" y="1390" type="line" smooth="yes"/>
      <point x="488" y="1390"/>
      <point x="485" y="1378"/>
      <point x="485" y="1345" type="curve" smooth="yes"/>
      <point x="485" y="870" type="line" smooth="yes"/>
      <point x="485" y="831"/>
      <point x="494" y="830"/>
    </contour>
    <contour>
      <point x="895" y="0" type="curve" smooth="yes"/>
      <point x="116" y="0" type="line" smooth="yes"/>
      <point x="85" y="0"/>
      <point x="75" y="1"/>
      <point x="75" y="32" type="curve" smooth="yes"/>
      <point x="75" y="76" type="line" smooth="yes"/>
      <point x="75" y="106"/>
      <point x="84" y="110"/>
      <point x="112" y="110" type="curve" smooth="yes"/>
      <point x="255" y="110" type="line" smooth="yes"/>
      <point x="283" y="110"/>
      <point x="295" y="113"/>
      <point x="295" y="140" type="curve" smooth="yes"/>
      <point x="295" y="1352" type="line" smooth="yes"/>
      <point x="295" y="1388"/>
      <point x="287" y="1390"/>
      <point x="250" y="1390" type="curve" smooth="yes"/>
      <point x="116" y="1390" type="line" smooth="yes"/>
      <point x="82" y="1390"/>
      <point x="75" y="1393"/>
      <point x="75" y="1426" type="curve" smooth="yes"/>
      <point x="75" y="1468" type="line" smooth="yes"/>
      <point x="75" y="1495"/>
      <point x="83" y="1500"/>
      <point x="108" y="1500" type="curve" smooth="yes"/>
      <point x="855" y="1500" type="line" smooth="yes"/>
      <point x="1157" y="1500"/>
      <point x="1355" y="1370"/>
      <point x="1355" y="1110" type="curve" smooth="yes"/>
      <point x="1355" y="937"/>
      <point x="1277" y="835"/>
      <point x="1128" y="793" type="curve" smooth="yes"/>
      <point x="1099" y="785"/>
      <point x="1102" y="772"/>
      <point x="1126" y="766" type="curve" smooth="yes"/>
      <point x="1309" y="718"/>
      <point x="1415" y="610"/>
      <point x="1415" y="420" type="curve" smooth="yes"/>
      <point x="1415" y="120"/>
      <point x="1217" y="0"/>
    </contour>
  </outline>
</glyph>
<glyph name="F" format="2">
  <advance width="1445"/>
  <unicode hex="0046"/>
  <anchor x="396" y="0" name="Anchor-2"/>
  <anchor x="764" y="1500" name="Anchor-0"/>
  <outline>
    <contour>
      <point x="266" y="1390" type="curve" smooth="yes"/>
      <point x="99" y="1390" type="line" smooth="yes"/>
      <point x="80" y="1390"/>
      <point x="75" y="1392"/>
      <point x="75" y="1412" type="curve" smooth="yes"/>
      <point x="75" y="1481" type="line" smooth="yes"/>
      <point x="75" y="1495"/>
      <point x="76" y="1500"/>
      <point x="90" y="1500" type="curve" smooth="yes"/>
      <point x="1321" y="1500" type="line" smooth="yes"/>
      <point x="1342" y="1500"/>
      <point x="1345" y="1493"/>
      <point x="1345" y="1471" type="curve" smooth="yes"/>
      <point x="1345" y="1050" type="line" smooth="yes"/>
      <point x="1345" y="1031"/>
      <point x="1336" y="1030"/>
      <point x="1317" y="1030" type="curve" smooth="yes"/>
      <point x="1265" y="1030" type="line" smooth="yes"/>
      <point x="1245" y="1030"/>
      <point x="1245" y="1035"/>
      <point x="1245" y="1054" type="curve" smooth="yes"/>
      <point x="1242" y="1313"/>
      <point x="1174" y="1390"/>
      <point x="945" y="1390" type="curve" smooth="yes"/>
      <point x="519" y="1390" type="line" smooth="yes"/>
      <point x="494" y="1390"/>
      <point x="485" y="1376"/>
      <point x="485" y="1353" type="curve" smooth="yes"/>
      <point x="485" y="836" type="line" smooth="yes"/>
      <point x="485" y="802"/>
      <point x="491" y="796"/>
      <point x="524" y="796" type="curve" smooth="yes"/>
      <point x="675" y="796" type="line" smooth="yes"/>
      <point x="830" y="796"/>
      <point x="900" y="856"/>
      <point x="913" y="964" type="curve" smooth="yes"/>
      <point x="916" y="992"/>
      <point x="906" y="1006"/>
      <point x="940" y="1006" type="curve" smooth="yes"/>
      <point x="974" y="1006" type="line" smooth="yes"/>
      <point x="997" y="1006"/>
      <point x="1005" y="1004"/>
      <point x="1005" y="982" type="curve" smooth="yes"/>
      <point x="1005" y="503" type="line" smooth="yes"/>
      <point x="1005" y="485"/>
      <point x="1004" y="476"/>
      <point x="986" y="476" type="curve" smooth="yes"/>
      <point x="934" y="476" type="line" smooth="yes"/>
      <point x="915" y="476"/>
      <point x="916" y="481"/>
      <point x="915" y="499" type="curve" smooth="yes"/>
      <point x="909" y="623"/>
      <point x="841" y="696"/>
      <point x="675" y="696" type="curve" smooth="yes"/>
      <point x="515" y="696" type="line" smooth="yes"/>
      <point x="487" y="696"/>
      <point x="485" y="688"/>
      <point x="485" y="659" type="curve" smooth="yes"/>
      <point x="485" y="150" type="line" smooth="yes"/>
      <point x="485" y="118"/>
      <point x="489" y="110"/>
      <point x="523" y="110" type="curve" smooth="yes"/>
      <point x="697" y="110" type="line" smooth="yes"/>
      <point x="716" y="110"/>
      <point x="725" y="109"/>
      <point x="725" y="90" type="curve" smooth="yes"/>
      <point x="725" y="30" type="line" smooth="yes"/>
      <point x="725" y="4"/>
      <point x="716" y="0"/>
      <point x="692" y="0" type="curve" smooth="yes"/>
      <point x="100" y="0" type="line" smooth="yes"/>
      <point x="80" y="0"/>
      <point x="75" y="0"/>
      <point x="75" y="20" type="curve" smooth="yes"/>
      <point x="75" y="92" type="line" smooth="yes"/>
      <point x="75" y="109"/>
      <point x="84" y="110"/>
      <point x="102" y="110" type="curve" smooth="yes"/>
      <point x="268" y="110" type="line" smooth="yes"/>
      <point x="290" y="110"/>
      <point x="295" y="117"/>
      <point x="295" y="140" type="curve" smooth="yes"/>
      <point x="295" y="1360" type="line" smooth="yes"/>
      <point x="295" y="1387"/>
      <point x="292" y="1390"/>
    </contour>
  </outline>
</glyph>
<glyph name="G" format="2">
  <advance width="1740"/>
  <unicode hex="0047"/>
  <anchor x="837" y="0" name="Anchor-2"/>
  <anchor x="866" y="1500" name="Anchor-0"/>
  <outline>
    <contour>
      <point x="1087" y="740" type="curve" smooth="yes"/>
      <point x="1661" y="740" type="line" smooth="yes"/>
      <point x="1701" y="740"/>
      <point x="1710" y="737"/>
      <point x="1710" y="694" type="curve" smooth="yes"/>
      <point x="1710" y="644" type="line" smooth="yes"/>
      <point x="1710" y="615"/>
      <point x="1704" y="610"/>
      <point x="1673" y="610" type="curve" smooth="yes"/>
      <point x="1543" y="610" type="line" smooth="yes"/>
      <point x="1513" y="610"/>
      <point x="1510" y="603"/>
      <point x="1510" y="572" type="curve" smooth="yes"/>
      <point x="1510" y="482" type="line" smooth="yes"/>
      <point x="1510" y="448"/>
      <point x="1510" y="419"/>
      <point x="1504" y="392" type="curve" smooth="yes"/>
      <point x="1462" y="210"/>
      <point x="1256" y="-20"/>
      <point x="840" y="-20" type="curve" smooth="yes"/>
      <point x="424" y="-20"/>
      <point x="110" y="304"/>
      <point x="110" y="750" type="curve" smooth="yes"/>
      <point x="110" y="1196"/>
      <point x="464" y="1520"/>
      <point x="870" y="1520" type="curve" smooth="yes"/>
      <point x="1071" y="1520"/>
      <point x="1216" y="1455"/>
      <point x="1318" y="1349" type="curve" smooth="yes"/>
      <point x="1340" y="1326"/>
      <point x="1347" y="1332"/>
      <point x="1357" y="1364" type="curve" smooth="yes"/>
      <point x="1389" y="1464" type="line" smooth="yes"/>
      <point x="1395" y="1483"/>
      <point x="1402" y="1500"/>
      <point x="1419" y="1500" type="curve" smooth="yes"/>
      <point x="1463" y="1500" type="line" smooth="yes"/>
      <point x="1479" y="1500"/>
      <point x="1490" y="1491"/>
      <point x="1490" y="1474" type="curve" smooth="yes"/>
      <point x="1490" y="1034" type="line" smooth="yes"/>
      <point x="1490" y="1013"/>
      <point x="1488" y="990"/>
      <point x="1465" y="990" type="curve" smooth="yes"/>
      <point x="1417" y="990" type="line" smooth="yes"/>
      <point x="1382" y="990"/>
      <point x="1380" y="997"/>
      <point x="1376" y="1026" type="curve" smooth="yes"/>
      <point x="1347" y="1218"/>
      <point x="1230" y="1408"/>
      <point x="884" y="1408" type="curve" smooth="yes"/>
      <point x="556" y="1408"/>
      <point x="340" y="1114"/>
      <point x="340" y="750" type="curve" smooth="yes"/>
      <point x="340" y="386"/>
      <point x="512" y="90"/>
      <point x="850" y="90" type="curve" smooth="yes"/>
      <point x="1100" y="90"/>
      <point x="1240" y="225"/>
      <point x="1290" y="344" type="curve" smooth="yes"/>
      <point x="1297" y="361"/>
      <point x="1300" y="374"/>
      <point x="1300" y="400" type="curve" smooth="yes"/>
      <point x="1300" y="578" type="line" smooth="yes"/>
      <point x="1300" y="608"/>
      <point x="1286" y="610"/>
      <point x="1259" y="610" type="curve" smooth="yes"/>
      <point x="1091" y="610" type="line" smooth="yes"/>
      <point x="1057" y="610"/>
      <point x="1050" y="613"/>
      <point x="1050" y="646" type="curve" smooth="yes"/>
      <point x="1050" y="702" type="line" smooth="yes"/>
      <point x="1050" y="734"/>
      <point x="1056" y="740"/>
    </contour>
  </outline>
</glyph>
<glyph name="L" format="2">
  <advance width="1455"/>
  <unicode hex="004C"/>
  <anchor x="686" y="0" name="Anchor-2"/>
  <anchor x="849" y="943" name="Anchor-1"/>
  <anchor x="384" y="1500" name="Anchor-0"/>
  <outline>
    <contour>
      <point x="253" y="1390" type="curve" smooth="yes"/>
      <point x="106" y="1390" type="line" smooth="yes"/>
      <point x="80" y="1390"/>
      <point x="75" y="1396"/>
      <point x="75" y="1424" type="curve" smooth="yes"/>
      <point x="75" y="1471" type="line" smooth="yes"/>
      <point x="75" y="1496"/>
      <point x="82" y="1500"/>
      <point x="108" y="1500" type="curve" smooth="yes"/>
      <point x="664" y="1500" type="line" smooth="yes"/>
      <point x="696" y="1500"/>
      <point x="705" y="1498"/>
      <point x="705" y="1466" type="curve" smooth="yes"/>
      <point x="705" y="1424" type="line" smooth="yes"/>
      <point x="705" y="1395"/>
      <point x="697" y="1390"/>
      <point x="670" y="1390" type="curve" smooth="yes"/>
      <point x="526" y="1390" type="line" smooth="yes"/>
      <point x="496" y="1390"/>
      <point x="485" y="1384"/>
      <point x="485" y="1351" type="curve" smooth="yes"/>
      <point x="485" y="142" type="line" smooth="yes"/>
      <point x="485" y="113"/>
      <point x="497" y="110"/>
      <point x="527" y="110" type="curve" smooth="yes"/>
      <point x="935" y="110" type="line" smooth="yes"/>
      <point x="1203" y="110"/>
      <point x="1272" y="230"/>
      <point x="1275" y="482" type="curve" smooth="yes"/>
      <point x="1275" y="501"/>
      <point x="1277" y="510"/>
      <point x="1296" y="510" type="curve" smooth="yes"/>
      <point x="1338" y="510" type="line" smooth="yes"/>
      <point x="1365" y="510"/>
      <point x="1375" y="509"/>
      <point x="1375" y="482" type="curve" smooth="yes"/>
      <point x="1375" y="46" type="line" smooth="yes"/>
      <point x="1375" y="9"/>
      <point x="1373" y="0"/>
      <point x="1336" y="0" type="curve" smooth="yes"/>
      <point x="118" y="0" type="line" smooth="yes"/>
      <point x="87" y="0"/>
      <point x="75" y="3"/>
      <point x="75" y="36" type="curve" smooth="yes"/>
      <point x="75" y="78" type="line" smooth="yes"/>
      <point x="75" y="102"/>
      <point x="77" y="110"/>
      <point x="100" y="110" type="curve" smooth="yes"/>
      <point x="248" y="110" type="line" smooth="yes"/>
      <point x="286" y="110"/>
      <point x="295" y="112"/>
      <point x="295" y="150" type="curve" smooth="yes"/>
      <point x="295" y="1352" type="line" smooth="yes"/>
      <point x="295" y="1385"/>
      <point x="288" y="1390"/>
    </contour>
  </outline>
</glyph>
<glyph name="Q" format="2">
  <advance width="1660"/>
  <unicode hex="0051"/>
  <anchor x="826" y="1500" name="Anchor-0"/>
  <outline>
    <contour>
      <point x="110" y="750" type="curve" smooth="yes"/>
      <point x="110" y="1176"/>
      <point x="384" y="1520"/>
      <point x="830" y="1520" type="curve" smooth="yes"/>
      <point x="1276" y="1520"/>
      <point x="1550" y="1176"/>
      <point x="1550" y="750" type="curve" smooth="yes"/>
      <point x="1550" y="477"/>
      <point x="1429" y="236"/>
      <point x="1229" y="100" type="curve" smooth="yes"/>
      <point x="1195" y="77"/>
      <point x="1189" y="77"/>
      <point x="1211" y="40" type="curve" smooth="yes"/>
      <point x="1251" y="-28"/>
      <point x="1291" y="-74"/>
      <point x="1336" y="-74" type="curve" smooth="yes"/>
      <point x="1451" y="-74"/>
      <point x="1502" y="34"/>
      <point x="1509" y="139" type="curve" smooth="yes"/>
      <point x="1510" y="157"/>
      <point x="1515" y="164"/>
      <point x="1536" y="164" type="curve" smooth="yes"/>
      <point x="1572" y="164" type="line" smooth="yes"/>
      <point x="1603" y="164"/>
      <point x="1609" y="160"/>
      <point x="1609" y="131" type="curve" smooth="yes"/>
      <point x="1609" y="-82"/>
      <point x="1499" y="-250"/>
      <point x="1320" y="-250" type="curve" smooth="yes"/>
      <point x="1187" y="-250"/>
      <point x="1125" y="-144"/>
      <point x="1067" y="-20" type="curve" smooth="yes"/>
      <point x="1053" y="11"/>
      <point x="1043" y="9"/>
      <point x="1000" y="-1" type="curve" smooth="yes"/>
      <point x="946" y="-14"/>
      <point x="889" y="-20"/>
      <point x="830" y="-20" type="curve" smooth="yes"/>
      <point x="384" y="-20"/>
      <point x="110" y="324"/>
    </contour>
    <contour>
      <point x="630" y="121" type="curve" smooth="yes"/>
      <point x="687" y="94"/>
      <point x="754" y="80"/>
      <point x="830" y="80" type="curve" smooth="yes"/>
      <point x="879" y="80"/>
      <point x="924" y="86"/>
      <point x="965" y="96" type="curve" smooth="yes"/>
      <point x="1011" y="108"/>
      <point x="1016" y="117"/>
      <point x="1001" y="151" type="curve" smooth="yes"/>
      <point x="939" y="291"/>
      <point x="878" y="420"/>
      <point x="728" y="420" type="curve" smooth="yes"/>
      <point x="582" y="420"/>
      <point x="520" y="259"/>
      <point x="585" y="158" type="curve" smooth="yes"/>
      <point x="597" y="140"/>
      <point x="610" y="131"/>
    </contour>
    <contour>
      <point x="1180" y="232" type="curve" smooth="yes"/>
      <point x="1281" y="356"/>
      <point x="1320" y="544"/>
      <point x="1320" y="750" type="curve" smooth="yes"/>
      <point x="1320" y="1114"/>
      <point x="1178" y="1420"/>
      <point x="830" y="1420" type="curve" smooth="yes"/>
      <point x="482" y="1420"/>
      <point x="340" y="1114"/>
      <point x="340" y="750" type="curve" smooth="yes"/>
      <point x="340" y="589"/>
      <point x="368" y="441"/>
      <point x="429" y="324" type="curve" smooth="yes"/>
      <point x="452" y="281"/>
      <point x="457" y="281"/>
      <point x="460" y="322" type="curve" smooth="yes"/>
      <point x="468" y="442"/>
      <point x="538" y="606"/>
      <point x="724" y="606" type="curve" smooth="yes"/>
      <point x="911" y="606"/>
      <point x="1022" y="413"/>
      <point x="1113" y="233" type="curve" smooth="yes"/>
      <point x="1140" y="180"/>
      <point x="1144" y="189"/>
    </contour>
  </outline>
</glyph>
<glyph name="U" format="2">
  <advance width="1680"/>
  <unicode hex="0055"/>
  <anchor x="981" y="0" name="Anchor-3"/>
  <anchor x="856" y="0" name="Anchor-2"/>
  <anchor x="876" y="1500" name="Anchor-0"/>
  <outline>
    <contour>
      <point x="1248" y="1390" type="curve" smooth="yes"/>
      <point x="1070" y="1390" type="line" smooth="yes"/>
      <point x="1045" y="1390"/>
      <point x="1040" y="1396"/>
      <point x="1040" y="1423" type="curve" smooth="yes"/>
      <point x="1040" y="1461" type="line" smooth="yes"/>
      <point x="1040" y="1495"/>
      <point x="1048" y="1500"/>
      <point x="1080" y="1500" type="curve" smooth="yes"/>
      <point x="1586" y="1500" type="line" smooth="yes"/>
      <point x="1620" y="1500"/>
      <point x="1630" y="1497"/>
      <point x="1630" y="1461" type="curve" smooth="yes"/>
      <point x="1630" y="1427" type="line" smooth="yes"/>
      <point x="1630" y="1393"/>
      <point x="1620" y="1390"/>
      <point x="1588" y="1390" type="curve" smooth="yes"/>
      <point x="1454" y="1390" type="line" smooth="yes"/>
      <point x="1417" y="1390"/>
      <point x="1410" y="1387"/>
      <point x="1410" y="1351" type="curve" smooth="yes"/>
      <point x="1410" y="600" type="line" smooth="yes"/>
      <point x="1410" y="170"/>
      <point x="1246" y="-30"/>
      <point x="850" y="-30" type="curve" smooth="yes"/>
      <point x="424" y="-30"/>
      <point x="270" y="234"/>
      <point x="270" y="600" type="curve" smooth="yes"/>
      <point x="270" y="1349" type="line" smooth="yes"/>
      <point x="270" y="1387"/>
      <point x="255" y="1390"/>
      <point x="220" y="1390" type="curve" smooth="yes"/>
      <point x="84" y="1390" type="line" smooth="yes"/>
      <point x="51" y="1390"/>
      <point x="50" y="1399"/>
      <point x="50" y="1433" type="curve" smooth="yes"/>
      <point x="50" y="1465" type="line" smooth="yes"/>
      <point x="50" y="1497"/>
      <point x="62" y="1500"/>
      <point x="92" y="1500" type="curve" smooth="yes"/>
      <point x="654" y="1500" type="line" smooth="yes"/>
      <point x="686" y="1500"/>
      <point x="700" y="1498"/>
      <point x="700" y="1463" type="curve" smooth="yes"/>
      <point x="700" y="1435" type="line" smooth="yes"/>
      <point x="700" y="1394"/>
      <point x="691" y="1390"/>
      <point x="652" y="1390" type="curve" smooth="yes"/>
      <point x="510" y="1390" type="line" smooth="yes"/>
      <point x="467" y="1390"/>
      <point x="460" y="1387"/>
      <point x="460" y="1345" type="curve" smooth="yes"/>
      <point x="460" y="620" type="line" smooth="yes"/>
      <point x="460" y="316"/>
      <point x="552" y="90"/>
      <point x="880" y="90" type="curve" smooth="yes"/>
      <point x="1188" y="90"/>
      <point x="1290" y="236"/>
      <point x="1290" y="600" type="curve" smooth="yes"/>
      <point x="1290" y="1345" type="line" smooth="yes"/>
      <point x="1290" y="1384"/>
      <point x="1286" y="1390"/>
    </contour>
  </outline>
</glyph>
<glyph name="V" format="2">
  <advance width="1720"/>
  <unicode hex="0056"/>
  <anchor x="882" y="0" name="Anchor-2"/>
  <anchor x="906" y="1500" name="Anchor-0"/>
  <outline>
    <contour>
      <point x="971" y="336" type="curve" smooth="yes"/>
      <point x="1387" y="1347" type="line" smooth="yes"/>
      <point x="1402" y="1384"/>
      <point x="1393" y="1390"/>
      <point x="1337" y="1390" type="curve" smooth="yes"/>
      <point x="1195" y="1390" type="line" smooth="yes"/>
      <point x="1167" y="1390"/>
      <point x="1160" y="1393"/>
      <point x="1160" y="1420" type="curve" smooth="yes"/>
      <point x="1160" y="1469" type="line" smooth="yes"/>
      <point x="1160" y="1494"/>
      <point x="1165" y="1500"/>
      <point x="1189" y="1500" type="curve" smooth="yes"/>
      <point x="1691" y="1500" type="line" smooth="yes"/>
      <point x="1719" y="1500"/>
      <point x="1720" y="1491"/>
      <point x="1720" y="1463" type="curve" smooth="yes"/>
      <point x="1720" y="1426" type="line" smooth="yes"/>
      <point x="1720" y="1400"/>
      <point x="1719" y="1390"/>
      <point x="1693" y="1390" type="curve" smooth="yes"/>
      <point x="1560" y="1390" type="line" smooth="yes"/>
      <point x="1516" y="1390"/>
      <point x="1509" y="1376"/>
      <point x="1497" y="1347" type="curve" smooth="yes"/>
      <point x="946" y="10" type="line" smooth="yes"/>
      <point x="937" y="-13"/>
      <point x="930" y="-30"/>
      <point x="895" y="-30" type="curve" smooth="yes"/>
      <point x="865" y="-30" type="line" smooth="yes"/>
      <point x="825" y="-30"/>
      <point x="815" y="-19"/>
      <point x="804" y="8" type="curve" smooth="yes"/>
      <point x="239" y="1359" type="line" smooth="yes"/>
      <point x="228" y="1386"/>
      <point x="228" y="1390"/>
      <point x="188" y="1390" type="curve" smooth="yes"/>
      <point x="32" y="1390" type="line" smooth="yes"/>
      <point x="2" y="1390"/>
      <point x="0" y="1398"/>
      <point x="0" y="1429" type="curve" smooth="yes"/>
      <point x="0" y="1461" type="line" smooth="yes"/>
      <point x="0" y="1494"/>
      <point x="6" y="1500"/>
      <point x="38" y="1500" type="curve" smooth="yes"/>
      <point x="622" y="1500" type="line" smooth="yes"/>
      <point x="659" y="1500"/>
      <point x="660" y="1491"/>
      <point x="660" y="1453" type="curve" smooth="yes"/>
      <point x="660" y="1439" type="line" smooth="yes"/>
      <point x="660" y="1396"/>
      <point x="655" y="1390"/>
      <point x="614" y="1390" type="curve" smooth="yes"/>
      <point x="508" y="1390" type="line" smooth="yes"/>
      <point x="450" y="1390"/>
      <point x="450" y="1376"/>
      <point x="465" y="1339" type="curve" smooth="yes"/>
      <point x="863" y="351" type="line" smooth="yes"/>
      <point x="916" y="220"/>
      <point x="928" y="233"/>
    </contour>
  </outline>
</glyph>
<glyph name="grave" format="2">
  <advance width="790"/>
  <unicode hex="0060"/>
  <outline>
    <contour>
      <point x="180" y="1440" type="line" smooth="yes"/>
      <point x="142" y="1441"/>
      <point x="110" y="1472"/>
      <point x="110" y="1510" type="curve" smooth="yes"/>
      <point x="110" y="1548"/>
      <point x="144" y="1589"/>
      <point x="200" y="1576" type="curve" smooth="yes"/>
      <point x="637" y="1470" type="line" smooth="yes"/>
      <point x="662" y="1464"/>
      <point x="678" y="1460"/>
      <point x="675" y="1440" type="curve" smooth="yes"/>
      <point x="673" y="1421"/>
      <point x="666" y="1420"/>
      <point x="641" y="1421" type="curve" smooth="yes"/>
    </contour>
  </outline>
</glyph>
<glyph name="a" format="2">
  <advance width="1112"/>
  <unicode hex="0061"/>
  <anchor x="572" y="1040" name="Anchor-0"/>
  <anchor x="595" y="0" name="Anchor-2"/>
  <anchor x="985" y="10" name="Anchor-3"/>
  <outline>
    <contour>
      <point x="100" y="246" type="curve" smooth="yes"/>
      <point x="100" y="434"/>
      <point x="274" y="598"/>
      <point x="618" y="598" type="curve" smooth="yes"/>
      <point x="716" y="598" type="line" smooth="yes"/>
      <point x="739" y="598"/>
      <point x="742" y="600"/>
      <point x="742" y="624" type="curve" smooth="yes"/>
      <point x="742" y="734" type="line" smooth="yes"/>
      <point x="742" y="868"/>
      <point x="706" y="968"/>
      <point x="546" y="968" type="curve" smooth="yes"/>
      <point x="438" y="968"/>
      <point x="332" y="930"/>
      <point x="332" y="890" type="curve" smooth="yes"/>
      <point x="332" y="854"/>
      <point x="388" y="864"/>
      <point x="388" y="786" type="curve" smooth="yes"/>
      <point x="388" y="718"/>
      <point x="346" y="670"/>
      <point x="278" y="670" type="curve" smooth="yes"/>
      <point x="216" y="670"/>
      <point x="160" y="698"/>
      <point x="160" y="786" type="curve" smooth="yes"/>
      <point x="160" y="960"/>
      <point x="384" y="1060"/>
      <point x="586" y="1060" type="curve" smooth="yes"/>
      <point x="866" y="1060"/>
      <point x="922" y="906"/>
      <point x="922" y="744" type="curve" smooth="yes"/>
      <point x="922" y="142" type="line" smooth="yes"/>
      <point x="922" y="102"/>
      <point x="946" y="84"/>
      <point x="974" y="84" type="curve" smooth="yes"/>
      <point x="1002" y="84"/>
      <point x="1034" y="94"/>
      <point x="1069" y="149" type="curve" smooth="yes"/>
      <point x="1076" y="161"/>
      <point x="1082" y="164"/>
      <point x="1092" y="156" type="curve"/>
      <point x="1128" y="134" type="line" smooth="yes"/>
      <point x="1139" y="127"/>
      <point x="1140" y="123"/>
      <point x="1134" y="110" type="curve" smooth="yes"/>
      <point x="1087" y="21"/>
      <point x="1007" y="-20"/>
      <point x="926" y="-20" type="curve" smooth="yes"/>
      <point x="925" y="-20" type="line" smooth="yes"/>
      <point x="774" y="-20"/>
      <point x="756" y="75"/>
      <point x="748" y="124" type="curve" smooth="yes"/>
      <point x="744" y="148"/>
      <point x="738" y="148"/>
      <point x="720" y="123" type="curve" smooth="yes"/>
      <point x="688" y="78"/>
      <point x="621" y="-20"/>
      <point x="410" y="-20" type="curve" smooth="yes"/>
      <point x="232" y="-20"/>
      <point x="100" y="78"/>
    </contour>
    <contour>
      <point x="304" y="276" type="curve" smooth="yes"/>
      <point x="304" y="142"/>
      <point x="400" y="92"/>
      <point x="500" y="92" type="curve" smooth="yes"/>
      <point x="636" y="92"/>
      <point x="742" y="200"/>
      <point x="742" y="382" type="curve" smooth="yes"/>
      <point x="742" y="502" type="line" smooth="yes"/>
      <point x="742" y="519"/>
      <point x="739" y="522"/>
      <point x="722" y="522" type="curve" smooth="yes"/>
      <point x="618" y="522" type="line" smooth="yes"/>
      <point x="386" y="522"/>
      <point x="304" y="430"/>
    </contour>
  </outline>
</glyph>
<glyph name="b" format="2">
  <advance width="1281"/>
  <unicode hex="0062"/>
  <anchor x="832" y="1040" name="Anchor-0"/>
  <anchor x="685" y="0" name="Anchor-2"/>
  <outline>
    <contour>
      <point x="410" y="520" type="curve" smooth="yes"/>
      <point x="410" y="292"/>
      <point x="524" y="84"/>
      <point x="706" y="84" type="curve" smooth="yes"/>
      <point x="874" y="84"/>
      <point x="986" y="292"/>
      <point x="986" y="520" type="curve" smooth="yes"/>
      <point x="986" y="748"/>
      <point x="874" y="956"/>
      <point x="706" y="956" type="curve" smooth="yes"/>
      <point x="524" y="956"/>
      <point x="410" y="748"/>
    </contour>
    <contour>
      <point x="67" y="1450" type="line" smooth="yes"/>
      <point x="54" y="1450"/>
      <point x="50" y="1456"/>
      <point x="50" y="1470" type="curve" smooth="yes"/>
      <point x="50" y="1545" type="line" smooth="yes"/>
      <point x="50" y="1555"/>
      <point x="51" y="1560"/>
      <point x="61" y="1560" type="curve" smooth="yes"/>
      <point x="394" y="1560" type="line" smooth="yes"/>
      <point x="404" y="1560"/>
      <point x="410" y="1558"/>
      <point x="410" y="1547" type="curve" smooth="yes"/>
      <point x="410" y="867" type="line" smooth="yes"/>
      <point x="410" y="837"/>
      <point x="412" y="834"/>
      <point x="420" y="850" type="curve" smooth="yes"/>
      <point x="486" y="981"/>
      <point x="598" y="1058"/>
      <point x="742" y="1058" type="curve" smooth="yes"/>
      <point x="980" y="1058"/>
      <point x="1186" y="860"/>
      <point x="1186" y="520" type="curve" smooth="yes"/>
      <point x="1186" y="180"/>
      <point x="980" y="-20"/>
      <point x="742" y="-20" type="curve" smooth="yes"/>
      <point x="602" y="-20"/>
      <point x="492" y="52"/>
      <point x="426" y="177" type="curve" smooth="yes"/>
      <point x="413" y="201"/>
      <point x="410" y="200"/>
      <point x="410" y="152" type="curve" smooth="yes"/>
      <point x="410" y="36" type="line" smooth="yes"/>
      <point x="410" y="16"/>
      <point x="406" y="0"/>
      <point x="385" y="0" type="curve" smooth="yes"/>
      <point x="69" y="0" type="line" smooth="yes"/>
      <point x="53" y="0"/>
      <point x="50" y="1"/>
      <point x="50" y="17" type="curve" smooth="yes"/>
      <point x="50" y="94" type="line" smooth="yes"/>
      <point x="50" y="107"/>
      <point x="55" y="110"/>
      <point x="69" y="110" type="curve" smooth="yes"/>
      <point x="213" y="110" type="line" smooth="yes"/>
      <point x="227" y="110"/>
      <point x="230" y="113"/>
      <point x="230" y="128" type="curve" smooth="yes"/>
      <point x="230" y="1430" type="line" smooth="yes"/>
      <point x="230" y="1446"/>
      <point x="226" y="1450"/>
      <point x="214" y="1450" type="curve" smooth="yes"/>
    </contour>
  </outline>
</glyph>
<glyph name="c" format="2">
  <advance width="1086"/>
  <unicode hex="0063"/>
  <anchor x="591" y="1040" name="Anchor-0"/>
  <anchor x="589" y="0" name="Anchor-2"/>
  <outline>
    <contour>
      <point x="90" y="520" type="curve" smooth="yes"/>
      <point x="90" y="820"/>
      <point x="266" y="1060"/>
      <point x="588" y="1060" type="curve" smooth="yes"/>
      <point x="832" y="1060"/>
      <point x="980" y="926"/>
      <point x="980" y="762" type="curve" smooth="yes"/>
      <point x="980" y="666"/>
      <point x="910" y="630"/>
      <point x="852" y="630" type="curve" smooth="yes"/>
      <point x="798" y="630"/>
      <point x="738" y="672"/>
      <point x="738" y="746" type="curve" smooth="yes"/>
      <point x="738" y="818"/>
      <point x="802" y="828"/>
      <point x="802" y="874" type="curve" smooth="yes"/>
      <point x="802" y="928"/>
      <point x="716" y="966"/>
      <point x="608" y="966" type="curve" smooth="yes"/>
      <point x="390" y="966"/>
      <point x="292" y="748"/>
      <point x="292" y="520" type="curve" smooth="yes"/>
      <point x="292" y="292"/>
      <point x="370" y="78"/>
      <point x="588" y="78" type="curve" smooth="yes"/>
      <point x="747" y="78"/>
      <point x="850" y="178"/>
      <point x="902" y="327" type="curve" smooth="yes"/>
      <point x="907" y="340"/>
      <point x="911" y="346"/>
      <point x="930" y="346" type="curve" smooth="yes"/>
      <point x="992" y="346" type="line" smooth="yes"/>
      <point x="1013" y="346"/>
      <point x="1016" y="343"/>
      <point x="1011" y="328" type="curve" smooth="yes"/>
      <point x="947" y="124"/>
      <point x="819" y="-20"/>
      <point x="584" y="-20" type="curve" smooth="yes"/>
      <point x="242" y="-20"/>
      <point x="90" y="220"/>
    </contour>
  </outline>
</glyph>
<glyph name="d" format="2">
  <advance width="1281"/>
  <unicode hex="0064"/>
  <anchor x="561" y="1040" name="Anchor-0"/>
  <anchor x="1299" y="1040" name="Anchor-1"/>
  <anchor x="742" y="0" name="Anchor-2"/>
  <outline>
    <contour>
      <point x="300" y="520" type="curve" smooth="yes"/>
      <point x="300" y="292"/>
      <point x="412" y="84"/>
      <point x="580" y="84" type="curve" smooth="yes"/>
      <point x="762" y="84"/>
      <point x="876" y="292"/>
      <point x="876" y="520" type="curve" smooth="yes"/>
      <point x="876" y="748"/>
      <point x="762" y="956"/>
      <point x="580" y="956" type="curve" smooth="yes"/>
      <point x="412" y="956"/>
      <point x="300" y="748"/>
    </contour>
    <contour>
      <point x="100" y="520" type="curve" smooth="yes"/>
      <point x="100" y="860"/>
      <point x="306" y="1058"/>
      <point x="544" y="1058" type="curve" smooth="yes"/>
      <point x="683" y="1058"/>
      <point x="791" y="987"/>
      <point x="858" y="865" type="curve" smooth="yes"/>
      <point x="872" y="840"/>
      <point x="876" y="840"/>
      <point x="876" y="893" type="curve" smooth="yes"/>
      <point x="876" y="1423" type="line" smooth="yes"/>
      <point x="876" y="1449"/>
      <point x="871" y="1450"/>
      <point x="844" y="1450" type="curve" smooth="yes"/>
      <point x="714" y="1450" type="line" smooth="yes"/>
      <point x="698" y="1450"/>
      <point x="696" y="1458"/>
      <point x="696" y="1475" type="curve" smooth="yes"/>
      <point x="696" y="1541" type="line" smooth="yes"/>
      <point x="696" y="1557"/>
      <point x="704" y="1560"/>
      <point x="719" y="1560" type="curve" smooth="yes"/>
      <point x="1017" y="1560" type="line" smooth="yes"/>
      <point x="1042" y="1560"/>
      <point x="1056" y="1557"/>
      <point x="1056" y="1530" type="curve" smooth="yes"/>
      <point x="1056" y="142" type="line" smooth="yes"/>
      <point x="1056" y="113"/>
      <point x="1061" y="110"/>
      <point x="1091" y="110" type="curve" smooth="yes"/>
      <point x="1204" y="110" type="line" smooth="yes"/>
      <point x="1229" y="110"/>
      <point x="1236" y="109"/>
      <point x="1236" y="84" type="curve" smooth="yes"/>
      <point x="1236" y="29" type="line" smooth="yes"/>
      <point x="1236" y="4"/>
      <point x="1234" y="0"/>
      <point x="1210" y="0" type="curve" smooth="yes"/>
      <point x="910" y="0" type="line" smooth="yes"/>
      <point x="881" y="0"/>
      <point x="876" y="7"/>
      <point x="876" y="36" type="curve" smooth="yes"/>
      <point x="876" y="157" type="line" smooth="yes"/>
      <point x="876" y="191"/>
      <point x="868" y="201"/>
      <point x="850" y="173" type="curve" smooth="yes"/>
      <point x="773" y="50"/>
      <point x="683" y="-20"/>
      <point x="544" y="-20" type="curve" smooth="yes"/>
      <point x="306" y="-20"/>
      <point x="100" y="180"/>
    </contour>
  </outline>
</glyph>
<glyph name="e" format="2">
  <advance width="1096"/>
  <unicode hex="0065"/>
  <anchor x="565" y="1040" name="Anchor-0"/>
  <anchor x="587" y="0" name="Anchor-2"/>
  <anchor x="818" y="102" name="Anchor-3"/>
  <outline>
    <contour>
      <point x="90" y="500" type="curve" smooth="yes"/>
      <point x="90" y="820"/>
      <point x="248" y="1060"/>
      <point x="570" y="1060" type="curve" smooth="yes"/>
      <point x="896" y="1060"/>
      <point x="1004" y="788"/>
      <point x="1004" y="551" type="curve" smooth="yes"/>
      <point x="1004" y="524"/>
      <point x="996" y="522"/>
      <point x="968" y="522" type="curve" smooth="yes"/>
      <point x="325" y="522" type="line" smooth="yes"/>
      <point x="303" y="522"/>
      <point x="292" y="516"/>
      <point x="292" y="493" type="curve" smooth="yes"/>
      <point x="292" y="272"/>
      <point x="373" y="78"/>
      <point x="580" y="78" type="curve" smooth="yes"/>
      <point x="738" y="78"/>
      <point x="843" y="175"/>
      <point x="896" y="322" type="curve" smooth="yes"/>
      <point x="901" y="336"/>
      <point x="903" y="346"/>
      <point x="923" y="346" type="curve" smooth="yes"/>
      <point x="981" y="346" type="line" smooth="yes"/>
      <point x="1001" y="346"/>
      <point x="1005" y="340"/>
      <point x="1001" y="325" type="curve" smooth="yes"/>
      <point x="945" y="122"/>
      <point x="809" y="-20"/>
      <point x="556" y="-20" type="curve" smooth="yes"/>
      <point x="254" y="-20"/>
      <point x="90" y="220"/>
    </contour>
    <contour>
      <point x="324" y="608" type="curve" smooth="yes"/>
      <point x="776" y="608" type="line" smooth="yes"/>
      <point x="802" y="608"/>
      <point x="805" y="610"/>
      <point x="805" y="624" type="curve" smooth="yes"/>
      <point x="805" y="756"/>
      <point x="732" y="972"/>
      <point x="570" y="972" type="curve" smooth="yes"/>
      <point x="385" y="972"/>
      <point x="296" y="790"/>
      <point x="296" y="633" type="curve" smooth="yes"/>
      <point x="296" y="613"/>
      <point x="300" y="608"/>
    </contour>
  </outline>
</glyph>
<glyph name="f" format="2">
  <advance width="782"/>
  <unicode hex="0066"/>
  <anchor x="719" y="1692" name="Anchor-0"/>
  <anchor x="341" y="0" name="Anchor-2"/>
  <outline>
    <contour>
      <point x="402" y="900" type="curve" smooth="yes"/>
      <point x="402" y="146" type="line" smooth="yes"/>
      <point x="402" y="114"/>
      <point x="403" y="110"/>
      <point x="435" y="110" type="curve" smooth="yes"/>
      <point x="603" y="110" type="line" smooth="yes"/>
      <point x="622" y="110"/>
      <point x="642" y="109"/>
      <point x="642" y="88" type="curve" smooth="yes"/>
      <point x="642" y="30" type="line" smooth="yes"/>
      <point x="642" y="5"/>
      <point x="634" y="0"/>
      <point x="610" y="0" type="curve" smooth="yes"/>
      <point x="65" y="0" type="line" smooth="yes"/>
      <point x="44" y="0"/>
      <point x="42" y="4"/>
      <point x="42" y="26" type="curve" smooth="yes"/>
      <point x="42" y="88" type="line" smooth="yes"/>
      <point x="42" y="108"/>
      <point x="52" y="110"/>
      <point x="70" y="110" type="curve" smooth="yes"/>
      <point x="200" y="110" type="line" smooth="yes"/>
      <point x="221" y="110"/>
      <point x="222" y="117"/>
      <point x="222" y="137" type="curve" smooth="yes"/>
      <point x="222" y="896" type="line" smooth="yes"/>
      <point x="222" y="921"/>
      <point x="221" y="930"/>
      <point x="196" y="930" type="curve" smooth="yes"/>
      <point x="67" y="930" type="line" smooth="yes"/>
      <point x="47" y="930"/>
      <point x="42" y="932"/>
      <point x="42" y="954" type="curve" smooth="yes"/>
      <point x="42" y="1016" type="line" smooth="yes"/>
      <point x="42" y="1037"/>
      <point x="49" y="1040"/>
      <point x="69" y="1040" type="curve" smooth="yes"/>
      <point x="196" y="1040" type="line" smooth="yes"/>
      <point x="220" y="1040"/>
      <point x="222" y="1043"/>
      <point x="222" y="1068" type="curve" smooth="yes"/>
      <point x="222" y="1144" type="line" smooth="yes"/>
      <point x="222" y="1406"/>
      <point x="356" y="1580"/>
      <point x="616" y="1580" type="curve" smooth="yes"/>
      <point x="818" y="1580"/>
      <point x="952" y="1472"/>
      <point x="952" y="1358" type="curve" smooth="yes"/>
      <point x="952" y="1272"/>
      <point x="904" y="1226"/>
      <point x="834" y="1226" type="curve" smooth="yes"/>
      <point x="764" y="1226"/>
      <point x="718" y="1266"/>
      <point x="718" y="1322" type="curve" smooth="yes"/>
      <point x="718" y="1382"/>
      <point x="760" y="1396"/>
      <point x="760" y="1436" type="curve" smooth="yes"/>
      <point x="760" y="1460"/>
      <point x="724" y="1490"/>
      <point x="620" y="1490" type="curve" smooth="yes"/>
      <point x="460" y="1490"/>
      <point x="402" y="1354"/>
      <point x="402" y="1100" type="curve" smooth="yes"/>
      <point x="402" y="1068" type="line" smooth="yes"/>
      <point x="402" y="1048"/>
      <point x="406" y="1040"/>
      <point x="427" y="1040" type="curve" smooth="yes"/>
      <point x="646" y="1040" type="line" smooth="yes"/>
      <point x="673" y="1040"/>
      <point x="682" y="1039"/>
      <point x="682" y="1010" type="curve" smooth="yes"/>
      <point x="682" y="959" type="line" smooth="yes"/>
      <point x="682" y="931"/>
      <point x="679" y="930"/>
      <point x="651" y="930" type="curve" smooth="yes"/>
      <point x="427" y="930" type="line" smooth="yes"/>
      <point x="405" y="930"/>
      <point x="402" y="923"/>
    </contour>
  </outline>
</glyph>
<glyph name="g" format="2">
  <advance width="1199"/>
  <unicode hex="0067"/>
  <anchor x="632" y="1040" name="Anchor-0"/>
  <anchor x="616" y="-565" name="Anchor-2"/>
  <outline>
    <contour>
      <point x="295" y="690" type="curve" smooth="yes"/>
      <point x="295" y="542"/>
      <point x="345" y="400"/>
      <point x="503" y="400" type="curve" smooth="yes"/>
      <point x="661" y="400"/>
      <point x="711" y="542"/>
      <point x="711" y="690" type="curve" smooth="yes"/>
      <point x="711" y="838"/>
      <point x="661" y="980"/>
      <point x="503" y="980" type="curve" smooth="yes"/>
      <point x="345" y="980"/>
      <point x="295" y="838"/>
    </contour>
    <contour>
      <point x="105" y="690" type="curve" smooth="yes"/>
      <point x="105" y="910"/>
      <point x="261" y="1060"/>
      <point x="503" y="1060" type="curve" smooth="yes"/>
      <point x="622" y="1060"/>
      <point x="719" y="1024"/>
      <point x="788" y="962" type="curve" smooth="yes"/>
      <point x="800" y="951"/>
      <point x="799" y="953"/>
      <point x="810" y="965" type="curve" smooth="yes"/>
      <point x="868" y="1031"/>
      <point x="941" y="1060"/>
      <point x="991" y="1060" type="curve" smooth="yes"/>
      <point x="1133" y="1060"/>
      <point x="1199" y="982"/>
      <point x="1199" y="878" type="curve" smooth="yes"/>
      <point x="1199" y="810"/>
      <point x="1153" y="768"/>
      <point x="1093" y="768" type="curve" smooth="yes"/>
      <point x="1037" y="768"/>
      <point x="997" y="806"/>
      <point x="997" y="856" type="curve" smooth="yes"/>
      <point x="997" y="920"/>
      <point x="1035" y="924"/>
      <point x="1035" y="956" type="curve" smooth="yes"/>
      <point x="1035" y="976"/>
      <point x="1021" y="986"/>
      <point x="997" y="986" type="curve" smooth="yes"/>
      <point x="950" y="986"/>
      <point x="899" y="966"/>
      <point x="858" y="906" type="curve" smooth="yes"/>
      <point x="851" y="895"/>
      <point x="847" y="892"/>
      <point x="854" y="880" type="curve" smooth="yes"/>
      <point x="884" y="826"/>
      <point x="901" y="762"/>
      <point x="901" y="690" type="curve" smooth="yes"/>
      <point x="901" y="470"/>
      <point x="745" y="320"/>
      <point x="503" y="320" type="curve" smooth="yes"/>
      <point x="476" y="320"/>
      <point x="451" y="322"/>
      <point x="426" y="326" type="curve" smooth="yes"/>
      <point x="401" y="330"/>
      <point x="390" y="329"/>
      <point x="370" y="320" type="curve" smooth="yes"/>
      <point x="309" y="292"/>
      <point x="255" y="251"/>
      <point x="255" y="212" type="curve" smooth="yes"/>
      <point x="255" y="138"/>
      <point x="339" y="138"/>
      <point x="449" y="138" type="curve" smooth="yes"/>
      <point x="499" y="138"/>
      <point x="615" y="140"/>
      <point x="671" y="140" type="curve" smooth="yes"/>
      <point x="861" y="140"/>
      <point x="1045" y="108"/>
      <point x="1045" y="-164" type="curve" smooth="yes"/>
      <point x="1045" y="-386"/>
      <point x="845" y="-520"/>
      <point x="525" y="-520" type="curve" smooth="yes"/>
      <point x="239" y="-520"/>
      <point x="55" y="-440"/>
      <point x="55" y="-270" type="curve" smooth="yes"/>
      <point x="55" y="-147"/>
      <point x="138" y="-56"/>
      <point x="219" y="-10" type="curve" smooth="yes"/>
      <point x="246" y="5"/>
      <point x="239" y="1"/>
      <point x="213" y="13" type="curve" smooth="yes"/>
      <point x="156" y="38"/>
      <point x="119" y="84"/>
      <point x="119" y="168" type="curve" smooth="yes"/>
      <point x="119" y="244"/>
      <point x="176" y="309"/>
      <point x="270" y="350" type="curve" smooth="yes"/>
      <point x="306" y="365"/>
      <point x="297" y="362"/>
      <point x="268" y="380" type="curve" smooth="yes"/>
      <point x="164" y="443"/>
      <point x="105" y="554"/>
    </contour>
    <contour>
      <point x="903" y="-214" type="curve" smooth="yes"/>
      <point x="903" y="-106"/>
      <point x="835" y="-18"/>
      <point x="705" y="-18" type="curve" smooth="yes"/>
      <point x="663" y="-18"/>
      <point x="521" y="-18"/>
      <point x="477" y="-18" type="curve" smooth="yes"/>
      <point x="427" y="-18"/>
      <point x="378" y="-18"/>
      <point x="332" y="-14" type="curve" smooth="yes"/>
      <point x="316" y="-12"/>
      <point x="313" y="-14"/>
      <point x="305" y="-23" type="curve" smooth="yes"/>
      <point x="246" y="-84"/>
      <point x="245" y="-160"/>
      <point x="245" y="-204" type="curve" smooth="yes"/>
      <point x="245" y="-340"/>
      <point x="345" y="-426"/>
      <point x="557" y="-426" type="curve" smooth="yes"/>
      <point x="725" y="-426"/>
      <point x="903" y="-358"/>
    </contour>
  </outline>
</glyph>
<glyph name="h" format="2">
  <advance width="1315"/>
  <unicode hex="0068"/>
  <anchor x="828" y="1035" name="Anchor-0"/>
  <anchor x="669" y="0" name="Anchor-2"/>
  <outline>
    <contour>
      <point x="208" y="1450" type="curve" smooth="yes"/>
      <point x="72" y="1450" type="line" smooth="yes"/>
      <point x="50" y="1450"/>
      <point x="50" y="1450"/>
      <point x="50" y="1472" type="curve" smooth="yes"/>
      <point x="50" y="1539" type="line" smooth="yes"/>
      <point x="50" y="1558"/>
      <point x="55" y="1560"/>
      <point x="75" y="1560" type="curve" smooth="yes"/>
      <point x="383" y="1560" type="line" smooth="yes"/>
      <point x="407" y="1560"/>
      <point x="410" y="1553"/>
      <point x="410" y="1528" type="curve" smooth="yes"/>
      <point x="410" y="882" type="line" smooth="yes"/>
      <point x="410" y="814"/>
      <point x="417" y="850"/>
      <point x="436" y="881" type="curve" smooth="yes"/>
      <point x="501" y="983"/>
      <point x="628" y="1060"/>
      <point x="776" y="1060" type="curve" smooth="yes"/>
      <point x="990" y="1060"/>
      <point x="1100" y="952"/>
      <point x="1100" y="738" type="curve" smooth="yes"/>
      <point x="1100" y="139" type="line" smooth="yes"/>
      <point x="1100" y="113"/>
      <point x="1104" y="110"/>
      <point x="1131" y="110" type="curve" smooth="yes"/>
      <point x="1259" y="110" type="line" smooth="yes"/>
      <point x="1277" y="110"/>
      <point x="1280" y="107"/>
      <point x="1280" y="88" type="curve" smooth="yes"/>
      <point x="1280" y="20" type="line" smooth="yes"/>
      <point x="1280" y="1"/>
      <point x="1276" y="0"/>
      <point x="1257" y="0" type="curve" smooth="yes"/>
      <point x="763" y="0" type="line" smooth="yes"/>
      <point x="745" y="0"/>
      <point x="742" y="5"/>
      <point x="742" y="23" type="curve" smooth="yes"/>
      <point x="742" y="86" type="line" smooth="yes"/>
      <point x="742" y="101"/>
      <point x="743" y="110"/>
      <point x="758" y="110" type="curve" smooth="yes"/>
      <point x="895" y="110" type="line" smooth="yes"/>
      <point x="919" y="110"/>
      <point x="920" y="114"/>
      <point x="920" y="139" type="curve" smooth="yes"/>
      <point x="920" y="716" type="line" smooth="yes"/>
      <point x="920" y="864"/>
      <point x="862" y="946"/>
      <point x="730" y="946" type="curve" smooth="yes"/>
      <point x="534" y="946"/>
      <point x="410" y="772"/>
      <point x="410" y="566" type="curve" smooth="yes"/>
      <point x="410" y="135" type="line" smooth="yes"/>
      <point x="410" y="114"/>
      <point x="416" y="110"/>
      <point x="438" y="110" type="curve" smooth="yes"/>
      <point x="559" y="110" type="line" smooth="yes"/>
      <point x="584" y="110"/>
      <point x="590" y="104"/>
      <point x="590" y="78" type="curve" smooth="yes"/>
      <point x="590" y="28" type="line" smooth="yes"/>
      <point x="590" y="10"/>
      <point x="587" y="0"/>
      <point x="569" y="0" type="curve" smooth="yes"/>
      <point x="70" y="0" type="line" smooth="yes"/>
      <point x="51" y="0"/>
      <point x="50" y="-1"/>
      <point x="50" y="19" type="curve" smooth="yes"/>
      <point x="50" y="87" type="line" smooth="yes"/>
      <point x="50" y="107"/>
      <point x="48" y="110"/>
      <point x="69" y="110" type="curve" smooth="yes"/>
      <point x="201" y="110" type="line" smooth="yes"/>
      <point x="223" y="110"/>
      <point x="230" y="113"/>
      <point x="230" y="134" type="curve" smooth="yes"/>
      <point x="230" y="1423" type="line" smooth="yes"/>
      <point x="230" y="1442"/>
      <point x="227" y="1450"/>
    </contour>
  </outline>
</glyph>
<glyph name="k" format="2">
  <advance width="1222"/>
  <unicode hex="006B"/>
  <anchor x="900" y="1040" name="Anchor-0"/>
  <anchor x="649" y="0" name="Anchor-2"/>
  <outline>
    <contour>
      <point x="191" y="1450" type="curve" smooth="yes"/>
      <point x="76" y="1450" type="line" smooth="yes"/>
      <point x="52" y="1450"/>
      <point x="50" y="1453"/>
      <point x="50" y="1476" type="curve" smooth="yes"/>
      <point x="50" y="1524" type="line" smooth="yes"/>
      <point x="50" y="1552"/>
      <point x="52" y="1560"/>
      <point x="79" y="1560" type="curve" smooth="yes"/>
      <point x="363" y="1560" type="line" smooth="yes"/>
      <point x="393" y="1560"/>
      <point x="410" y="1554"/>
      <point x="410" y="1521" type="curve" smooth="yes"/>
      <point x="410" y="648" type="line" smooth="yes"/>
      <point x="410" y="612"/>
      <point x="405" y="591"/>
      <point x="429" y="610" type="curve" smooth="yes"/>
      <point x="799" y="899" type="line" smooth="yes"/>
      <point x="835" y="927"/>
      <point x="847" y="930"/>
      <point x="779" y="930" type="curve" smooth="yes"/>
      <point x="661" y="930" type="line" smooth="yes"/>
      <point x="629" y="930"/>
      <point x="628" y="939"/>
      <point x="628" y="972" type="curve" smooth="yes"/>
      <point x="628" y="1010" type="line" smooth="yes"/>
      <point x="628" y="1033"/>
      <point x="631" y="1040"/>
      <point x="653" y="1040" type="curve" smooth="yes"/>
      <point x="1145" y="1040" type="line" smooth="yes"/>
      <point x="1168" y="1040"/>
      <point x="1174" y="1034"/>
      <point x="1174" y="1010" type="curve" smooth="yes"/>
      <point x="1174" y="960" type="line" smooth="yes"/>
      <point x="1174" y="932"/>
      <point x="1166" y="930"/>
      <point x="1137" y="930" type="curve" smooth="yes"/>
      <point x="1029" y="930" type="line" smooth="yes"/>
      <point x="999" y="930"/>
      <point x="984" y="923"/>
      <point x="969" y="910" type="curve" smooth="yes"/>
      <point x="627" y="631" type="line" smooth="yes"/>
      <point x="604" y="612"/>
      <point x="602" y="612"/>
      <point x="623" y="590" type="curve" smooth="yes"/>
      <point x="1058" y="134" type="line" smooth="yes"/>
      <point x="1075" y="116"/>
      <point x="1080" y="110"/>
      <point x="1117" y="110" type="curve" smooth="yes"/>
      <point x="1179" y="110" type="line" smooth="yes"/>
      <point x="1197" y="110"/>
      <point x="1202" y="104"/>
      <point x="1202" y="85" type="curve" smooth="yes"/>
      <point x="1202" y="38" type="line" smooth="yes"/>
      <point x="1202" y="6"/>
      <point x="1193" y="0"/>
      <point x="1163" y="0" type="curve" smooth="yes"/>
      <point x="757" y="0" type="line" smooth="yes"/>
      <point x="729" y="0"/>
      <point x="728" y="9"/>
      <point x="728" y="38" type="curve" smooth="yes"/>
      <point x="728" y="75" type="line" smooth="yes"/>
      <point x="728" y="104"/>
      <point x="731" y="110"/>
      <point x="759" y="110" type="curve" smooth="yes"/>
      <point x="808" y="110" type="line" smooth="yes"/>
      <point x="852" y="110"/>
      <point x="845" y="118"/>
      <point x="828" y="136" type="curve" smooth="yes"/>
      <point x="429" y="546" type="line" smooth="yes"/>
      <point x="414" y="561"/>
      <point x="410" y="554"/>
      <point x="410" y="518" type="curve" smooth="yes"/>
      <point x="410" y="146" type="line" smooth="yes"/>
      <point x="410" y="119"/>
      <point x="414" y="110"/>
      <point x="443" y="110" type="curve" smooth="yes"/>
      <point x="533" y="110" type="line" smooth="yes"/>
      <point x="554" y="110"/>
      <point x="570" y="107"/>
      <point x="570" y="84" type="curve" smooth="yes"/>
      <point x="570" y="22" type="line" smooth="yes"/>
      <point x="570" y="2"/>
      <point x="562" y="0"/>
      <point x="541" y="0" type="curve" smooth="yes"/>
      <point x="75" y="0" type="line" smooth="yes"/>
      <point x="54" y="0"/>
      <point x="50" y="11"/>
      <point x="50" y="30" type="curve" smooth="yes"/>
      <point x="50" y="92" type="line" smooth="yes"/>
      <point x="50" y="109"/>
      <point x="59" y="110"/>
      <point x="77" y="110" type="curve" smooth="yes"/>
      <point x="195" y="110" type="line" smooth="yes"/>
      <point x="222" y="110"/>
      <point x="230" y="112"/>
      <point x="230" y="138" type="curve" smooth="yes"/>
      <point x="230" y="1418" type="line" smooth="yes"/>
      <point x="230" y="1447"/>
      <point x="218" y="1450"/>
    </contour>
  </outline>
</glyph>
<glyph name="l" format="2">
  <advance width="624"/>
  <unicode hex="006C"/>
  <anchor x="313" y="1696" name="Anchor-0"/>
  <anchor x="556" y="1040" name="Anchor-1"/>
  <anchor x="320" y="0" name="Anchor-2"/>
  <outline>
    <contour>
      <point x="182" y="1450" type="curve" smooth="yes"/>
      <point x="72" y="1450" type="line" smooth="yes"/>
      <point x="41" y="1450"/>
      <point x="39" y="1464"/>
      <point x="39" y="1492" type="curve" smooth="yes"/>
      <point x="39" y="1530" type="line" smooth="yes"/>
      <point x="39" y="1558"/>
      <point x="55" y="1560"/>
      <point x="80" y="1560" type="curve" smooth="yes"/>
      <point x="354" y="1560" type="line" smooth="yes"/>
      <point x="389" y="1560"/>
      <point x="399" y="1559"/>
      <point x="399" y="1524" type="curve" smooth="yes"/>
      <point x="399" y="154" type="line" smooth="yes"/>
      <point x="399" y="119"/>
      <point x="393" y="110"/>
      <point x="430" y="110" type="curve" smooth="yes"/>
      <point x="552" y="110" type="line" smooth="yes"/>
      <point x="571" y="110"/>
      <point x="579" y="105"/>
      <point x="579" y="84" type="curve" smooth="yes"/>
      <point x="579" y="40" type="line" smooth="yes"/>
      <point x="579" y="2"/>
      <point x="567" y="0"/>
      <point x="532" y="0" type="curve" smooth="yes"/>
      <point x="78" y="0" type="line" smooth="yes"/>
      <point x="48" y="0"/>
      <point x="39" y="4"/>
      <point x="39" y="36" type="curve" smooth="yes"/>
      <point x="39" y="76" type="line" smooth="yes"/>
      <point x="39" y="100"/>
      <point x="40" y="110"/>
      <point x="64" y="110" type="curve" smooth="yes"/>
      <point x="188" y="110" type="line" smooth="yes"/>
      <point x="220" y="110"/>
      <point x="219" y="112"/>
      <point x="219" y="144" type="curve" smooth="yes"/>
      <point x="219" y="1416" type="line" smooth="yes"/>
      <point x="219" y="1445"/>
      <point x="213" y="1450"/>
    </contour>
  </outline>
</glyph>
<glyph name="m" format="2">
  <advance width="1841"/>
  <unicode hex="006D"/>
  <anchor x="999" y="1040" name="Anchor-0"/>
  <anchor x="940" y="0" name="Anchor-2"/>
  <outline>
    <contour>
      <point x="80" y="30" type="curve" smooth="yes"/>
      <point x="80" y="88" type="line" smooth="yes"/>
      <point x="80" y="106"/>
      <point x="87" y="110"/>
      <point x="106" y="110" type="curve" smooth="yes"/>
      <point x="198" y="110" type="line" smooth="yes"/>
      <point x="233" y="110"/>
      <point x="240" y="114"/>
      <point x="240" y="148" type="curve" smooth="yes"/>
      <point x="240" y="898" type="line" smooth="yes"/>
      <point x="240" y="927"/>
      <point x="228" y="930"/>
      <point x="202" y="930" type="curve" smooth="yes"/>
      <point x="120" y="930" type="line" smooth="yes"/>
      <point x="87" y="930"/>
      <point x="80" y="934"/>
      <point x="80" y="966" type="curve" smooth="yes"/>
      <point x="80" y="998" type="line" smooth="yes"/>
      <point x="80" y="1033"/>
      <point x="84" y="1040"/>
      <point x="118" y="1040" type="curve" smooth="yes"/>
      <point x="380" y="1040" type="line" smooth="yes"/>
      <point x="409" y="1040"/>
      <point x="420" y="1037"/>
      <point x="420" y="1006" type="curve" smooth="yes"/>
      <point x="420" y="946" type="line" smooth="yes"/>
      <point x="420" y="852"/>
      <point x="435" y="879"/>
      <point x="460" y="915" type="curve" smooth="yes"/>
      <point x="521" y="1001"/>
      <point x="614" y="1060"/>
      <point x="748" y="1060" type="curve" smooth="yes"/>
      <point x="893" y="1060"/>
      <point x="959" y="1003"/>
      <point x="1008" y="910" type="curve" smooth="yes"/>
      <point x="1026" y="876"/>
      <point x="1037" y="883"/>
      <point x="1054" y="903" type="curve" smooth="yes"/>
      <point x="1128" y="989"/>
      <point x="1220" y="1060"/>
      <point x="1360" y="1060" type="curve" smooth="yes"/>
      <point x="1574" y="1060"/>
      <point x="1644" y="952"/>
      <point x="1644" y="738" type="curve" smooth="yes"/>
      <point x="1644" y="154" type="line" smooth="yes"/>
      <point x="1644" y="118"/>
      <point x="1648" y="110"/>
      <point x="1686" y="110" type="curve" smooth="yes"/>
      <point x="1784" y="110" type="line" smooth="yes"/>
      <point x="1803" y="110"/>
      <point x="1806" y="102"/>
      <point x="1806" y="82" type="curve" smooth="yes"/>
      <point x="1806" y="44" type="line" smooth="yes"/>
      <point x="1806" y="4"/>
      <point x="1798" y="0"/>
      <point x="1760" y="0" type="curve" smooth="yes"/>
      <point x="1328" y="0" type="line" smooth="yes"/>
      <point x="1289" y="0"/>
      <point x="1278" y="2"/>
      <point x="1278" y="44" type="curve" smooth="yes"/>
      <point x="1278" y="72" type="line" smooth="yes"/>
      <point x="1278" y="104"/>
      <point x="1283" y="110"/>
      <point x="1314" y="110" type="curve" smooth="yes"/>
      <point x="1418" y="110" type="line" smooth="yes"/>
      <point x="1456" y="110"/>
      <point x="1464" y="113"/>
      <point x="1464" y="150" type="curve" smooth="yes"/>
      <point x="1464" y="716" type="line" smooth="yes"/>
      <point x="1464" y="864"/>
      <point x="1426" y="946"/>
      <point x="1314" y="946" type="curve" smooth="yes"/>
      <point x="1098" y="946"/>
      <point x="1032" y="772"/>
      <point x="1032" y="566" type="curve" smooth="yes"/>
      <point x="1032" y="148" type="line" smooth="yes"/>
      <point x="1032" y="111"/>
      <point x="1047" y="110"/>
      <point x="1080" y="110" type="curve" smooth="yes"/>
      <point x="1150" y="110" type="line" smooth="yes"/>
      <point x="1179" y="110"/>
      <point x="1194" y="108"/>
      <point x="1194" y="76" type="curve" smooth="yes"/>
      <point x="1194" y="40" type="line" smooth="yes"/>
      <point x="1194" y="8"/>
      <point x="1190" y="0"/>
      <point x="1156" y="0" type="curve" smooth="yes"/>
      <point x="730" y="0" type="line" smooth="yes"/>
      <point x="702" y="0"/>
      <point x="692" y="4"/>
      <point x="692" y="34" type="curve" smooth="yes"/>
      <point x="692" y="64" type="line" smooth="yes"/>
      <point x="692" y="103"/>
      <point x="696" y="110"/>
      <point x="734" y="110" type="curve" smooth="yes"/>
      <point x="808" y="110" type="line" smooth="yes"/>
      <point x="845" y="110"/>
      <point x="852" y="114"/>
      <point x="852" y="150" type="curve" smooth="yes"/>
      <point x="852" y="716" type="line" smooth="yes"/>
      <point x="852" y="864"/>
      <point x="814" y="946"/>
      <point x="702" y="946" type="curve" smooth="yes"/>
      <point x="506" y="946"/>
      <point x="420" y="772"/>
      <point x="420" y="566" type="curve" smooth="yes"/>
      <point x="420" y="152" type="line" smooth="yes"/>
      <point x="420" y="110"/>
      <point x="420" y="110"/>
      <point x="462" y="110" type="curve" smooth="yes"/>
      <point x="570" y="110" type="line" smooth="yes"/>
      <point x="598" y="110"/>
      <point x="606" y="106"/>
      <point x="606" y="76" type="curve" smooth="yes"/>
      <point x="606" y="36" type="line" smooth="yes"/>
      <point x="606" y="17"/>
      <point x="603" y="0"/>
      <point x="582" y="0" type="curve" smooth="yes"/>
      <point x="108" y="0" type="line" smooth="yes"/>
      <point x="86" y="0"/>
      <point x="80" y="6"/>
    </contour>
  </outline>
</glyph>
<glyph name="o" format="2">
  <advance width="1136"/>
  <unicode hex="006F"/>
  <anchor x="568" y="1040" name="Anchor-0"/>
  <anchor x="565" y="0" name="Anchor-2"/>
  <outline>
    <contour>
      <point x="300" y="540" type="curve" smooth="yes"/>
      <point x="300" y="292"/>
      <point x="350" y="70"/>
      <point x="568" y="70" type="curve" smooth="yes"/>
      <point x="786" y="70"/>
      <point x="836" y="292"/>
      <point x="836" y="500" type="curve" smooth="yes"/>
      <point x="836" y="748"/>
      <point x="786" y="970"/>
      <point x="568" y="970" type="curve" smooth="yes"/>
      <point x="350" y="970"/>
      <point x="300" y="748"/>
    </contour>
    <contour>
      <point x="90" y="500" type="curve" smooth="yes"/>
      <point x="90" y="820"/>
      <point x="246" y="1060"/>
      <point x="568" y="1060" type="curve" smooth="yes"/>
      <point x="890" y="1060"/>
      <point x="1046" y="820"/>
      <point x="1046" y="540" type="curve" smooth="yes"/>
      <point x="1046" y="220"/>
      <point x="890" y="-20"/>
      <point x="568" y="-20" type="curve" smooth="yes"/>
      <point x="246" y="-20"/>
      <point x="90" y="220"/>
    </contour>
  </outline>
</glyph>
<glyph name="q" format="2">
  <advance width="1256"/>
  <unicode hex="0071"/>
  <anchor x="606" y="1040" name="Anchor-0"/>
  <anchor x="515" y="0" name="Anchor-2"/>
  <outline>
    <contour>
      <point x="866" y="520" type="curve" smooth="yes"/>
      <point x="866" y="748"/>
      <point x="752" y="956"/>
      <point x="570" y="956" type="curve" smooth="yes"/>
      <point x="402" y="956"/>
      <point x="290" y="748"/>
      <point x="290" y="520" type="curve" smooth="yes"/>
      <point x="290" y="292"/>
      <point x="402" y="84"/>
      <point x="570" y="84" type="curve" smooth="yes"/>
      <point x="752" y="84"/>
      <point x="866" y="292"/>
    </contour>
    <contour>
      <point x="1102" y="-390" type="curve" smooth="yes"/>
      <point x="1195" y="-390" type="line" smooth="yes"/>
      <point x="1216" y="-390"/>
      <point x="1226" y="-396"/>
      <point x="1226" y="-416" type="curve" smooth="yes"/>
      <point x="1226" y="-464" type="line" smooth="yes"/>
      <point x="1226" y="-498"/>
      <point x="1218" y="-500"/>
      <point x="1183" y="-500" type="curve" smooth="yes"/>
      <point x="723" y="-500" type="line" smooth="yes"/>
      <point x="692" y="-500"/>
      <point x="686" y="-494"/>
      <point x="686" y="-462" type="curve" smooth="yes"/>
      <point x="686" y="-430" type="line" smooth="yes"/>
      <point x="686" y="-397"/>
      <point x="689" y="-390"/>
      <point x="721" y="-390" type="curve" smooth="yes"/>
      <point x="819" y="-390" type="line" smooth="yes"/>
      <point x="863" y="-390"/>
      <point x="866" y="-381"/>
      <point x="866" y="-336" type="curve" smooth="yes"/>
      <point x="866" y="124" type="line" smooth="yes"/>
      <point x="866" y="196"/>
      <point x="856" y="188"/>
      <point x="839" y="159" type="curve" smooth="yes"/>
      <point x="772" y="47"/>
      <point x="667" y="-18"/>
      <point x="534" y="-18" type="curve" smooth="yes"/>
      <point x="296" y="-18"/>
      <point x="90" y="180"/>
      <point x="90" y="520" type="curve" smooth="yes"/>
      <point x="90" y="860"/>
      <point x="296" y="1060"/>
      <point x="534" y="1060" type="curve" smooth="yes"/>
      <point x="665" y="1060"/>
      <point x="770" y="997"/>
      <point x="837" y="886" type="curve" smooth="yes"/>
      <point x="855" y="857"/>
      <point x="866" y="852"/>
      <point x="866" y="928" type="curve" smooth="yes"/>
      <point x="866" y="998" type="line" smooth="yes"/>
      <point x="866" y="1037"/>
      <point x="883" y="1040"/>
      <point x="923" y="1040" type="curve" smooth="yes"/>
      <point x="1185" y="1040" type="line" smooth="yes"/>
      <point x="1212" y="1040"/>
      <point x="1226" y="1038"/>
      <point x="1226" y="1008" type="curve" smooth="yes"/>
      <point x="1226" y="970" type="line" smooth="yes"/>
      <point x="1226" y="939"/>
      <point x="1218" y="930"/>
      <point x="1185" y="930" type="curve" smooth="yes"/>
      <point x="1090" y="930" type="line" smooth="yes"/>
      <point x="1057" y="930"/>
      <point x="1046" y="924"/>
      <point x="1046" y="892" type="curve" smooth="yes"/>
      <point x="1046" y="-348" type="line" smooth="yes"/>
      <point x="1046" y="-389"/>
      <point x="1060" y="-390"/>
    </contour>
  </outline>
</glyph>
<glyph name="r" format="2">
  <advance width="961"/>
  <unicode hex="0072"/>
  <anchor x="515" y="1040" name="Anchor-0"/>
  <anchor x="357" y="0" name="Anchor-2"/>
  <outline>
    <contour>
      <point x="260" y="892" type="line" smooth="yes"/>
      <point x="260" y="924"/>
      <point x="255" y="930"/>
      <point x="224" y="930" type="curve" smooth="yes"/>
      <point x="110" y="930" type="line" smooth="yes"/>
      <point x="81" y="930"/>
      <point x="80" y="938"/>
      <point x="80" y="968" type="curve" smooth="yes"/>
      <point x="80" y="1005" type="line" smooth="yes"/>
      <point x="80" y="1033"/>
      <point x="84" y="1040"/>
      <point x="112" y="1040" type="curve" smooth="yes"/>
      <point x="404" y="1040" type="line" smooth="yes"/>
      <point x="427" y="1040"/>
      <point x="440" y="1037"/>
      <point x="440" y="1012" type="curve" smooth="yes"/>
      <point x="440" y="907" type="line" smooth="yes"/>
      <point x="440" y="873"/>
      <point x="443" y="869"/>
      <point x="461" y="903" type="curve" smooth="yes"/>
      <point x="509" y="993"/>
      <point x="589" y="1060"/>
      <point x="720" y="1060" type="curve" smooth="yes"/>
      <point x="832" y="1060"/>
      <point x="936" y="988"/>
      <point x="936" y="872" type="curve" smooth="yes"/>
      <point x="936" y="788"/>
      <point x="882" y="720"/>
      <point x="812" y="720" type="curve" smooth="yes"/>
      <point x="744" y="720"/>
      <point x="690" y="760"/>
      <point x="690" y="822" type="curve" smooth="yes"/>
      <point x="690" y="894"/>
      <point x="736" y="908"/>
      <point x="736" y="932" type="curve" smooth="yes"/>
      <point x="736" y="952"/>
      <point x="724" y="962"/>
      <point x="676" y="962" type="curve" smooth="yes"/>
      <point x="540" y="962"/>
      <point x="440" y="772"/>
      <point x="440" y="566" type="curve" smooth="yes"/>
      <point x="440" y="151" type="line" smooth="yes"/>
      <point x="440" y="120"/>
      <point x="441" y="110"/>
      <point x="472" y="110" type="curve" smooth="yes"/>
      <point x="594" y="110" type="line" smooth="yes"/>
      <point x="619" y="110"/>
      <point x="620" y="101"/>
      <point x="620" y="76" type="curve" smooth="yes"/>
      <point x="620" y="31" type="line" smooth="yes"/>
      <point x="620" y="7"/>
      <point x="617" y="0"/>
      <point x="594" y="0" type="curve" smooth="yes"/>
      <point x="108" y="0" type="line" smooth="yes"/>
      <point x="90" y="0"/>
      <point x="80" y="1"/>
      <point x="80" y="19" type="curve" smooth="yes"/>
      <point x="80" y="82" type="line" smooth="yes"/>
      <point x="80" y="104"/>
      <point x="88" y="110"/>
      <point x="108" y="110" type="curve" smooth="yes"/>
      <point x="219" y="110" type="line" smooth="yes"/>
      <point x="249" y="110"/>
      <point x="260" y="116"/>
      <point x="260" y="145" type="curve" smooth="yes"/>
    </contour>
  </outline>
</glyph>
<glyph name="s" format="2">
  <advance width="1005"/>
  <unicode hex="0073"/>
  <anchor x="470" y="1040" name="Anchor-0"/>
  <anchor x="470" y="0" name="Anchor-2"/>
  <outline>
    <contour>
      <point x="766" y="729" type="curve" smooth="yes"/>
      <point x="718" y="877"/>
      <point x="591" y="962"/>
      <point x="456" y="962" type="curve" smooth="yes"/>
      <point x="350" y="962"/>
      <point x="290" y="906"/>
      <point x="290" y="822" type="curve" smooth="yes"/>
      <point x="290" y="542"/>
      <point x="920" y="700"/>
      <point x="920" y="304" type="curve" smooth="yes"/>
      <point x="920" y="96"/>
      <point x="760" y="-24"/>
      <point x="566" y="-24" type="curve" smooth="yes"/>
      <point x="436" y="-24"/>
      <point x="333" y="27"/>
      <point x="272" y="81" type="curve" smooth="yes"/>
      <point x="251" y="100"/>
      <point x="240" y="103"/>
      <point x="231" y="76" type="curve" smooth="yes"/>
      <point x="208" y="4" type="line" smooth="yes"/>
      <point x="203" y="-11"/>
      <point x="192" y="-20"/>
      <point x="171" y="-20" type="curve" smooth="yes"/>
      <point x="125" y="-20" type="line" smooth="yes"/>
      <point x="105" y="-20"/>
      <point x="100" y="-13"/>
      <point x="100" y="7" type="curve" smooth="yes"/>
      <point x="100" y="315" type="line" smooth="yes"/>
      <point x="100" y="339"/>
      <point x="105" y="346"/>
      <point x="128" y="346" type="curve" smooth="yes"/>
      <point x="189" y="346" type="line" smooth="yes"/>
      <point x="211" y="346"/>
      <point x="216" y="335"/>
      <point x="221" y="319" type="curve" smooth="yes"/>
      <point x="273" y="158"/>
      <point x="370" y="80"/>
      <point x="536" y="80" type="curve" smooth="yes"/>
      <point x="676" y="80"/>
      <point x="754" y="144"/>
      <point x="754" y="246" type="curve" smooth="yes"/>
      <point x="754" y="520"/>
      <point x="134" y="348"/>
      <point x="134" y="770" type="curve" smooth="yes"/>
      <point x="134" y="958"/>
      <point x="274" y="1064"/>
      <point x="444" y="1064" type="curve" smooth="yes"/>
      <point x="574" y="1064"/>
      <point x="667" y="1011"/>
      <point x="720" y="956" type="curve" smooth="yes"/>
      <point x="741" y="934"/>
      <point x="740" y="923"/>
      <point x="751" y="959" type="curve" smooth="yes"/>
      <point x="777" y="1038" type="line" smooth="yes"/>
      <point x="783" y="1056"/>
      <point x="788" y="1060"/>
      <point x="813" y="1060" type="curve" smooth="yes"/>
      <point x="858" y="1060" type="line" smooth="yes"/>
      <point x="878" y="1060"/>
      <point x="884" y="1054"/>
      <point x="884" y="1032" type="curve" smooth="yes"/>
      <point x="884" y="725" type="line" smooth="yes"/>
      <point x="884" y="703"/>
      <point x="878" y="700"/>
      <point x="855" y="700" type="curve" smooth="yes"/>
      <point x="799" y="700" type="line" smooth="yes"/>
      <point x="771" y="700"/>
      <point x="772" y="709"/>
    </contour>
  </outline>
</glyph>
<glyph name="t" format="2">
  <advance width="710"/>
  <unicode hex="0074"/>
  <anchor x="312" y="1277" name="Anchor-0"/>
  <anchor x="502" y="1153" name="Anchor-1"/>
  <anchor x="425" y="0" name="Anchor-2"/>
  <outline>
    <contour>
      <point x="689" y="195" type="curve" smooth="yes"/>
      <point x="648" y="74"/>
      <point x="559" y="-24"/>
      <point x="403" y="-24" type="curve" smooth="yes"/>
      <point x="259" y="-24"/>
      <point x="201" y="62"/>
      <point x="201" y="172" type="curve" smooth="yes"/>
      <point x="201" y="896" type="line" smooth="yes"/>
      <point x="201" y="920"/>
      <point x="193" y="930"/>
      <point x="169" y="930" type="curve" smooth="yes"/>
      <point x="50" y="930" type="line" smooth="yes"/>
      <point x="22" y="930"/>
      <point x="15" y="933"/>
      <point x="15" y="960" type="curve" smooth="yes"/>
      <point x="15" y="1014" type="line" smooth="yes"/>
      <point x="15" y="1039"/>
      <point x="20" y="1040"/>
      <point x="45" y="1040" type="curve" smooth="yes"/>
      <point x="189" y="1040"/>
      <point x="212" y="1058"/>
      <point x="265" y="1291" type="curve" smooth="yes"/>
      <point x="270" y="1313"/>
      <point x="272" y="1320"/>
      <point x="301" y="1320" type="curve" smooth="yes"/>
      <point x="355" y="1320" type="line" smooth="yes"/>
      <point x="375" y="1320"/>
      <point x="381" y="1311"/>
      <point x="381" y="1291" type="curve" smooth="yes"/>
      <point x="381" y="1071" type="line" smooth="yes"/>
      <point x="381" y="1043"/>
      <point x="394" y="1040"/>
      <point x="420" y="1040" type="curve" smooth="yes"/>
      <point x="642" y="1040" type="line" smooth="yes"/>
      <point x="668" y="1040"/>
      <point x="675" y="1035"/>
      <point x="675" y="1007" type="curve" smooth="yes"/>
      <point x="675" y="955" type="line" smooth="yes"/>
      <point x="675" y="931"/>
      <point x="666" y="930"/>
      <point x="642" y="930" type="curve" smooth="yes"/>
      <point x="422" y="930" type="line" smooth="yes"/>
      <point x="394" y="930"/>
      <point x="381" y="928"/>
      <point x="381" y="897" type="curve" smooth="yes"/>
      <point x="381" y="214" type="line" smooth="yes"/>
      <point x="381" y="134"/>
      <point x="415" y="100"/>
      <point x="469" y="100" type="curve" smooth="yes"/>
      <point x="526" y="100"/>
      <point x="572" y="142"/>
      <point x="607" y="218" type="curve" smooth="yes"/>
      <point x="616" y="238"/>
      <point x="619" y="241"/>
      <point x="641" y="233" type="curve" smooth="yes"/>
      <point x="673" y="222" type="line" smooth="yes"/>
      <point x="689" y="216"/>
      <point x="695" y="212"/>
    </contour>
  </outline>
</glyph>
<glyph name="u" format="2">
  <advance width="1315"/>
  <unicode hex="0075"/>
  <anchor x="650" y="1040" name="Anchor-0"/>
  <anchor x="662" y="0" name="Anchor-2"/>
  <anchor x="1092" y="0" name="Anchor-3"/>
  <outline>
    <contour>
      <point x="220" y="302" type="curve" smooth="yes"/>
      <point x="220" y="897" type="line" smooth="yes"/>
      <point x="220" y="922"/>
      <point x="218" y="930"/>
      <point x="194" y="930" type="curve" smooth="yes"/>
      <point x="76" y="930" type="line" smooth="yes"/>
      <point x="49" y="930"/>
      <point x="40" y="931"/>
      <point x="40" y="958" type="curve" smooth="yes"/>
      <point x="40" y="1004" type="line" smooth="yes"/>
      <point x="40" y="1035"/>
      <point x="47" y="1040"/>
      <point x="76" y="1040" type="curve" smooth="yes"/>
      <point x="362" y="1040" type="line" smooth="yes"/>
      <point x="392" y="1040"/>
      <point x="400" y="1038"/>
      <point x="400" y="1009" type="curve" smooth="yes"/>
      <point x="400" y="324" type="line" smooth="yes"/>
      <point x="400" y="176"/>
      <point x="458" y="74"/>
      <point x="590" y="74" type="curve" smooth="yes"/>
      <point x="786" y="74"/>
      <point x="910" y="268"/>
      <point x="910" y="474" type="curve" smooth="yes"/>
      <point x="910" y="896" type="line" smooth="yes"/>
      <point x="910" y="928"/>
      <point x="897" y="930"/>
      <point x="868" y="930" type="curve" smooth="yes"/>
      <point x="758" y="930" type="line" smooth="yes"/>
      <point x="740" y="930"/>
      <point x="730" y="931"/>
      <point x="730" y="949" type="curve" smooth="yes"/>
      <point x="730" y="1012" type="line" smooth="yes"/>
      <point x="730" y="1033"/>
      <point x="734" y="1040"/>
      <point x="754" y="1040" type="curve" smooth="yes"/>
      <point x="1066" y="1040" type="line" smooth="yes"/>
      <point x="1087" y="1040"/>
      <point x="1090" y="1032"/>
      <point x="1090" y="1010" type="curve" smooth="yes"/>
      <point x="1090" y="144" type="line" smooth="yes"/>
      <point x="1090" y="114"/>
      <point x="1093" y="110"/>
      <point x="1124" y="110" type="curve" smooth="yes"/>
      <point x="1236" y="110" type="line" smooth="yes"/>
      <point x="1254" y="110"/>
      <point x="1270" y="107"/>
      <point x="1270" y="86" type="curve" smooth="yes"/>
      <point x="1270" y="34" type="line" smooth="yes"/>
      <point x="1270" y="7"/>
      <point x="1268" y="0"/>
      <point x="1242" y="0" type="curve" smooth="yes"/>
      <point x="944" y="0" type="line" smooth="yes"/>
      <point x="914" y="0"/>
      <point x="910" y="7"/>
      <point x="910" y="38" type="curve" smooth="yes"/>
      <point x="910" y="159" type="line" smooth="yes"/>
      <point x="910" y="172"/>
      <point x="900" y="187"/>
      <point x="886" y="163" type="curve" smooth="yes"/>
      <point x="822" y="56"/>
      <point x="718" y="-20"/>
      <point x="544" y="-20" type="curve" smooth="yes"/>
      <point x="290" y="-20"/>
      <point x="220" y="88"/>
    </contour>
  </outline>
</glyph>
<glyph name="v" format="2">
  <advance width="1158"/>
  <unicode hex="0076"/>
  <anchor x="624" y="1040" name="Anchor-0"/>
  <anchor x="597" y="0" name="Anchor-2"/>
  <outline>
    <contour>
      <point x="648" y="285" type="curve" smooth="yes"/>
      <point x="877" y="897" type="line" smooth="yes"/>
      <point x="887" y="924"/>
      <point x="882" y="930"/>
      <point x="848" y="930" type="curve" smooth="yes"/>
      <point x="736" y="930" type="line" smooth="yes"/>
      <point x="715" y="930"/>
      <point x="710" y="936"/>
      <point x="710" y="959" type="curve" smooth="yes"/>
      <point x="710" y="1013" type="line" smooth="yes"/>
      <point x="710" y="1030"/>
      <point x="716" y="1040"/>
      <point x="733" y="1040" type="curve" smooth="yes"/>
      <point x="1122" y="1040" type="line" smooth="yes"/>
      <point x="1150" y="1040"/>
      <point x="1158" y="1036"/>
      <point x="1158" y="1006" type="curve" smooth="yes"/>
      <point x="1158" y="953" type="line" smooth="yes"/>
      <point x="1158" y="932"/>
      <point x="1150" y="930"/>
      <point x="1128" y="930" type="curve" smooth="yes"/>
      <point x="1024" y="930" type="line" smooth="yes"/>
      <point x="995" y="930"/>
      <point x="997" y="923"/>
      <point x="989" y="903" type="curve" smooth="yes"/>
      <point x="651" y="-1" type="line" smooth="yes"/>
      <point x="645" y="-17"/>
      <point x="636" y="-20"/>
      <point x="613" y="-20" type="curve" smooth="yes"/>
      <point x="568" y="-20" type="line" smooth="yes"/>
      <point x="545" y="-20"/>
      <point x="535" y="-17"/>
      <point x="529" y="-1" type="curve" smooth="yes"/>
      <point x="180" y="909" type="line" smooth="yes"/>
      <point x="173" y="929"/>
      <point x="162" y="930"/>
      <point x="134" y="930" type="curve" smooth="yes"/>
      <point x="24" y="930" type="line" smooth="yes"/>
      <point x="7" y="930"/>
      <point x="0" y="938"/>
      <point x="0" y="954" type="curve" smooth="yes"/>
      <point x="0" y="1005" type="line" smooth="yes"/>
      <point x="0" y="1035"/>
      <point x="15" y="1040"/>
      <point x="42" y="1040" type="curve" smooth="yes"/>
      <point x="514" y="1040" type="line" smooth="yes"/>
      <point x="535" y="1040"/>
      <point x="542" y="1035"/>
      <point x="542" y="1012" type="curve" smooth="yes"/>
      <point x="542" y="962" type="line" smooth="yes"/>
      <point x="542" y="930"/>
      <point x="532" y="930"/>
      <point x="500" y="930" type="curve" smooth="yes"/>
      <point x="404" y="930" type="line" smooth="yes"/>
      <point x="375" y="930"/>
      <point x="373" y="921"/>
      <point x="380" y="900" type="curve" smooth="yes"/>
      <point x="591" y="288" type="line" smooth="yes"/>
      <point x="606" y="246"/>
      <point x="612" y="224"/>
      <point x="619" y="224" type="curve" smooth="yes"/>
      <point x="626" y="224"/>
      <point x="633" y="244"/>
    </contour>
  </outline>
</glyph>
<glyph name="w" format="2">
  <advance width="1720"/>
  <unicode hex="0077"/>
  <anchor x="877" y="1040" name="Anchor-0"/>
  <anchor x="877" y="0" name="Anchor-2"/>
  <outline>
    <contour>
      <point x="587" y="263" type="curve" smooth="yes"/>
      <point x="814" y="1017" type="line" smooth="yes"/>
      <point x="820" y="1037"/>
      <point x="829" y="1040"/>
      <point x="855" y="1040" type="curve" smooth="yes"/>
      <point x="908" y="1040" type="line" smooth="yes"/>
      <point x="936" y="1040"/>
      <point x="946" y="1038"/>
      <point x="952" y="1017" type="curve" smooth="yes"/>
      <point x="1185" y="269" type="line" smooth="yes"/>
      <point x="1190" y="252"/>
      <point x="1194" y="235"/>
      <point x="1201" y="235" type="curve" smooth="yes"/>
      <point x="1207" y="235"/>
      <point x="1210" y="252"/>
      <point x="1215" y="269" type="curve" smooth="yes"/>
      <point x="1396" y="901" type="line" smooth="yes"/>
      <point x="1402" y="923"/>
      <point x="1401" y="930"/>
      <point x="1373" y="930" type="curve" smooth="yes"/>
      <point x="1239" y="930" type="line" smooth="yes"/>
      <point x="1215" y="930"/>
      <point x="1207" y="932"/>
      <point x="1207" y="955" type="curve" smooth="yes"/>
      <point x="1207" y="1012" type="line" smooth="yes"/>
      <point x="1207" y="1032"/>
      <point x="1210" y="1040"/>
      <point x="1229" y="1040" type="curve" smooth="yes"/>
      <point x="1692" y="1040" type="line" smooth="yes"/>
      <point x="1714" y="1040"/>
      <point x="1715" y="1032"/>
      <point x="1715" y="1009" type="curve" smooth="yes"/>
      <point x="1715" y="955" type="line" smooth="yes"/>
      <point x="1715" y="935"/>
      <point x="1709" y="930"/>
      <point x="1687" y="930" type="curve" smooth="yes"/>
      <point x="1558" y="930" type="line" smooth="yes"/>
      <point x="1526" y="930"/>
      <point x="1525" y="929"/>
      <point x="1518" y="904" type="curve" smooth="yes"/>
      <point x="1259" y="8" type="line" smooth="yes"/>
      <point x="1253" y="-14"/>
      <point x="1247" y="-20"/>
      <point x="1217" y="-20" type="curve" smooth="yes"/>
      <point x="1145" y="-20" type="line" smooth="yes"/>
      <point x="1118" y="-20"/>
      <point x="1111" y="-15"/>
      <point x="1105" y="5" type="curve" smooth="yes"/>
      <point x="881" y="726" type="line" smooth="yes"/>
      <point x="875" y="745"/>
      <point x="872" y="757"/>
      <point x="865" y="757" type="curve" smooth="yes"/>
      <point x="858" y="757"/>
      <point x="855" y="747"/>
      <point x="849" y="726" type="curve" smooth="yes"/>
      <point x="628" y="9" type="line" smooth="yes"/>
      <point x="621" y="-13"/>
      <point x="616" y="-20"/>
      <point x="586" y="-20" type="curve" smooth="yes"/>
      <point x="523" y="-20" type="line" smooth="yes"/>
      <point x="493" y="-20"/>
      <point x="480" y="-20"/>
      <point x="473" y="3" type="curve" smooth="yes"/>
      <point x="178" y="910" type="line" smooth="yes"/>
      <point x="174" y="924"/>
      <point x="165" y="930"/>
      <point x="147" y="930" type="curve" smooth="yes"/>
      <point x="21" y="930" type="line" smooth="yes"/>
      <point x="6" y="930"/>
      <point x="5" y="938"/>
      <point x="5" y="954" type="curve" smooth="yes"/>
      <point x="5" y="1015" type="line" smooth="yes"/>
      <point x="5" y="1031"/>
      <point x="6" y="1040"/>
      <point x="22" y="1040" type="curve" smooth="yes"/>
      <point x="559" y="1040" type="line" smooth="yes"/>
      <point x="583" y="1040"/>
      <point x="587" y="1033"/>
      <point x="587" y="1008" type="curve" smooth="yes"/>
      <point x="587" y="968" type="line" smooth="yes"/>
      <point x="587" y="940"/>
      <point x="586" y="930"/>
      <point x="558" y="930" type="curve" smooth="yes"/>
      <point x="383" y="930" type="line" smooth="yes"/>
      <point x="362" y="930"/>
      <point x="358" y="926"/>
      <point x="362" y="911" type="curve" smooth="yes"/>
      <point x="557" y="263" type="line" smooth="yes"/>
      <point x="562" y="247"/>
      <point x="564" y="235"/>
      <point x="572" y="235" type="curve" smooth="yes"/>
      <point x="581" y="235"/>
      <point x="582" y="247"/>
    </contour>
  </outline>
</glyph>
<glyph name="x" format="2">
  <advance width="1163"/>
  <unicode hex="0078"/>
  <anchor x="645" y="1040" name="Anchor-0"/>
  <anchor x="577" y="0" name="Anchor-2"/>
  <outline>
    <contour>
      <point x="688" y="729" type="curve" smooth="yes"/>
      <point x="846" y="906" type="line" smooth="yes"/>
      <point x="862" y="924"/>
      <point x="854" y="930"/>
      <point x="836" y="930" type="curve" smooth="yes"/>
      <point x="775" y="930" type="line" smooth="yes"/>
      <point x="759" y="930"/>
      <point x="750" y="931"/>
      <point x="750" y="947" type="curve" smooth="yes"/>
      <point x="750" y="1014" type="line" smooth="yes"/>
      <point x="750" y="1033"/>
      <point x="754" y="1040"/>
      <point x="772" y="1040" type="curve" smooth="yes"/>
      <point x="1116" y="1040" type="line" smooth="yes"/>
      <point x="1134" y="1040"/>
      <point x="1138" y="1033"/>
      <point x="1138" y="1014" type="curve" smooth="yes"/>
      <point x="1138" y="952" type="line" smooth="yes"/>
      <point x="1138" y="934"/>
      <point x="1132" y="930"/>
      <point x="1113" y="930" type="curve" smooth="yes"/>
      <point x="1052" y="930" type="line" smooth="yes"/>
      <point x="1023" y="930"/>
      <point x="1015" y="925"/>
      <point x="1002" y="911" type="curve" smooth="yes"/>
      <point x="751" y="633" type="line" smooth="yes"/>
      <point x="721" y="600"/>
      <point x="697" y="583"/>
      <point x="697" y="565" type="curve" smooth="yes"/>
      <point x="697" y="547"/>
      <point x="718" y="529"/>
      <point x="744" y="493" type="curve" smooth="yes"/>
      <point x="1010" y="133" type="line" smooth="yes"/>
      <point x="1024" y="114"/>
      <point x="1026" y="110"/>
      <point x="1060" y="110" type="curve" smooth="yes"/>
      <point x="1110" y="110" type="line" smooth="yes"/>
      <point x="1130" y="110"/>
      <point x="1138" y="107"/>
      <point x="1138" y="88" type="curve" smooth="yes"/>
      <point x="1138" y="22" type="line" smooth="yes"/>
      <point x="1138" y="0"/>
      <point x="1128" y="0"/>
      <point x="1106" y="0" type="curve" smooth="yes"/>
      <point x="698" y="0" type="line" smooth="yes"/>
      <point x="678" y="0"/>
      <point x="676" y="8"/>
      <point x="676" y="29" type="curve" smooth="yes"/>
      <point x="676" y="83" type="line" smooth="yes"/>
      <point x="676" y="104"/>
      <point x="685" y="110"/>
      <point x="706" y="110" type="curve" smooth="yes"/>
      <point x="777" y="110" type="line" smooth="yes"/>
      <point x="815" y="110"/>
      <point x="795" y="130"/>
      <point x="781" y="149" type="curve" smooth="yes"/>
      <point x="619" y="365" type="line" smooth="yes"/>
      <point x="593" y="400"/>
      <point x="583" y="426"/>
      <point x="570" y="426" type="curve" smooth="yes"/>
      <point x="557" y="426"/>
      <point x="539" y="400"/>
      <point x="511" y="368" type="curve" smooth="yes"/>
      <point x="302" y="135" type="line" smooth="yes"/>
      <point x="286" y="117"/>
      <point x="288" y="110"/>
      <point x="330" y="110" type="curve" smooth="yes"/>
      <point x="404" y="110" type="line" smooth="yes"/>
      <point x="425" y="110"/>
      <point x="428" y="103"/>
      <point x="428" y="81" type="curve" smooth="yes"/>
      <point x="428" y="27" type="line" smooth="yes"/>
      <point x="428" y="8"/>
      <point x="426" y="0"/>
      <point x="408" y="0" type="curve" smooth="yes"/>
      <point x="62" y="0" type="line" smooth="yes"/>
      <point x="37" y="0"/>
      <point x="30" y="3"/>
      <point x="30" y="27" type="curve" smooth="yes"/>
      <point x="30" y="79" type="line" smooth="yes"/>
      <point x="30" y="97"/>
      <point x="34" y="110"/>
      <point x="54" y="110" type="curve" smooth="yes"/>
      <point x="104" y="110" type="line" smooth="yes"/>
      <point x="133" y="110"/>
      <point x="135" y="117"/>
      <point x="148" y="131" type="curve" smooth="yes"/>
      <point x="439" y="453" type="line" smooth="yes"/>
      <point x="470" y="488"/>
      <point x="490" y="508"/>
      <point x="490" y="527" type="curve" smooth="yes"/>
      <point x="490" y="548"/>
      <point x="469" y="568"/>
      <point x="438" y="610" type="curve" smooth="yes"/>
      <point x="225" y="897" type="line" smooth="yes"/>
      <point x="206" y="922"/>
      <point x="204" y="930"/>
      <point x="158" y="930" type="curve" smooth="yes"/>
      <point x="66" y="930" type="line" smooth="yes"/>
      <point x="36" y="930"/>
      <point x="30" y="935"/>
      <point x="30" y="966" type="curve" smooth="yes"/>
      <point x="30" y="1012" type="line" smooth="yes"/>
      <point x="30" y="1036"/>
      <point x="42" y="1040"/>
      <point x="64" y="1040" type="curve" smooth="yes"/>
      <point x="498" y="1040" type="line" smooth="yes"/>
      <point x="521" y="1040"/>
      <point x="522" y="1031"/>
      <point x="522" y="1008" type="curve" smooth="yes"/>
      <point x="522" y="958" type="line" smooth="yes"/>
      <point x="522" y="935"/>
      <point x="515" y="930"/>
      <point x="494" y="930" type="curve" smooth="yes"/>
      <point x="449" y="930" type="line" smooth="yes"/>
      <point x="417" y="930"/>
      <point x="431" y="912"/>
      <point x="442" y="897" type="curve" smooth="yes"/>
      <point x="571" y="727" type="line" smooth="yes"/>
      <point x="598" y="691"/>
      <point x="609" y="670"/>
      <point x="623" y="670" type="curve" smooth="yes"/>
      <point x="638" y="670"/>
      <point x="656" y="694"/>
    </contour>
  </outline>
</glyph>
<glyph name="y" format="2">
  <advance width="1236"/>
  <unicode hex="0079"/>
  <anchor x="674" y="1040" name="Anchor-0"/>
  <anchor x="346" y="-565" name="Anchor-2"/>
  <outline>
    <contour>
      <point x="16" y="-262" type="curve" smooth="yes"/>
      <point x="16" y="-170"/>
      <point x="76" y="-116"/>
      <point x="138" y="-116" type="curve" smooth="yes"/>
      <point x="198" y="-116"/>
      <point x="238" y="-152"/>
      <point x="238" y="-214" type="curve" smooth="yes"/>
      <point x="238" y="-290"/>
      <point x="154" y="-280"/>
      <point x="154" y="-332" type="curve" smooth="yes"/>
      <point x="154" y="-378"/>
      <point x="196" y="-420"/>
      <point x="262" y="-420" type="curve" smooth="yes"/>
      <point x="340" y="-420"/>
      <point x="452" y="-361"/>
      <point x="546" y="-120" type="curve" smooth="yes"/>
      <point x="569" y="-62" type="line" smooth="yes"/>
      <point x="585" y="-21"/>
      <point x="584" y="-10"/>
      <point x="566" y="30" type="curve" smooth="yes"/>
      <point x="173" y="898" type="line" smooth="yes"/>
      <point x="161" y="924"/>
      <point x="161" y="930"/>
      <point x="121" y="930" type="curve" smooth="yes"/>
      <point x="35" y="930" type="line" smooth="yes"/>
      <point x="5" y="930"/>
      <point x="0" y="936"/>
      <point x="0" y="964" type="curve" smooth="yes"/>
      <point x="0" y="1020" type="line" smooth="yes"/>
      <point x="0" y="1038"/>
      <point x="8" y="1040"/>
      <point x="27" y="1040" type="curve" smooth="yes"/>
      <point x="505" y="1040" type="line" smooth="yes"/>
      <point x="537" y="1040"/>
      <point x="542" y="1034"/>
      <point x="542" y="1000" type="curve" smooth="yes"/>
      <point x="542" y="975" type="line" smooth="yes"/>
      <point x="542" y="935"/>
      <point x="538" y="930"/>
      <point x="499" y="930" type="curve" smooth="yes"/>
      <point x="405" y="930" type="line" smooth="yes"/>
      <point x="363" y="930"/>
      <point x="357" y="928"/>
      <point x="370" y="900" type="curve" smooth="yes"/>
      <point x="642" y="294" type="line" smooth="yes"/>
      <point x="660" y="254"/>
      <point x="669" y="235"/>
      <point x="677" y="235" type="curve" smooth="yes"/>
      <point x="687" y="235"/>
      <point x="694" y="259"/>
      <point x="712" y="306" type="curve" smooth="yes"/>
      <point x="944" y="896" type="line" smooth="yes"/>
      <point x="955" y="925"/>
      <point x="954" y="930"/>
      <point x="911" y="930" type="curve" smooth="yes"/>
      <point x="839" y="930" type="line" smooth="yes"/>
      <point x="810" y="930"/>
      <point x="806" y="939"/>
      <point x="806" y="966" type="curve" smooth="yes"/>
      <point x="806" y="1000" type="line" smooth="yes"/>
      <point x="806" y="1035"/>
      <point x="814" y="1040"/>
      <point x="847" y="1040" type="curve" smooth="yes"/>
      <point x="1205" y="1040" type="line" smooth="yes"/>
      <point x="1228" y="1040"/>
      <point x="1236" y="1038"/>
      <point x="1236" y="1016" type="curve" smooth="yes"/>
      <point x="1236" y="970" type="line" smooth="yes"/>
      <point x="1236" y="940"/>
      <point x="1235" y="930"/>
      <point x="1205" y="930" type="curve" smooth="yes"/>
      <point x="1123" y="930" type="line" smooth="yes"/>
      <point x="1077" y="930"/>
      <point x="1080" y="920"/>
      <point x="1067" y="888" type="curve" smooth="yes"/>
      <point x="634" y="-204" type="line" smooth="yes"/>
      <point x="530" y="-465"/>
      <point x="378" y="-520"/>
      <point x="262" y="-520" type="curve" smooth="yes"/>
      <point x="108" y="-520"/>
      <point x="16" y="-396"/>
    </contour>
  </outline>
</glyph>
<glyph name="z" format="2">
  <advance width="1080"/>
  <unicode hex="007A"/>
  <anchor x="538" y="1040" name="Anchor-0"/>
  <anchor x="549" y="0" name="Anchor-2"/>
  <outline>
    <contour>
      <point x="482" y="940" type="line" smooth="yes"/>
      <point x="249" y="940"/>
      <point x="228" y="850"/>
      <point x="226" y="671" type="curve" smooth="yes"/>
      <point x="226" y="648"/>
      <point x="227" y="636"/>
      <point x="201" y="636" type="curve" smooth="yes"/>
      <point x="162" y="636" type="line" smooth="yes"/>
      <point x="133" y="636"/>
      <point x="126" y="639"/>
      <point x="126" y="667" type="curve" smooth="yes"/>
      <point x="126" y="990" type="line" smooth="yes"/>
      <point x="126" y="1036"/>
      <point x="133" y="1040"/>
      <point x="180" y="1040" type="curve" smooth="yes"/>
      <point x="954" y="1040" type="line" smooth="yes"/>
      <point x="979" y="1040"/>
      <point x="988" y="1036"/>
      <point x="988" y="1009" type="curve" smooth="yes"/>
      <point x="988" y="976" type="line" smooth="yes"/>
      <point x="988" y="935"/>
      <point x="976" y="926"/>
      <point x="959" y="905" type="curve" smooth="yes"/>
      <point x="331" y="142" type="line" smooth="yes"/>
      <point x="300" y="105"/>
      <point x="285" y="100"/>
      <point x="358" y="100" type="curve" smooth="yes"/>
      <point x="608" y="100" type="line" smooth="yes"/>
      <point x="894" y="100"/>
      <point x="909" y="176"/>
      <point x="910" y="408" type="curve" smooth="yes"/>
      <point x="910" y="428"/>
      <point x="919" y="428"/>
      <point x="939" y="428" type="curve" smooth="yes"/>
      <point x="976" y="428" type="line" smooth="yes"/>
      <point x="1002" y="428"/>
      <point x="1010" y="425"/>
      <point x="1010" y="400" type="curve" smooth="yes"/>
      <point x="1010" y="60" type="line" smooth="yes"/>
      <point x="1010" y="7"/>
      <point x="1006" y="0"/>
      <point x="954" y="0" type="curve" smooth="yes"/>
      <point x="116" y="0" type="line" smooth="yes"/>
      <point x="87" y="0"/>
      <point x="80" y="8"/>
      <point x="80" y="36" type="curve" smooth="yes"/>
      <point x="80" y="73" type="line" smooth="yes"/>
      <point x="80" y="114"/>
      <point x="100" y="124"/>
      <point x="118" y="146" type="curve" smooth="yes"/>
      <point x="731" y="893" type="line" smooth="yes"/>
      <point x="769" y="939"/>
      <point x="746" y="940"/>
      <point x="662" y="940" type="curve" smooth="yes"/>
    </contour>
  </outline>
</glyph>
<glyph name="braceleft" format="2">
  <advance width="544"/>
  <unicode hex="007B"/>
  <outline>
    <contour>
      <point x="442" y="-299" type="curve" smooth="yes"/>
      <point x="186" y="-289"/>
      <point x="110" y="-189"/>
      <point x="110" y="-20" type="curve" smooth="yes"/>
      <point x="110" y="254"/>
      <point x="230" y="344"/>
      <point x="230" y="470" type="curve" smooth="yes"/>
      <point x="230" y="537"/>
      <point x="190" y="555"/>
      <point x="142" y="570" type="curve" smooth="yes"/>
      <point x="115" y="579"/>
      <point x="110" y="580"/>
      <point x="110" y="617" type="curve" smooth="yes"/>
      <point x="110" y="651" type="line" smooth="yes"/>
      <point x="110" y="680"/>
      <point x="126" y="685"/>
      <point x="146" y="692" type="curve" smooth="yes"/>
      <point x="192" y="707"/>
      <point x="230" y="727"/>
      <point x="230" y="792" type="curve" smooth="yes"/>
      <point x="230" y="918"/>
      <point x="110" y="1008"/>
      <point x="110" y="1282" type="curve" smooth="yes"/>
      <point x="110" y="1453"/>
      <point x="187" y="1552"/>
      <point x="450" y="1560" type="curve" smooth="yes"/>
      <point x="481" y="1561"/>
      <point x="484" y="1555"/>
      <point x="484" y="1520" type="curve" smooth="yes"/>
      <point x="484" y="1498" type="line" smooth="yes"/>
      <point x="484" y="1466"/>
      <point x="484" y="1467"/>
      <point x="454" y="1465" type="curve" smooth="yes"/>
      <point x="350" y="1458"/>
      <point x="296" y="1409"/>
      <point x="296" y="1294" type="curve" smooth="yes"/>
      <point x="296" y="1142"/>
      <point x="364" y="1062"/>
      <point x="364" y="862" type="curve" smooth="yes"/>
      <point x="364" y="769"/>
      <point x="331" y="704"/>
      <point x="275" y="658" type="curve" smooth="yes"/>
      <point x="255" y="642"/>
      <point x="245" y="642"/>
      <point x="245" y="630" type="curve" smooth="yes"/>
      <point x="245" y="619"/>
      <point x="256" y="618"/>
      <point x="276" y="602" type="curve" smooth="yes"/>
      <point x="331" y="557"/>
      <point x="364" y="493"/>
      <point x="364" y="400" type="curve" smooth="yes"/>
      <point x="364" y="200"/>
      <point x="296" y="120"/>
      <point x="296" y="-32" type="curve" smooth="yes"/>
      <point x="296" y="-142"/>
      <point x="345" y="-193"/>
      <point x="440" y="-204" type="curve" smooth="yes"/>
      <point x="467" y="-207"/>
      <point x="484" y="-200"/>
      <point x="484" y="-233" type="curve" smooth="yes"/>
      <point x="484" y="-261" type="line" smooth="yes"/>
      <point x="484" y="-297"/>
      <point x="475" y="-300"/>
    </contour>
  </outline>
</glyph>
<glyph name="cent" format="2">
  <advance width="1096"/>
  <unicode hex="00A2"/>
  <outline>
    <contour>
      <point x="627" y="1230" type="curve" smooth="yes"/>
      <point x="697" y="1230" type="line" smooth="yes"/>
      <point x="718" y="1230"/>
      <point x="721" y="1225"/>
      <point x="718" y="1205" type="curve" smooth="yes"/>
      <point x="523" y="-146" type="line" smooth="yes"/>
      <point x="520" y="-164"/>
      <point x="512" y="-170"/>
      <point x="493" y="-170" type="curve" smooth="yes"/>
      <point x="439" y="-170" type="line" smooth="yes"/>
      <point x="417" y="-170"/>
      <point x="413" y="-164"/>
      <point x="415" y="-147" type="curve" smooth="yes"/>
      <point x="610" y="1216" type="line" smooth="yes"/>
      <point x="612" y="1229"/>
      <point x="612" y="1230"/>
    </contour>
    <component base="c"/>
  </outline>
</glyph>
<glyph name="sterling" format="2">
  <advance width="1270"/>
  <unicode hex="00A3"/>
  <outline>
    <contour>
      <point x="111" y="-7" type="curve" smooth="yes"/>
      <point x="99" y="251"/>
      <point x="368" y="399"/>
      <point x="368" y="522" type="curve" smooth="yes"/>
      <point x="368" y="598"/>
      <point x="349" y="660"/>
      <point x="303" y="660" type="curve" smooth="yes"/>
      <point x="27" y="660" type="line" smooth="yes"/>
      <point x="1" y="660"/>
      <point x="0" y="669"/>
      <point x="0" y="696" type="curve" smooth="yes"/>
      <point x="0" y="740" type="line" smooth="yes"/>
      <point x="0" y="765"/>
      <point x="8" y="770"/>
      <point x="32" y="770" type="curve" smooth="yes"/>
      <point x="269" y="770" type="line" smooth="yes"/>
      <point x="319" y="770"/>
      <point x="300" y="784"/>
      <point x="286" y="813" type="curve" smooth="yes"/>
      <point x="246" y="899"/>
      <point x="206" y="986"/>
      <point x="206" y="1100" type="curve" smooth="yes"/>
      <point x="206" y="1380"/>
      <point x="416" y="1520"/>
      <point x="738" y="1520" type="curve" smooth="yes"/>
      <point x="1042" y="1520"/>
      <point x="1190" y="1376"/>
      <point x="1190" y="1212" type="curve" smooth="yes"/>
      <point x="1190" y="1116"/>
      <point x="1120" y="1080"/>
      <point x="1062" y="1080" type="curve" smooth="yes"/>
      <point x="1008" y="1080"/>
      <point x="948" y="1122"/>
      <point x="948" y="1196" type="curve" smooth="yes"/>
      <point x="948" y="1268"/>
      <point x="1012" y="1278"/>
      <point x="1012" y="1324" type="curve" smooth="yes"/>
      <point x="1012" y="1378"/>
      <point x="886" y="1436"/>
      <point x="738" y="1436" type="curve" smooth="yes"/>
      <point x="500" y="1436"/>
      <point x="428" y="1268"/>
      <point x="428" y="1120" type="curve" smooth="yes"/>
      <point x="428" y="998"/>
      <point x="470" y="901"/>
      <point x="503" y="809" type="curve" smooth="yes"/>
      <point x="516" y="772"/>
      <point x="517" y="770"/>
      <point x="567" y="770" type="curve" smooth="yes"/>
      <point x="873" y="770" type="line" smooth="yes"/>
      <point x="900" y="770"/>
      <point x="900" y="770"/>
      <point x="900" y="743" type="curve" smooth="yes"/>
      <point x="900" y="682" type="line" smooth="yes"/>
      <point x="900" y="666"/>
      <point x="894" y="660"/>
      <point x="876" y="660" type="curve" smooth="yes"/>
      <point x="571" y="660" type="line" smooth="yes"/>
      <point x="544" y="660"/>
      <point x="540" y="654"/>
      <point x="540" y="629" type="curve" smooth="yes"/>
      <point x="539" y="402"/>
      <point x="407" y="341"/>
      <point x="307" y="223" type="curve" smooth="yes"/>
      <point x="283" y="195"/>
      <point x="236" y="155"/>
      <point x="255" y="143" type="curve" smooth="yes"/>
      <point x="263" y="138"/>
      <point x="278" y="171"/>
      <point x="326" y="184" type="curve" smooth="yes"/>
      <point x="351" y="191"/>
      <point x="380" y="194"/>
      <point x="414" y="194" type="curve" smooth="yes"/>
      <point x="614" y="194"/>
      <point x="694" y="126"/>
      <point x="846" y="126" type="curve" smooth="yes"/>
      <point x="965" y="126"/>
      <point x="1068" y="183"/>
      <point x="1079" y="294" type="curve" smooth="yes"/>
      <point x="1081" y="314"/>
      <point x="1079" y="314"/>
      <point x="1101" y="314" type="curve" smooth="yes"/>
      <point x="1152" y="314" type="line" smooth="yes"/>
      <point x="1176" y="314"/>
      <point x="1174" y="300"/>
      <point x="1173" y="280" type="curve" smooth="yes"/>
      <point x="1161" y="17"/>
      <point x="1005" y="-60"/>
      <point x="834" y="-60" type="curve" smooth="yes"/>
      <point x="560" y="-60"/>
      <point x="470" y="60"/>
      <point x="344" y="60" type="curve" smooth="yes"/>
      <point x="274" y="60"/>
      <point x="242" y="31"/>
      <point x="222" y="-15" type="curve" smooth="yes"/>
      <point x="216" y="-28"/>
      <point x="218" y="-40"/>
      <point x="198" y="-40" type="curve" smooth="yes"/>
      <point x="132" y="-40" type="line" smooth="yes"/>
      <point x="108" y="-40"/>
      <point x="112" y="-27"/>
    </contour>
  </outline>
</glyph>
<glyph name="brokenbar" format="2">
  <advance width="479"/>
  <unicode hex="00A6"/>
  <outline>
    <contour>
      <point x="200" y="818" type="line"/>
      <point x="200" y="1560" type="line"/>
      <point x="313" y="1560" type="line"/>
      <point x="313" y="818" type="line"/>
    </contour>
    <contour>
      <point x="200" y="-500" type="line"/>
      <point x="200" y="332" type="line"/>
      <point x="313" y="332" type="line"/>
      <point x="313" y="-500" type="line"/>
    </contour>
  </outline>
</glyph>
<glyph name="section" format="2">
  <advance width="1068"/>
  <unicode hex="00A7"/>
  <outline>
    <contour>
      <point x="714" y="1316" type="curve" smooth="yes"/>
      <point x="714" y="1382"/>
      <point x="590" y="1418"/>
      <point x="486" y="1418" type="curve" smooth="yes"/>
      <point x="360" y="1418"/>
      <point x="250" y="1362"/>
      <point x="250" y="1268" type="curve" smooth="yes"/>
      <point x="250" y="1036"/>
      <point x="936" y="1076"/>
      <point x="936" y="750" type="curve" smooth="yes"/>
      <point x="936" y="653"/>
      <point x="894" y="564"/>
      <point x="800" y="494" type="curve"/>
      <point x="871" y="447"/>
      <point x="920" y="382"/>
      <point x="920" y="284" type="curve" smooth="yes"/>
      <point x="920" y="76"/>
      <point x="700" y="-20"/>
      <point x="490" y="-20" type="curve" smooth="yes"/>
      <point x="274" y="-20"/>
      <point x="42" y="64"/>
      <point x="42" y="296" type="curve" smooth="yes"/>
      <point x="42" y="392"/>
      <point x="112" y="448"/>
      <point x="170" y="448" type="curve" smooth="yes"/>
      <point x="224" y="448"/>
      <point x="284" y="406"/>
      <point x="284" y="332" type="curve" smooth="yes"/>
      <point x="284" y="260"/>
      <point x="220" y="250"/>
      <point x="220" y="204" type="curve" smooth="yes"/>
      <point x="220" y="138"/>
      <point x="384" y="82"/>
      <point x="488" y="82" type="curve" smooth="yes"/>
      <point x="614" y="82"/>
      <point x="764" y="138"/>
      <point x="764" y="232" type="curve" smooth="yes"/>
      <point x="764" y="464"/>
      <point x="58" y="424"/>
      <point x="58" y="750" type="curve" smooth="yes"/>
      <point x="58" y="885"/>
      <point x="117" y="940"/>
      <point x="213" y="1006" type="curve"/>
      <point x="142" y="1053"/>
      <point x="94" y="1118"/>
      <point x="94" y="1216" type="curve" smooth="yes"/>
      <point x="94" y="1424"/>
      <point x="274" y="1520"/>
      <point x="464" y="1520" type="curve" smooth="yes"/>
      <point x="680" y="1520"/>
      <point x="892" y="1436"/>
      <point x="892" y="1224" type="curve" smooth="yes"/>
      <point x="892" y="1128"/>
      <point x="822" y="1072"/>
      <point x="764" y="1072" type="curve" smooth="yes"/>
      <point x="710" y="1072"/>
      <point x="650" y="1114"/>
      <point x="650" y="1188" type="curve" smooth="yes"/>
      <point x="650" y="1260"/>
      <point x="714" y="1270"/>
    </contour>
    <contour>
      <point x="294" y="963" type="curve"/>
      <point x="279" y="932"/>
      <point x="250" y="879"/>
      <point x="250" y="814" type="curve" smooth="yes"/>
      <point x="250" y="649"/>
      <point x="515" y="626"/>
      <point x="712" y="541" type="curve"/>
      <point x="747" y="583"/>
      <point x="764" y="635"/>
      <point x="764" y="686" type="curve" smooth="yes"/>
      <point x="764" y="853"/>
      <point x="491" y="875"/>
    </contour>
  </outline>
</glyph>
<glyph name="guillemotleft" format="2">
  <advance width="1390"/>
  <unicode hex="00AB"/>
  <outline>
    <contour>
      <point x="862" y="775" type="line"/>
      <point x="1330" y="380" type="line"/>
      <point x="1270" y="290" type="line"/>
      <point x="610" y="750" type="line"/>
      <point x="610" y="800" type="line"/>
      <point x="1270" y="1260" type="line"/>
      <point x="1330" y="1170" type="line"/>
    </contour>
    <contour>
      <point x="302" y="775" type="line"/>
      <point x="770" y="380" type="line"/>
      <point x="710" y="290" type="line"/>
      <point x="50" y="750" type="line"/>
      <point x="50" y="800" type="line"/>
      <point x="710" y="1260" type="line"/>
      <point x="770" y="1170" type="line"/>
    </contour>
  </outline>
</glyph>
<glyph name="logicalnot" format="2">
  <advance width="971"/>
  <unicode hex="00AC"/>
  <outline>
    <contour>
      <point x="739" y="406" type="line"/>
      <point x="739" y="716" type="line"/>
      <point x="120" y="716" type="line"/>
      <point x="120" y="830" type="line"/>
      <point x="852" y="830" type="line"/>
      <point x="852" y="406" type="line"/>
    </contour>
  </outline>
</glyph>
<glyph name="macron" format="2">
  <advance width="1000"/>
  <unicode hex="00AF"/>
  <outline>
    <contour>
      <point x="260" y="1712" type="curve" smooth="yes"/>
      <point x="260" y="1745" type="line" smooth="yes"/>
      <point x="260" y="1764"/>
      <point x="262" y="1772"/>
      <point x="280" y="1772" type="curve" smooth="yes"/>
      <point x="706" y="1772" type="line" smooth="yes"/>
      <point x="731" y="1772"/>
      <point x="740" y="1768"/>
      <point x="740" y="1741" type="curve" smooth="yes"/>
      <point x="740" y="1710" type="line" smooth="yes"/>
      <point x="740" y="1689"/>
      <point x="739" y="1680"/>
      <point x="718" y="1680" type="curve" smooth="yes"/>
      <point x="295" y="1680" type="line" smooth="yes"/>
      <point x="269" y="1680"/>
      <point x="260" y="1684"/>
    </contour>
  </outline>
</glyph>
<glyph name="degree" format="2">
  <advance width="639"/>
  <unicode hex="00B0"/>
  <outline>
    <contour>
      <point x="320" y="1120" type="curve" smooth="yes"/>
      <point x="184" y="1120"/>
      <point x="80" y="1223"/>
      <point x="80" y="1359" type="curve" smooth="yes"/>
      <point x="80" y="1495"/>
      <point x="184" y="1600"/>
      <point x="320" y="1600" type="curve" smooth="yes"/>
      <point x="457" y="1600"/>
      <point x="561" y="1496"/>
      <point x="561" y="1359" type="curve" smooth="yes"/>
      <point x="561" y="1223"/>
      <point x="456" y="1120"/>
    </contour>
    <contour>
      <point x="320" y="1230" type="curve" smooth="yes"/>
      <point x="394" y="1230"/>
      <point x="450" y="1286"/>
      <point x="450" y="1359" type="curve" smooth="yes"/>
      <point x="450" y="1433"/>
      <point x="394" y="1490"/>
      <point x="320" y="1490" type="curve" smooth="yes"/>
      <point x="247" y="1490"/>
      <point x="189" y="1433"/>
      <point x="189" y="1359" type="curve" smooth="yes"/>
      <point x="189" y="1286"/>
      <point x="247" y="1230"/>
    </contour>
  </outline>
</glyph>
<glyph name="plusminus" format="2">
  <advance width="1059"/>
  <unicode hex="00B1"/>
  <outline>
    <contour>
      <point x="473" y="361" type="line"/>
      <point x="473" y="716" type="line"/>
      <point x="120" y="716" type="line"/>
      <point x="120" y="828" type="line"/>
      <point x="473" y="828" type="line"/>
      <point x="473" y="1180" type="line"/>
      <point x="586" y="1180" type="line"/>
      <point x="586" y="828" type="line"/>
      <point x="939" y="828" type="line"/>
      <point x="939" y="716" type="line"/>
      <point x="586" y="716" type="line"/>
      <point x="586" y="361" type="line"/>
    </contour>
    <contour>
      <point x="121" y="-15" type="line"/>
      <point x="121" y="97" type="line"/>
      <point x="940" y="97" type="line"/>
      <point x="940" y="-15" type="line"/>
    </contour>
  </outline>
</glyph>
<glyph name="acute" format="2">
  <advance width="790"/>
  <unicode hex="00B4"/>
  <outline>
    <contour>
      <point x="605" y="1440" type="curve" smooth="yes"/>
      <point x="144" y="1421" type="line" smooth="yes"/>
      <point x="119" y="1420"/>
      <point x="112" y="1421"/>
      <point x="110" y="1440" type="curve" smooth="yes"/>
      <point x="107" y="1460"/>
      <point x="123" y="1464"/>
      <point x="148" y="1470" type="curve" smooth="yes"/>
      <point x="585" y="1576" type="line" smooth="yes"/>
      <point x="641" y="1589"/>
      <point x="675" y="1548"/>
      <point x="675" y="1510" type="curve" smooth="yes"/>
      <point x="675" y="1472"/>
      <point x="643" y="1441"/>
    </contour>
  </outline>
</glyph>
<glyph name="mu" format="2">
  <advance width="1233"/>
  <unicode hex="00B5"/>
  <outline>
    <contour>
      <point x="332" y="847" type="line"/>
      <point x="332" y="-242" type="line" smooth="yes"/>
      <point x="332" y="-413"/>
      <point x="426" y="-423"/>
      <point x="434" y="-415" type="curve" smooth="yes"/>
      <point x="441" y="-407"/>
      <point x="421" y="-406"/>
      <point x="421" y="-352" type="curve" smooth="yes"/>
      <point x="421" y="-297"/>
      <point x="479" y="-246"/>
      <point x="544" y="-246" type="curve" smooth="yes"/>
      <point x="614" y="-246"/>
      <point x="667" y="-308"/>
      <point x="667" y="-380" type="curve" smooth="yes"/>
      <point x="667" y="-471"/>
      <point x="600" y="-520"/>
      <point x="500" y="-520" type="curve" smooth="yes"/>
      <point x="338" y="-520"/>
      <point x="220" y="-409"/>
      <point x="220" y="-242" type="curve" smooth="yes"/>
      <point x="220" y="847" type="line"/>
    </contour>
    <component base="u"/>
  </outline>
</glyph>
<glyph name="paragraph" format="2">
  <advance width="1332"/>
  <unicode hex="00B6"/>
  <outline>
    <contour>
      <point x="535" y="-270" type="curve" smooth="yes"/>
      <point x="535" y="-246" type="line" smooth="yes"/>
      <point x="535" y="-197"/>
      <point x="536" y="-187"/>
      <point x="585" y="-187" type="curve" smooth="yes"/>
      <point x="673" y="-187" type="line" smooth="yes"/>
      <point x="705" y="-187"/>
      <point x="715" y="-186"/>
      <point x="715" y="-154" type="curve" smooth="yes"/>
      <point x="715" y="740" type="line" smooth="yes"/>
      <point x="715" y="775"/>
      <point x="706" y="779"/>
      <point x="673" y="779" type="curve" smooth="yes"/>
      <point x="596" y="779" type="line" smooth="yes"/>
      <point x="339" y="779"/>
      <point x="126" y="892"/>
      <point x="126" y="1139" type="curve" smooth="yes"/>
      <point x="126" y="1386"/>
      <point x="338" y="1500"/>
      <point x="596" y="1500" type="curve" smooth="yes"/>
      <point x="1209" y="1500" type="line" smooth="yes"/>
      <point x="1237" y="1500"/>
      <point x="1246" y="1496"/>
      <point x="1246" y="1466" type="curve" smooth="yes"/>
      <point x="1246" y="1428" type="line" smooth="yes"/>
      <point x="1246" y="1390"/>
      <point x="1238" y="1387"/>
      <point x="1199" y="1387" type="curve" smooth="yes"/>
      <point x="1109" y="1387" type="line" smooth="yes"/>
      <point x="1067" y="1387"/>
      <point x="1066" y="1378"/>
      <point x="1066" y="1336" type="curve" smooth="yes"/>
      <point x="1066" y="-132" type="line" smooth="yes"/>
      <point x="1066" y="-166"/>
      <point x="1069" y="-187"/>
      <point x="1107" y="-187" type="curve" smooth="yes"/>
      <point x="1211" y="-187" type="line" smooth="yes"/>
      <point x="1237" y="-187"/>
      <point x="1246" y="-188"/>
      <point x="1246" y="-214" type="curve" smooth="yes"/>
      <point x="1246" y="-259" type="line" smooth="yes"/>
      <point x="1246" y="-293"/>
      <point x="1240" y="-300"/>
      <point x="1207" y="-300" type="curve" smooth="yes"/>
      <point x="581" y="-300" type="line" smooth="yes"/>
      <point x="555" y="-300"/>
      <point x="535" y="-299"/>
    </contour>
    <contour>
      <point x="953" y="-144" type="curve" smooth="yes"/>
      <point x="953" y="1358" type="line" smooth="yes"/>
      <point x="953" y="1386"/>
      <point x="944" y="1387"/>
      <point x="915" y="1387" type="curve" smooth="yes"/>
      <point x="871" y="1387" type="line" smooth="yes"/>
      <point x="833" y="1387"/>
      <point x="828" y="1381"/>
      <point x="828" y="1342" type="curve" smooth="yes"/>
      <point x="828" y="-136" type="line" smooth="yes"/>
      <point x="828" y="-169"/>
      <point x="828" y="-187"/>
      <point x="865" y="-187" type="curve" smooth="yes"/>
      <point x="901" y="-187" type="line" smooth="yes"/>
      <point x="943" y="-187"/>
      <point x="953" y="-186"/>
    </contour>
  </outline>
</glyph>
<glyph name="onequarter" format="2">
  <advance width="2000"/>
  <unicode hex="00BC"/>
  <outline>
    <contour>
      <point x="1402" y="1440" type="line"/>
      <point x="1530" y="1440" type="line"/>
      <point x="608" y="-60" type="line"/>
      <point x="470" y="-60" type="line"/>
    </contour>
    <component base="four" xScale="0.6" yScale="0.6" xOffset="1070" yOffset="4"/>
    <component base="one" xScale="0.6" yScale="0.6" xOffset="214" yOffset="632"/>
  </outline>
</glyph>
<glyph name="onehalf" format="2">
  <advance width="2000"/>
  <unicode hex="00BD"/>
  <outline>
    <contour>
      <point x="1402" y="1450" type="line"/>
      <point x="1530" y="1450" type="line"/>
      <point x="608" y="-50" type="line"/>
      <point x="470" y="-50" type="line"/>
    </contour>
    <component base="two" xScale="0.6" yScale="0.6" xOffset="1152" yOffset="-16"/>
    <component base="one" xScale="0.6" yScale="0.6" xOffset="214" yOffset="622"/>
  </outline>
</glyph>
<glyph name="ae" format="2">
  <advance width="1746"/>
  <unicode hex="00E6"/>
  <outline>
    <contour>
      <point x="974" y="608" type="curve" smooth="yes"/>
      <point x="1426" y="608" type="line" smooth="yes"/>
      <point x="1452" y="608"/>
      <point x="1455" y="610"/>
      <point x="1455" y="624" type="curve" smooth="yes"/>
      <point x="1455" y="756"/>
      <point x="1382" y="972"/>
      <point x="1220" y="972" type="curve" smooth="yes"/>
      <point x="1035" y="972"/>
      <point x="946" y="790"/>
      <point x="946" y="633" type="curve" smooth="yes"/>
      <point x="946" y="613"/>
      <point x="950" y="608"/>
    </contour>
    <contour>
      <point x="742" y="447" type="line" smooth="yes"/>
      <point x="742" y="494"/>
      <point x="741" y="522"/>
      <point x="712" y="522" type="curve" smooth="yes"/>
      <point x="618" y="522" type="line" smooth="yes"/>
      <point x="386" y="522"/>
      <point x="304" y="430"/>
      <point x="304" y="276" type="curve" smooth="yes"/>
      <point x="304" y="142"/>
      <point x="400" y="92"/>
      <point x="500" y="92" type="curve" smooth="yes"/>
      <point x="636" y="92"/>
      <point x="742" y="200"/>
      <point x="742" y="382" type="curve" smooth="yes"/>
    </contour>
    <contour>
      <point x="100" y="246" type="curve" smooth="yes"/>
      <point x="100" y="434"/>
      <point x="274" y="598"/>
      <point x="618" y="598" type="curve" smooth="yes"/>
      <point x="716" y="598" type="line" smooth="yes"/>
      <point x="739" y="598"/>
      <point x="742" y="600"/>
      <point x="742" y="624" type="curve" smooth="yes"/>
      <point x="742" y="734" type="line" smooth="yes"/>
      <point x="742" y="868"/>
      <point x="706" y="968"/>
      <point x="546" y="968" type="curve" smooth="yes"/>
      <point x="438" y="968"/>
      <point x="332" y="930"/>
      <point x="332" y="890" type="curve" smooth="yes"/>
      <point x="332" y="854"/>
      <point x="388" y="864"/>
      <point x="388" y="786" type="curve" smooth="yes"/>
      <point x="388" y="718"/>
      <point x="346" y="670"/>
      <point x="278" y="670" type="curve" smooth="yes"/>
      <point x="216" y="670"/>
      <point x="160" y="698"/>
      <point x="160" y="786" type="curve" smooth="yes"/>
      <point x="160" y="960"/>
      <point x="384" y="1060"/>
      <point x="586" y="1060" type="curve" smooth="yes"/>
      <point x="728" y="1060"/>
      <point x="812" y="1020"/>
      <point x="861" y="960" type="curve" smooth="yes"/>
      <point x="882" y="933"/>
      <point x="877" y="924"/>
      <point x="904" y="948" type="curve" smooth="yes"/>
      <point x="981" y="1019"/>
      <point x="1086" y="1060"/>
      <point x="1220" y="1060" type="curve" smooth="yes"/>
      <point x="1546" y="1060"/>
      <point x="1654" y="788"/>
      <point x="1654" y="551" type="curve" smooth="yes"/>
      <point x="1654" y="524"/>
      <point x="1646" y="522"/>
      <point x="1618" y="522" type="curve" smooth="yes"/>
      <point x="975" y="522" type="line" smooth="yes"/>
      <point x="953" y="522"/>
      <point x="942" y="516"/>
      <point x="942" y="493" type="curve" smooth="yes"/>
      <point x="942" y="272"/>
      <point x="1023" y="78"/>
      <point x="1230" y="78" type="curve" smooth="yes"/>
      <point x="1388" y="78"/>
      <point x="1493" y="175"/>
      <point x="1546" y="322" type="curve" smooth="yes"/>
      <point x="1551" y="336"/>
      <point x="1553" y="346"/>
      <point x="1573" y="346" type="curve" smooth="yes"/>
      <point x="1631" y="346" type="line" smooth="yes"/>
      <point x="1651" y="346"/>
      <point x="1655" y="340"/>
      <point x="1651" y="325" type="curve" smooth="yes"/>
      <point x="1596" y="125"/>
      <point x="1463" y="-20"/>
      <point x="1217" y="-20" type="curve" smooth="yes"/>
      <point x="1053" y="-20"/>
      <point x="918" y="94"/>
      <point x="878" y="134" type="curve" smooth="yes"/>
      <point x="861" y="151"/>
      <point x="841" y="156"/>
      <point x="820" y="133" type="curve" smooth="yes"/>
      <point x="778" y="88"/>
      <point x="621" y="-20"/>
      <point x="410" y="-20" type="curve" smooth="yes"/>
      <point x="232" y="-20"/>
      <point x="100" y="78"/>
    </contour>
  </outline>
</glyph>
<glyph name="eth" format="2">
  <advance width="1240"/>
  <unicode hex="00F0"/>
  <outline>
    <contour>
      <point x="521" y="1552" type="curve" smooth="yes"/>
      <point x="764" y="1448"/>
      <point x="1140" y="1187"/>
      <point x="1140" y="700" type="curve" smooth="yes"/>
      <point x="1140" y="190"/>
      <point x="934" y="-20"/>
      <point x="612" y="-20" type="curve" smooth="yes"/>
      <point x="290" y="-20"/>
      <point x="100" y="190"/>
      <point x="100" y="510" type="curve" smooth="yes"/>
      <point x="100" y="840"/>
      <point x="316" y="1060"/>
      <point x="588" y="1060" type="curve" smooth="yes"/>
      <point x="770" y="1060"/>
      <point x="850" y="973"/>
      <point x="907" y="909" type="curve" smooth="yes"/>
      <point x="924" y="890"/>
      <point x="928" y="876"/>
      <point x="936" y="880" type="curve" smooth="yes"/>
      <point x="943" y="884"/>
      <point x="939" y="897"/>
      <point x="937" y="930" type="curve" smooth="yes"/>
      <point x="922" y="1258"/>
      <point x="658" y="1366"/>
      <point x="485" y="1454" type="curve" smooth="yes"/>
      <point x="469" y="1462"/>
      <point x="460" y="1462"/>
      <point x="468" y="1480" type="curve" smooth="yes"/>
      <point x="493" y="1541" type="line" smooth="yes"/>
      <point x="500" y="1557"/>
      <point x="506" y="1558"/>
    </contour>
    <contour>
      <point x="300" y="510" type="curve" smooth="yes"/>
      <point x="300" y="292"/>
      <point x="374" y="70"/>
      <point x="592" y="70" type="curve" smooth="yes"/>
      <point x="790" y="70"/>
      <point x="940" y="361"/>
      <point x="940" y="650" type="curve" smooth="yes"/>
      <point x="940" y="810"/>
      <point x="798" y="962"/>
      <point x="632" y="962" type="curve" smooth="yes"/>
      <point x="424" y="962"/>
      <point x="300" y="738"/>
    </contour>
    <component base="hyphen" xScale="0.749531" xyScale="0.661969" yxScale="-0.661969" yScale="0.749531" xOffset="968" yOffset="517"/>
  </outline>
</glyph>
<glyph name="divide" format="2">
  <advance width="1119"/>
  <unicode hex="00F7"/>
  <outline>
    <contour>
      <point x="135" y="836" type="curve" smooth="yes"/>
      <point x="994" y="836" type="line" smooth="yes"/>
      <point x="1014" y="836"/>
      <point x="1020" y="830"/>
      <point x="1020" y="808" type="curve" smooth="yes"/>
      <point x="1020" y="742" type="line" smooth="yes"/>
      <point x="1020" y="727"/>
      <point x="1012" y="724"/>
      <point x="996" y="724" type="curve" smooth="yes"/>
      <point x="132" y="724" type="line" smooth="yes"/>
      <point x="106" y="724"/>
      <point x="100" y="729"/>
      <point x="100" y="754" type="curve" smooth="yes"/>
      <point x="100" y="796" type="line" smooth="yes"/>
      <point x="100" y="829"/>
      <point x="103" y="836"/>
    </contour>
    <contour>
      <point x="439" y="430" type="curve" smooth="yes"/>
      <point x="439" y="496"/>
      <point x="495" y="550"/>
      <point x="561" y="550" type="curve" smooth="yes"/>
      <point x="627" y="550"/>
      <point x="680" y="496"/>
      <point x="680" y="430" type="curve" smooth="yes"/>
      <point x="680" y="364"/>
      <point x="627" y="310"/>
      <point x="561" y="310" type="curve" smooth="yes"/>
      <point x="495" y="310"/>
      <point x="439" y="364"/>
    </contour>
    <contour>
      <point x="439" y="1140" type="curve" smooth="yes"/>
      <point x="439" y="1206"/>
      <point x="495" y="1260"/>
      <point x="561" y="1260" type="curve" smooth="yes"/>
      <point x="627" y="1260"/>
      <point x="680" y="1206"/>
      <point x="680" y="1140" type="curve" smooth="yes"/>
      <point x="680" y="1074"/>
      <point x="627" y="1020"/>
      <point x="561" y="1020" type="curve" smooth="yes"/>
      <point x="495" y="1020"/>
      <point x="439" y="1074"/>
    </contour>
  </outline>
</glyph>
<glyph name="thorn" format="2">
  <advance width="1276"/>
  <unicode hex="00FE"/>
  <anchor x="877" y="0" name="Anchor-2"/>
  <anchor x="798" y="1040" name="Anchor-0"/>
  <outline>
    <contour>
      <point x="410" y="520" type="curve" smooth="yes"/>
      <point x="410" y="292"/>
      <point x="524" y="84"/>
      <point x="706" y="84" type="curve" smooth="yes"/>
      <point x="874" y="84"/>
      <point x="986" y="292"/>
      <point x="986" y="520" type="curve" smooth="yes"/>
      <point x="986" y="748"/>
      <point x="874" y="956"/>
      <point x="706" y="956" type="curve" smooth="yes"/>
      <point x="524" y="956"/>
      <point x="410" y="748"/>
    </contour>
    <contour>
      <point x="50" y="1490" type="curve" smooth="yes"/>
      <point x="50" y="1528" type="line" smooth="yes"/>
      <point x="50" y="1557"/>
      <point x="61" y="1560"/>
      <point x="87" y="1560" type="curve" smooth="yes"/>
      <point x="373" y="1560" type="line" smooth="yes"/>
      <point x="404" y="1560"/>
      <point x="410" y="1556"/>
      <point x="410" y="1526" type="curve" smooth="yes"/>
      <point x="410" y="892" type="line" smooth="yes"/>
      <point x="410" y="842"/>
      <point x="416" y="844"/>
      <point x="428" y="866" type="curve" smooth="yes"/>
      <point x="493" y="984"/>
      <point x="607" y="1060"/>
      <point x="742" y="1060" type="curve" smooth="yes"/>
      <point x="980" y="1060"/>
      <point x="1186" y="860"/>
      <point x="1186" y="520" type="curve" smooth="yes"/>
      <point x="1186" y="180"/>
      <point x="980" y="-18"/>
      <point x="742" y="-18" type="curve" smooth="yes"/>
      <point x="618" y="-18"/>
      <point x="517" y="39"/>
      <point x="450" y="138" type="curve" smooth="yes"/>
      <point x="420" y="182"/>
      <point x="410" y="184"/>
      <point x="410" y="78" type="curve" smooth="yes"/>
      <point x="410" y="-344" type="line" smooth="yes"/>
      <point x="410" y="-385"/>
      <point x="417" y="-390"/>
      <point x="457" y="-390" type="curve" smooth="yes"/>
      <point x="555" y="-390" type="line" smooth="yes"/>
      <point x="585" y="-390"/>
      <point x="590" y="-396"/>
      <point x="590" y="-428" type="curve" smooth="yes"/>
      <point x="590" y="-469" type="line" smooth="yes"/>
      <point x="590" y="-498"/>
      <point x="587" y="-500"/>
      <point x="559" y="-500" type="curve" smooth="yes"/>
      <point x="81" y="-500" type="line" smooth="yes"/>
      <point x="54" y="-500"/>
      <point x="50" y="-489"/>
      <point x="50" y="-464" type="curve" smooth="yes"/>
      <point x="50" y="-424" type="line" smooth="yes"/>
      <point x="50" y="-398"/>
      <point x="52" y="-390"/>
      <point x="77" y="-390" type="curve" smooth="yes"/>
      <point x="191" y="-390" type="line" smooth="yes"/>
      <point x="228" y="-390"/>
      <point x="230" y="-382"/>
      <point x="230" y="-344" type="curve" smooth="yes"/>
      <point x="230" y="1412" type="line" smooth="yes"/>
      <point x="230" y="1447"/>
      <point x="218" y="1450"/>
      <point x="185" y="1450" type="curve" smooth="yes"/>
      <point x="85" y="1450" type="line" smooth="yes"/>
      <point x="53" y="1450"/>
      <point x="50" y="1460"/>
    </contour>
  </outline>
</glyph>
<glyph name="Lslash" format="2">
  <advance width="1455"/>
  <unicode hex="0141"/>
  <outline>
    <contour>
      <point x="144" y="736.247" type="curve" smooth="yes"/>
      <point x="778" y="1139.03" type="line" smooth="yes"/>
      <point x="797.842" y="1151.64"/>
      <point x="811" y="1173.06"/>
      <point x="811" y="1132" type="curve" smooth="yes"/>
      <point x="811" y="1083" type="line" smooth="yes"/>
      <point x="811" y="1047.99"/>
      <point x="808.655" y="1044.51"/>
      <point x="788" y="1031.35" type="curve" smooth="yes"/>
      <point x="150" y="625.103" type="line" smooth="yes"/>
      <point x="130.471" y="612.667"/>
      <point x="120" y="594.489"/>
      <point x="120" y="634" type="curve" smooth="yes"/>
      <point x="120" y="695" type="line" smooth="yes"/>
      <point x="120" y="725.063"/>
      <point x="126.52" y="725.142"/>
    </contour>
    <component base="L"/>
  </outline>
</glyph>
<glyph name="lslash" format="2">
  <advance width="619"/>
  <unicode hex="0142"/>
  <outline>
    <contour>
      <point x="60" y="810.105" type="curve" smooth="yes"/>
      <point x="590" y="1144.84" type="line" smooth="yes"/>
      <point x="611.414" y="1158.37"/>
      <point x="614" y="1165.18"/>
      <point x="614" y="1128" type="curve" smooth="yes"/>
      <point x="614" y="1068" type="line" smooth="yes"/>
      <point x="614" y="1031.03"/>
      <point x="609.65" y="1029.25"/>
      <point x="588" y="1015.58" type="curve" smooth="yes"/>
      <point x="68" y="687.158" type="line" smooth="yes"/>
      <point x="48.1271" y="674.607"/>
      <point x="44" y="665.466"/>
      <point x="44" y="701" type="curve" smooth="yes"/>
      <point x="44" y="775" type="line" smooth="yes"/>
      <point x="44" y="798.983"/>
      <point x="45.7859" y="801.128"/>
    </contour>
    <component base="l"/>
  </outline>
</glyph>
<glyph name="Eng" format="2">
  <advance width="1636"/>
  <unicode hex="014A"/>
  <outline>
    <contour>
      <point x="272" y="1390" type="curve" smooth="yes"/>
      <point x="97" y="1390" type="line" smooth="yes"/>
      <point x="80" y="1390"/>
      <point x="76" y="1397"/>
      <point x="76" y="1415" type="curve" smooth="yes"/>
      <point x="76" y="1477" type="line" smooth="yes"/>
      <point x="76" y="1493"/>
      <point x="80" y="1500"/>
      <point x="95" y="1500" type="curve" smooth="yes"/>
      <point x="455" y="1500" type="line" smooth="yes"/>
      <point x="477" y="1500"/>
      <point x="486" y="1483"/>
      <point x="486" y="1465" type="curve" smooth="yes"/>
      <point x="486" y="1228" type="line" smooth="yes"/>
      <point x="486" y="1176"/>
      <point x="493" y="1189"/>
      <point x="506" y="1211" type="curve" smooth="yes"/>
      <point x="570" y="1318"/>
      <point x="749" y="1520"/>
      <point x="1012" y="1520" type="curve" smooth="yes"/>
      <point x="1316" y="1520"/>
      <point x="1476" y="1372"/>
      <point x="1476" y="1098" type="curve" smooth="yes"/>
      <point x="1476" y="22" type="line" smooth="yes"/>
      <point x="1476" y="-278"/>
      <point x="1434" y="-520"/>
      <point x="1152" y="-520" type="curve" smooth="yes"/>
      <point x="974" y="-520"/>
      <point x="870" y="-404"/>
      <point x="870" y="-280" type="curve" smooth="yes"/>
      <point x="870" y="-204"/>
      <point x="918" y="-138"/>
      <point x="988" y="-138" type="curve" smooth="yes"/>
      <point x="1056" y="-138"/>
      <point x="1104" y="-184"/>
      <point x="1104" y="-250" type="curve" smooth="yes"/>
      <point x="1104" y="-320"/>
      <point x="1066" y="-318"/>
      <point x="1066" y="-358" type="curve" smooth="yes"/>
      <point x="1066" y="-384"/>
      <point x="1078" y="-432"/>
      <point x="1152" y="-432" type="curve" smooth="yes"/>
      <point x="1374" y="-432"/>
      <point x="1286" y="-20"/>
      <point x="1286" y="208" type="curve" smooth="yes"/>
      <point x="1286" y="1076" type="line" smooth="yes"/>
      <point x="1286" y="1284"/>
      <point x="1148" y="1406"/>
      <point x="966" y="1406" type="curve" smooth="yes"/>
      <point x="720" y="1406"/>
      <point x="486" y="1142"/>
      <point x="486" y="936" type="curve" smooth="yes"/>
      <point x="486" y="151" type="line" smooth="yes"/>
      <point x="486" y="120"/>
      <point x="497" y="110"/>
      <point x="528" y="110" type="curve" smooth="yes"/>
      <point x="691" y="110" type="line" smooth="yes"/>
      <point x="718" y="110"/>
      <point x="726" y="105"/>
      <point x="726" y="76" type="curve" smooth="yes"/>
      <point x="726" y="30" type="line" smooth="yes"/>
      <point x="726" y="6"/>
      <point x="721" y="0"/>
      <point x="698" y="0" type="curve" smooth="yes"/>
      <point x="104" y="0" type="line" smooth="yes"/>
      <point x="80" y="0"/>
      <point x="76" y="7"/>
      <point x="76" y="32" type="curve" smooth="yes"/>
      <point x="76" y="78" type="line" smooth="yes"/>
      <point x="76" y="106"/>
      <point x="86" y="110"/>
      <point x="112" y="110" type="curve" smooth="yes"/>
      <point x="262" y="110" type="line" smooth="yes"/>
      <point x="288" y="110"/>
      <point x="296" y="113"/>
      <point x="296" y="138" type="curve" smooth="yes"/>
      <point x="296" y="1373" type="line" smooth="yes"/>
      <point x="296" y="1388"/>
      <point x="288" y="1390"/>
    </contour>
  </outline>
</glyph>
<glyph name="OE" format="2">
  <advance width="2424"/>
  <unicode hex="0152"/>
  <outline>
    <contour>
      <point x="1050" y="1500" type="line"/>
      <point x="1050" y="1390" type="line"/>
      <point x="830" y="1390" type="line" smooth="yes"/>
      <point x="462" y="1390"/>
      <point x="340" y="1114"/>
      <point x="340" y="750" type="curve" smooth="yes"/>
      <point x="340" y="386"/>
      <point x="482" y="110"/>
      <point x="830" y="110" type="curve" smooth="yes"/>
      <point x="1050" y="110" type="line"/>
      <point x="1050" y="0" type="line"/>
      <point x="830" y="0" type="line" smooth="yes"/>
      <point x="384" y="0"/>
      <point x="110" y="324"/>
      <point x="110" y="750" type="curve" smooth="yes"/>
      <point x="110" y="1176"/>
      <point x="404" y="1500"/>
      <point x="830" y="1500" type="curve" smooth="yes"/>
    </contour>
    <component base="E" xOffset="909"/>
  </outline>
</glyph>
<glyph name="dotaccent" format="2">
  <advance width="1000"/>
  <unicode hex="02D9"/>
  <anchor x="497" y="1040" name="_Anchor-0"/>
  <outline>
    <contour>
      <point x="501" y="1269" type="curve" smooth="yes"/>
      <point x="436" y="1269"/>
      <point x="381" y="1325"/>
      <point x="381" y="1390" type="curve" smooth="yes"/>
      <point x="381" y="1456"/>
      <point x="436" y="1510"/>
      <point x="501" y="1510" type="curve" smooth="yes"/>
      <point x="567" y="1510"/>
      <point x="621" y="1456"/>
      <point x="621" y="1390" type="curve" smooth="yes"/>
      <point x="621" y="1325"/>
      <point x="567" y="1269"/>
    </contour>
  </outline>
</glyph>
<glyph name="gravecomb" format="2">
  <unicode hex="0300"/>
  <anchor x="571" y="1500" name="_Anchor-0"/>
  <outline>
    <contour>
      <point x="595" y="1669" type="curve" smooth="yes"/>
      <point x="359" y="1807" type="line" smooth="yes"/>
      <point x="325" y="1827"/>
      <point x="303" y="1870"/>
      <point x="332" y="1920" type="curve" smooth="yes"/>
      <point x="359" y="1966"/>
      <point x="427" y="1973"/>
      <point x="464" y="1936" type="curve" smooth="yes"/>
      <point x="658" y="1747" type="line" smooth="yes"/>
      <point x="671" y="1734"/>
      <point x="672" y="1725"/>
      <point x="659" y="1711" type="curve" smooth="yes"/>
      <point x="625" y="1675" type="line" smooth="yes"/>
      <point x="614" y="1663"/>
      <point x="610" y="1660"/>
    </contour>
  </outline>
</glyph>
<glyph name="uni0307" format="2">
  <advance width="0"/>
  <unicode hex="0307"/>
  <anchor x="500" y="920" name="_Anchor-0"/>
  <outline>
    <contour>
      <point x="501" y="1269" type="curve" smooth="yes"/>
      <point x="436" y="1269"/>
      <point x="381" y="1325"/>
      <point x="381" y="1390" type="curve" smooth="yes"/>
      <point x="381" y="1456"/>
      <point x="436" y="1510"/>
      <point x="501" y="1510" type="curve" smooth="yes"/>
      <point x="567" y="1510"/>
      <point x="621" y="1456"/>
      <point x="621" y="1390" type="curve" smooth="yes"/>
      <point x="621" y="1325"/>
      <point x="567" y="1269"/>
    </contour>
  </outline>
</glyph>
<glyph name="uni030A" format="2">
  <advance width="0"/>
  <unicode hex="030A"/>
  <anchor x="500" y="1500" name="_Anchor-0"/>
  <outline>
    <contour>
      <point x="500" y="1680" type="curve" smooth="yes"/>
      <point x="399" y="1680"/>
      <point x="321" y="1758"/>
      <point x="321" y="1859" type="curve" smooth="yes"/>
      <point x="321" y="1960"/>
      <point x="399" y="2040"/>
      <point x="500" y="2040" type="curve" smooth="yes"/>
      <point x="602" y="2040"/>
      <point x="680" y="1961"/>
      <point x="680" y="1859" type="curve" smooth="yes"/>
      <point x="680" y="1758"/>
      <point x="601" y="1680"/>
    </contour>
    <contour>
      <point x="500" y="1754" type="curve" smooth="yes"/>
      <point x="560" y="1754"/>
      <point x="602" y="1795"/>
      <point x="602" y="1859" type="curve" smooth="yes"/>
      <point x="602" y="1922"/>
      <point x="560" y="1967"/>
      <point x="500" y="1967" type="curve" smooth="yes"/>
      <point x="440" y="1967"/>
      <point x="399" y="1922"/>
      <point x="399" y="1859" type="curve" smooth="yes"/>
      <point x="399" y="1795"/>
      <point x="440" y="1754"/>
    </contour>
  </outline>
</glyph>
<glyph name="uni030C" format="2">
  <unicode hex="030C"/>
  <anchor x="499" y="1500" name="_Anchor-0"/>
  <outline>
    <contour>
      <point x="391" y="1721" type="curve" smooth="yes"/>
      <point x="227" y="1887" type="line" smooth="yes"/>
      <point x="210" y="1904"/>
      <point x="204" y="1911"/>
      <point x="223" y="1926" type="curve" smooth="yes"/>
      <point x="241" y="1940" type="line" smooth="yes"/>
      <point x="262" y="1957"/>
      <point x="266" y="1953"/>
      <point x="289" y="1938" type="curve" smooth="yes"/>
      <point x="445" y="1836" type="line" smooth="yes"/>
      <point x="485" y="1810"/>
      <point x="512" y="1809"/>
      <point x="551" y="1836" type="curve" smooth="yes"/>
      <point x="717" y="1952" type="line" smooth="yes"/>
      <point x="738" y="1967"/>
      <point x="743" y="1961"/>
      <point x="761" y="1943" type="curve" smooth="yes"/>
      <point x="771" y="1935" type="line" smooth="yes"/>
      <point x="790" y="1917"/>
      <point x="794" y="1910"/>
      <point x="776" y="1892" type="curve" smooth="yes"/>
      <point x="599" y="1714" type="line" smooth="yes"/>
      <point x="584" y="1699"/>
      <point x="581" y="1690"/>
      <point x="549" y="1690" type="curve" smooth="yes"/>
      <point x="469" y="1690" type="line" smooth="yes"/>
      <point x="428" y="1690"/>
      <point x="410" y="1702"/>
    </contour>
  </outline>
</glyph>
<glyph name="uni0311" format="2">
  <unicode hex="0311"/>
  <anchor x="499" y="1500" name="_Anchor-0"/>
  <outline>
    <contour>
      <point x="502" y="1938" type="curve" smooth="yes"/>
      <point x="674" y="1938"/>
      <point x="727" y="1843"/>
      <point x="730" y="1699" type="curve" smooth="yes"/>
      <point x="730" y="1682"/>
      <point x="724" y="1680"/>
      <point x="707" y="1680" type="curve" smooth="yes"/>
      <point x="688" y="1680" type="line" smooth="yes"/>
      <point x="674" y="1680"/>
      <point x="671" y="1683"/>
      <point x="670" y="1696" type="curve" smooth="yes"/>
      <point x="663" y="1786"/>
      <point x="599" y="1828"/>
      <point x="502" y="1828" type="curve" smooth="yes"/>
      <point x="410" y="1828"/>
      <point x="345" y="1790"/>
      <point x="333" y="1709" type="curve" smooth="yes"/>
      <point x="330" y="1690"/>
      <point x="337" y="1680"/>
      <point x="313" y="1680" type="curve" smooth="yes"/>
      <point x="291" y="1680" type="line" smooth="yes"/>
      <point x="270" y="1680"/>
      <point x="270" y="1684"/>
      <point x="271" y="1704" type="curve" smooth="yes"/>
      <point x="276" y="1844"/>
      <point x="333" y="1938"/>
    </contour>
  </outline>
</glyph>
<glyph name="uni0312" format="2">
  <unicode hex="0312"/>
  <anchor x="497" y="920" name="_Anchor-0"/>
  <outline>
    <contour>
      <point x="609.8" y="1197.6" type="curve" smooth="yes"/>
      <point x="609.8" y="1144.8"/>
      <point x="563.4" y="1103.2"/>
      <point x="502.59999999999997" y="1103.2" type="curve" smooth="yes"/>
      <point x="440.2" y="1103.2"/>
      <point x="390.59999999999997" y="1152.8"/>
      <point x="390.59999999999997" y="1269.6000000000001" type="curve" smooth="yes"/>
      <point x="390.59999999999997" y="1376.8"/>
      <point x="462.6" y="1512.8"/>
      <point x="594.6" y="1524.8" type="curve" smooth="yes"/>
      <point x="606.6" y="1525.6"/>
      <point x="613.0" y="1526.4"/>
      <point x="613.0" y="1512.8" type="curve" smooth="yes"/>
      <point x="613.0" y="1478.4" type="line" smooth="yes"/>
      <point x="613.0" y="1464.0"/>
      <point x="605.0" y="1461.6"/>
      <point x="593.0" y="1460.0" type="curve" smooth="yes"/>
      <point x="520.2" y="1448.8"/>
      <point x="457.79999999999995" y="1375.2"/>
      <point x="466.6" y="1283.2" type="curve" smooth="yes"/>
      <point x="468.2" y="1270.4"/>
      <point x="475.4" y="1276.8"/>
      <point x="484.2" y="1282.4" type="curve" smooth="yes"/>
      <point x="497.0" y="1291.2"/>
      <point x="508.2" y="1292.0"/>
      <point x="525.0" y="1292.0" type="curve" smooth="yes"/>
      <point x="577.8" y="1292.0"/>
      <point x="609.8" y="1250.4"/>
    </contour>
  </outline>
</glyph>
<glyph name="dotbelowcomb" format="2">
  <unicode hex="0323"/>
  <anchor x="500" y="0" name="_Anchor-2"/>
  <outline>
    <contour>
      <point x="501" y="-410" type="curve" smooth="yes"/>
      <point x="436" y="-410"/>
      <point x="381" y="-354"/>
      <point x="381" y="-289" type="curve" smooth="yes"/>
      <point x="381" y="-223"/>
      <point x="436" y="-169"/>
      <point x="501" y="-169" type="curve" smooth="yes"/>
      <point x="567" y="-169"/>
      <point x="621" y="-223"/>
      <point x="621" y="-289" type="curve" smooth="yes"/>
      <point x="621" y="-354"/>
      <point x="567" y="-410"/>
    </contour>
  </outline>
</glyph>
<glyph name="uni0326" format="2">
  <unicode hex="0326"/>
  <anchor x="496" y="0" name="_Anchor-2"/>
  <outline>
    <contour>
      <point x="393.2" y="-295.6" type="curve" smooth="yes"/>
      <point x="393.2" y="-242.79999999999998"/>
      <point x="439.6" y="-201.2"/>
      <point x="500.4" y="-201.2" type="curve" smooth="yes"/>
      <point x="562.8" y="-201.2"/>
      <point x="612.4000000000001" y="-250.8"/>
      <point x="612.4000000000001" y="-367.6" type="curve" smooth="yes"/>
      <point x="612.4000000000001" y="-474.8"/>
      <point x="540.4" y="-610.8"/>
      <point x="408.4" y="-622.8" type="curve" smooth="yes"/>
      <point x="396.4" y="-623.6"/>
      <point x="390.0" y="-624.4"/>
      <point x="390.0" y="-610.8" type="curve" smooth="yes"/>
      <point x="390.0" y="-576.4" type="line" smooth="yes"/>
      <point x="390.0" y="-562.0"/>
      <point x="398.0" y="-559.6"/>
      <point x="410.0" y="-558.0" type="curve" smooth="yes"/>
      <point x="482.8" y="-546.8"/>
      <point x="545.2" y="-473.2"/>
      <point x="536.4" y="-381.2" type="curve" smooth="yes"/>
      <point x="534.8" y="-368.4"/>
      <point x="527.6" y="-374.8"/>
      <point x="518.8" y="-380.4" type="curve" smooth="yes"/>
      <point x="506.0" y="-389.2"/>
      <point x="494.8" y="-390.0"/>
      <point x="478.0" y="-390.0" type="curve" smooth="yes"/>
      <point x="425.2" y="-390.0"/>
      <point x="393.2" y="-348.4"/>
    </contour>
  </outline>
</glyph>
<glyph name="uni03A9" format="2">
  <advance width="1552"/>
  <unicode hex="03A9"/>
  <outline>
    <contour>
      <point x="1253" y="300" type="curve"/>
      <point x="1366" y="300" type="line"/>
      <point x="1366" y="0" type="line"/>
      <point x="927" y="0" type="line"/>
      <point x="927" y="406" type="line"/>
      <point x="1095" y="476"/>
      <point x="1187" y="637"/>
      <point x="1187" y="900" type="curve" smooth="yes"/>
      <point x="1187" y="1213"/>
      <point x="1054" y="1413"/>
      <point x="776" y="1413" type="curve" smooth="yes"/>
      <point x="498" y="1413"/>
      <point x="366" y="1213"/>
      <point x="366" y="900" type="curve" smooth="yes"/>
      <point x="366" y="637"/>
      <point x="458" y="467"/>
      <point x="626" y="397" type="curve"/>
      <point x="626" y="0" type="line"/>
      <point x="187" y="0" type="line"/>
      <point x="187" y="300" type="line"/>
      <point x="300" y="300" type="line"/>
      <point x="300" y="206"/>
      <point x="337" y="163"/>
      <point x="440" y="163" type="curve" smooth="yes"/>
      <point x="516" y="163" type="line"/>
      <point x="516" y="337.026" type="line"/>
      <point x="322.632" y="424.227"/>
      <point x="137" y="626.116"/>
      <point x="137" y="900" type="curve" smooth="yes"/>
      <point x="137" y="1276"/>
      <point x="389" y="1520"/>
      <point x="776" y="1520" type="curve" smooth="yes"/>
      <point x="1163" y="1520"/>
      <point x="1416" y="1276"/>
      <point x="1416" y="900" type="curve" smooth="yes"/>
      <point x="1416" y="626.116"/>
      <point x="1230.37" y="430.579"/>
      <point x="1037" y="345.41" type="curve"/>
      <point x="1037" y="163" type="line"/>
      <point x="1113" y="163" type="line" smooth="yes"/>
      <point x="1216" y="163"/>
      <point x="1253" y="206"/>
    </contour>
  </outline>
</glyph>
<glyph name="pi" format="2">
  <advance width="1161"/>
  <unicode hex="03C0"/>
  <outline>
    <contour>
      <point x="1052" y="900" type="curve" smooth="yes"/>
      <point x="1052" y="763" type="line" smooth="yes"/>
      <point x="1052" y="742.015"/>
      <point x="1053.72" y="740"/>
      <point x="1032" y="740" type="curve" smooth="yes"/>
      <point x="904" y="740" type="line" smooth="yes"/>
      <point x="869.291" y="740"/>
      <point x="872" y="736.757"/>
      <point x="872" y="703" type="curve" smooth="yes"/>
      <point x="872" y="247" type="line" smooth="yes"/>
      <point x="872" y="207"/>
      <point x="897" y="175"/>
      <point x="945" y="175" type="curve" smooth="yes"/>
      <point x="976.609" y="175"/>
      <point x="992.799" y="183.48"/>
      <point x="1022" y="231.577" type="curve" smooth="yes"/>
      <point x="1032.88" y="249.501"/>
      <point x="1032.33" y="255.202"/>
      <point x="1054" y="245.461" type="curve" smooth="yes"/>
      <point x="1102" y="223.888" type="line" smooth="yes"/>
      <point x="1122.79" y="214.543"/>
      <point x="1124.81" y="214.173"/>
      <point x="1116" y="191.709" type="curve" smooth="yes"/>
      <point x="1065.63" y="63.2807"/>
      <point x="957.382" y="-20"/>
      <point x="876" y="-20" type="curve" smooth="yes"/>
      <point x="782" y="-20"/>
      <point x="691" y="28"/>
      <point x="691" y="146" type="curve" smooth="yes"/>
      <point x="691" y="715" type="line" smooth="yes"/>
      <point x="691" y="737.358"/>
      <point x="693.183" y="740"/>
      <point x="670" y="740" type="curve" smooth="yes"/>
      <point x="450" y="740" type="line" smooth="yes"/>
      <point x="425.559" y="740"/>
      <point x="426" y="739.461"/>
      <point x="426" y="715" type="curve" smooth="yes"/>
      <point x="426" y="486" type="line" smooth="yes"/>
      <point x="426" y="170"/>
      <point x="345" y="-20"/>
      <point x="208" y="-20" type="curve" smooth="yes"/>
      <point x="126" y="-20"/>
      <point x="90" y="26"/>
      <point x="90" y="76" type="curve" smooth="yes"/>
      <point x="90" y="213"/>
      <point x="314" y="164"/>
      <point x="314" y="559" type="curve" smooth="yes"/>
      <point x="314" y="716" type="line" smooth="yes"/>
      <point x="314" y="737.364"/>
      <point x="316.163" y="740"/>
      <point x="294" y="740" type="curve" smooth="yes"/>
      <point x="214" y="740" type="line" smooth="yes"/>
      <point x="192.085" y="740"/>
      <point x="195" y="736.136"/>
      <point x="195" y="715" type="curve" smooth="yes"/>
      <point x="195" y="619" type="line" smooth="yes"/>
      <point x="195" y="592.672"/>
      <point x="197.258" y="590"/>
      <point x="170" y="590" type="curve" smooth="yes"/>
      <point x="106" y="590" type="line" smooth="yes"/>
      <point x="81.0561" y="590"/>
      <point x="82" y="591.098"/>
      <point x="82" y="616" type="curve" smooth="yes"/>
      <point x="82" y="888" type="line" smooth="yes"/>
      <point x="82" y="920.926"/>
      <point x="83.0882" y="920"/>
      <point x="116" y="920" type="curve" smooth="yes"/>
      <point x="1030" y="920" type="line" smooth="yes"/>
      <point x="1050.82" y="920"/>
      <point x="1052" y="921.013"/>
    </contour>
  </outline>
</glyph>
<glyph name="quotesinglbase" format="2">
  <advance width="478.0"/>
  <unicode hex="201A"/>
  <outline>
    <contour>
      <point x="104.00000000000003" y="96.99999999999997" type="curve" smooth="yes"/>
      <point x="104.00000000000004" y="162.99999999999997"/>
      <point x="162.00000000000006" y="214.99999999999994"/>
      <point x="238.00000000000006" y="214.99999999999994" type="curve" smooth="yes"/>
      <point x="316.00000000000006" y="214.99999999999991"/>
      <point x="378.00000000000006" y="152.99999999999991"/>
      <point x="378.0" y="6.999999999999904" type="curve" smooth="yes"/>
      <point x="377.99999999999994" y="-127.0000000000001"/>
      <point x="287.99999999999994" y="-297.00000000000006"/>
      <point x="122.99999999999991" y="-312.00000000000006" type="curve" smooth="yes"/>
      <point x="107.99999999999993" y="-313.00000000000006"/>
      <point x="99.99999999999993" y="-314.0"/>
      <point x="99.99999999999993" y="-297.0" type="curve" smooth="yes"/>
      <point x="99.99999999999994" y="-254.00000000000003" type="line" smooth="yes"/>
      <point x="99.99999999999994" y="-236.00000000000003"/>
      <point x="109.99999999999994" y="-233.00000000000003"/>
      <point x="124.99999999999994" y="-231.00000000000003" type="curve" smooth="yes"/>
      <point x="215.99999999999994" y="-217.00000000000006"/>
      <point x="293.99999999999994" y="-125.00000000000007"/>
      <point x="283.0" y="-10.000000000000073" type="curve" smooth="yes"/>
      <point x="281.0" y="5.999999999999927"/>
      <point x="272.0" y="-2.00000000000007"/>
      <point x="261.0" y="-9.000000000000068" type="curve" smooth="yes"/>
      <point x="245.0" y="-20.000000000000064"/>
      <point x="231.0" y="-21.00000000000006"/>
      <point x="210.0" y="-21.000000000000057" type="curve" smooth="yes"/>
      <point x="144.0" y="-21.00000000000004"/>
      <point x="104.00000000000001" y="30.99999999999997"/>
    </contour>
  </outline>
</glyph>
<glyph name="quotedblright" format="2">
  <advance width="878"/>
  <unicode hex="201D"/>
  <outline>
    <contour>
      <point x="103.99999999999991" y="1402.0" type="curve" smooth="yes"/>
      <point x="103.99999999999993" y="1468.0"/>
      <point x="161.99999999999994" y="1520.0"/>
      <point x="237.99999999999994" y="1520.0" type="curve" smooth="yes"/>
      <point x="315.99999999999994" y="1520.0"/>
      <point x="377.99999999999994" y="1458.0"/>
      <point x="377.9999999999999" y="1312.0" type="curve" smooth="yes"/>
      <point x="377.99999999999983" y="1178.0"/>
      <point x="287.99999999999983" y="1008.0"/>
      <point x="122.9999999999998" y="993.0" type="curve" smooth="yes"/>
      <point x="107.99999999999982" y="992.0"/>
      <point x="99.99999999999982" y="991.0"/>
      <point x="99.99999999999982" y="1008.0" type="curve" smooth="yes"/>
      <point x="99.99999999999983" y="1051.0" type="line" smooth="yes"/>
      <point x="99.99999999999983" y="1069.0"/>
      <point x="109.99999999999983" y="1072.0"/>
      <point x="124.99999999999983" y="1074.0" type="curve" smooth="yes"/>
      <point x="215.99999999999983" y="1088.0"/>
      <point x="293.99999999999983" y="1180.0"/>
      <point x="282.9999999999999" y="1295.0" type="curve" smooth="yes"/>
      <point x="280.9999999999999" y="1311.0"/>
      <point x="271.9999999999999" y="1303.0"/>
      <point x="260.9999999999999" y="1296.0" type="curve" smooth="yes"/>
      <point x="244.9999999999999" y="1285.0"/>
      <point x="230.9999999999999" y="1284.0"/>
      <point x="209.9999999999999" y="1284.0" type="curve" smooth="yes"/>
      <point x="143.9999999999999" y="1284.0"/>
      <point x="103.9999999999999" y="1336.0"/>
    </contour>
    <contour>
      <point x="503.9999999999999" y="1402.0" type="curve" smooth="yes"/>
      <point x="503.9999999999999" y="1468.0"/>
      <point x="561.9999999999999" y="1520.0"/>
      <point x="637.9999999999999" y="1520.0" type="curve" smooth="yes"/>
      <point x="715.9999999999999" y="1520.0"/>
      <point x="777.9999999999999" y="1458.0"/>
      <point x="777.9999999999998" y="1312.0" type="curve" smooth="yes"/>
      <point x="777.9999999999998" y="1178.0"/>
      <point x="687.9999999999998" y="1008.0"/>
      <point x="522.9999999999998" y="993.0" type="curve" smooth="yes"/>
      <point x="507.9999999999998" y="992.0"/>
      <point x="499.9999999999998" y="991.0"/>
      <point x="499.9999999999998" y="1008.0" type="curve" smooth="yes"/>
      <point x="499.9999999999998" y="1051.0" type="line" smooth="yes"/>
      <point x="499.9999999999998" y="1069.0"/>
      <point x="509.9999999999998" y="1072.0"/>
      <point x="524.9999999999998" y="1074.0" type="curve" smooth="yes"/>
      <point x="615.9999999999998" y="1088.0"/>
      <point x="693.9999999999998" y="1180.0"/>
      <point x="682.9999999999998" y="1295.0" type="curve" smooth="yes"/>
      <point x="680.9999999999998" y="1311.0"/>
      <point x="671.9999999999998" y="1303.0"/>
      <point x="660.9999999999998" y="1296.0" type="curve" smooth="yes"/>
      <point x="644.9999999999998" y="1285.0"/>
      <point x="630.9999999999998" y="1284.0"/>
      <point x="609.9999999999998" y="1284.0" type="curve" smooth="yes"/>
      <point x="543.9999999999998" y="1284.0"/>
      <point x="503.99999999999983" y="1336.0"/>
    </contour>
  </outline>
</glyph>
<glyph name="daggerdbl" format="2">
  <advance width="1186"/>
  <unicode hex="2021"/>
  <outline>
    <contour>
      <point x="536" y="1056" type="curve" smooth="yes"/>
      <point x="532" y="1204"/>
      <point x="513" y="1231"/>
      <point x="495" y="1361" type="curve" smooth="yes"/>
      <point x="493" y="1375"/>
      <point x="493" y="1386"/>
      <point x="493" y="1398" type="curve" smooth="yes"/>
      <point x="493" y="1476"/>
      <point x="534" y="1520"/>
      <point x="593" y="1520" type="curve" smooth="yes"/>
      <point x="652" y="1520"/>
      <point x="693" y="1476"/>
      <point x="693" y="1398" type="curve" smooth="yes"/>
      <point x="693" y="1386"/>
      <point x="693" y="1375"/>
      <point x="691" y="1361" type="curve" smooth="yes"/>
      <point x="673" y="1231"/>
      <point x="654" y="1204"/>
      <point x="650" y="1056" type="curve" smooth="yes"/>
      <point x="649" y="1033"/>
      <point x="650" y="1033"/>
      <point x="672" y="1035" type="curve" smooth="yes"/>
      <point x="749" y="1042"/>
      <point x="813" y="1058"/>
      <point x="927" y="1074" type="curve" smooth="yes"/>
      <point x="941" y="1076"/>
      <point x="952" y="1076"/>
      <point x="964" y="1076" type="curve" smooth="yes"/>
      <point x="1042" y="1076"/>
      <point x="1086" y="1035"/>
      <point x="1086" y="976" type="curve" smooth="yes"/>
      <point x="1086" y="917"/>
      <point x="1042" y="876"/>
      <point x="964" y="876" type="curve" smooth="yes"/>
      <point x="952" y="876"/>
      <point x="941" y="876"/>
      <point x="927" y="878" type="curve" smooth="yes"/>
      <point x="817" y="894"/>
      <point x="753" y="909"/>
      <point x="679" y="916" type="curve" smooth="yes"/>
      <point x="655" y="918"/>
      <point x="647" y="924"/>
      <point x="648" y="896" type="curve" smooth="yes"/>
      <point x="651" y="745"/>
      <point x="666" y="613"/>
      <point x="713" y="526" type="curve" smooth="yes"/>
      <point x="727" y="500"/>
      <point x="727" y="501"/>
      <point x="713" y="474" type="curve" smooth="yes"/>
      <point x="666" y="387"/>
      <point x="651" y="257"/>
      <point x="648" y="109" type="curve" smooth="yes"/>
      <point x="647" y="80"/>
      <point x="649" y="80"/>
      <point x="676" y="83" type="curve" smooth="yes"/>
      <point x="752" y="90"/>
      <point x="815" y="106"/>
      <point x="927" y="122" type="curve" smooth="yes"/>
      <point x="941" y="124"/>
      <point x="952" y="124"/>
      <point x="964" y="124" type="curve" smooth="yes"/>
      <point x="1042" y="124"/>
      <point x="1086" y="83"/>
      <point x="1086" y="24" type="curve" smooth="yes"/>
      <point x="1086" y="-35"/>
      <point x="1042" y="-76"/>
      <point x="964" y="-76" type="curve" smooth="yes"/>
      <point x="952" y="-76"/>
      <point x="941" y="-76"/>
      <point x="927" y="-74" type="curve" smooth="yes"/>
      <point x="821" y="-59"/>
      <point x="758" y="-44"/>
      <point x="688" y="-36" type="curve" smooth="yes"/>
      <point x="653" y="-32"/>
      <point x="649" y="-30"/>
      <point x="650" y="-68" type="curve" smooth="yes"/>
      <point x="655" y="-206"/>
      <point x="673" y="-235"/>
      <point x="691" y="-361" type="curve" smooth="yes"/>
      <point x="693" y="-375"/>
      <point x="693" y="-386"/>
      <point x="693" y="-398" type="curve" smooth="yes"/>
      <point x="693" y="-476"/>
      <point x="652" y="-520"/>
      <point x="593" y="-520" type="curve" smooth="yes"/>
      <point x="534" y="-520"/>
      <point x="493" y="-476"/>
      <point x="493" y="-398" type="curve" smooth="yes"/>
      <point x="493" y="-386"/>
      <point x="493" y="-375"/>
      <point x="495" y="-361" type="curve" smooth="yes"/>
      <point x="513" y="-233"/>
      <point x="531" y="-205"/>
      <point x="536" y="-60" type="curve" smooth="yes"/>
      <point x="537" y="-27"/>
      <point x="527" y="-33"/>
      <point x="498" y="-36" type="curve" smooth="yes"/>
      <point x="428" y="-44"/>
      <point x="365" y="-59"/>
      <point x="259" y="-74" type="curve" smooth="yes"/>
      <point x="245" y="-76"/>
      <point x="234" y="-76"/>
      <point x="222" y="-76" type="curve" smooth="yes"/>
      <point x="144" y="-76"/>
      <point x="100" y="-35"/>
      <point x="100" y="24" type="curve" smooth="yes"/>
      <point x="100" y="83"/>
      <point x="144" y="124"/>
      <point x="222" y="124" type="curve" smooth="yes"/>
      <point x="234" y="124"/>
      <point x="245" y="124"/>
      <point x="259" y="122" type="curve" smooth="yes"/>
      <point x="366" y="107"/>
      <point x="429" y="92"/>
      <point x="501" y="84" type="curve" smooth="yes"/>
      <point x="526" y="81"/>
      <point x="539" y="74"/>
      <point x="538" y="104" type="curve" smooth="yes"/>
      <point x="535" y="260"/>
      <point x="519" y="397"/>
      <point x="467" y="484" type="curve" smooth="yes"/>
      <point x="455" y="505"/>
      <point x="463" y="507"/>
      <point x="474" y="528" type="curve" smooth="yes"/>
      <point x="519" y="614"/>
      <point x="534" y="741"/>
      <point x="537" y="886" type="curve" smooth="yes"/>
      <point x="538" y="929"/>
      <point x="521" y="918"/>
      <point x="486" y="914" type="curve" smooth="yes"/>
      <point x="420" y="906"/>
      <point x="359" y="892"/>
      <point x="259" y="878" type="curve" smooth="yes"/>
      <point x="245" y="876"/>
      <point x="234" y="876"/>
      <point x="222" y="876" type="curve" smooth="yes"/>
      <point x="144" y="876"/>
      <point x="100" y="917"/>
      <point x="100" y="976" type="curve" smooth="yes"/>
      <point x="100" y="1035"/>
      <point x="144" y="1076"/>
      <point x="222" y="1076" type="curve" smooth="yes"/>
      <point x="234" y="1076"/>
      <point x="245" y="1076"/>
      <point x="259" y="1074" type="curve" smooth="yes"/>
      <point x="368" y="1058"/>
      <point x="431" y="1044"/>
      <point x="504" y="1036" type="curve" smooth="yes"/>
      <point x="529" y="1033"/>
      <point x="537" y="1027"/>
    </contour>
  </outline>
</glyph>
<glyph name="Euro" format="2">
  <advance width="1629"/>
  <unicode hex="20AC"/>
  <outline>
    <contour>
      <point x="1039.99" y="1404" type="curve" smooth="yes"/>
      <point x="691.989" y="1404"/>
      <point x="499.989" y="1114"/>
      <point x="499.989" y="750" type="curve" smooth="yes"/>
      <point x="499.989" y="386"/>
      <point x="681.989" y="98"/>
      <point x="979.989" y="98" type="curve" smooth="yes"/>
      <point x="1280.99" y="98"/>
      <point x="1430.99" y="325"/>
      <point x="1437.99" y="464" type="curve" smooth="yes"/>
      <point x="1438.59" y="476.026"/>
      <point x="1443.99" y="480"/>
      <point x="1457.99" y="480" type="curve" smooth="yes"/>
      <point x="1527.99" y="480" type="line" smooth="yes"/>
      <point x="1541.99" y="480"/>
      <point x="1549.32" y="479.034"/>
      <point x="1548.99" y="466" type="curve" smooth="yes"/>
      <point x="1543.99" y="266"/>
      <point x="1340.99" y="-20"/>
      <point x="959.989" y="-20" type="curve" smooth="yes"/>
      <point x="583.989" y="-20"/>
      <point x="269.989" y="304"/>
      <point x="269.989" y="750" type="curve" smooth="yes"/>
      <point x="269.989" y="1196"/>
      <point x="623.989" y="1520"/>
      <point x="1029.99" y="1520" type="curve" smooth="yes"/>
      <point x="1323.99" y="1520"/>
      <point x="1511.99" y="1356"/>
      <point x="1511.99" y="1152" type="curve" smooth="yes"/>
      <point x="1511.99" y="1056"/>
      <point x="1441.99" y="1020"/>
      <point x="1383.99" y="1020" type="curve" smooth="yes"/>
      <point x="1329.99" y="1020"/>
      <point x="1269.99" y="1062"/>
      <point x="1269.99" y="1136" type="curve" smooth="yes"/>
      <point x="1269.99" y="1208"/>
      <point x="1333.99" y="1218"/>
      <point x="1333.99" y="1264" type="curve" smooth="yes"/>
      <point x="1333.99" y="1318"/>
      <point x="1257.99" y="1404"/>
    </contour>
    <component base="equal" xOffset="-70.0101" yOffset="-30"/>
  </outline>
</glyph>
<glyph name="emptyset" format="2">
  <advance width="1140"/>
  <unicode hex="2205"/>
  <outline>
    <contour>
      <point x="48" y="311" type="line"/>
      <point x="1019" y="1282" type="line"/>
      <point x="1102" y="1209" type="line"/>
      <point x="131" y="238" type="line"/>
    </contour>
    <contour>
      <point x="242" y="770" type="curve" smooth="yes"/>
      <point x="242" y="592"/>
      <point x="358" y="433"/>
      <point x="571" y="433" type="curve" smooth="yes"/>
      <point x="784" y="433"/>
      <point x="898" y="592"/>
      <point x="898" y="770" type="curve" smooth="yes"/>
      <point x="898" y="948"/>
      <point x="784" y="1107"/>
      <point x="571" y="1107" type="curve" smooth="yes"/>
      <point x="358" y="1107"/>
      <point x="242" y="948"/>
    </contour>
    <contour>
      <point x="112" y="770" type="curve" smooth="yes"/>
      <point x="112" y="1020"/>
      <point x="289" y="1229"/>
      <point x="571" y="1229" type="curve" smooth="yes"/>
      <point x="853" y="1229"/>
      <point x="1028" y="1020"/>
      <point x="1028" y="770" type="curve" smooth="yes"/>
      <point x="1028" y="520"/>
      <point x="853" y="310"/>
      <point x="571" y="310" type="curve" smooth="yes"/>
      <point x="289" y="310"/>
      <point x="112" y="520"/>
    </contour>
  </outline>
</glyph>
<glyph name="summation" format="2">
  <advance width="1305"/>
  <unicode hex="2211"/>
  <outline>
    <contour>
      <point x="66" y="1500" type="line"/>
      <point x="1170" y="1500" type="line"/>
      <point x="1170" y="1090" type="line"/>
      <point x="1056" y="1090" type="line"/>
      <point x="1056" y="1304"/>
      <point x="1031" y="1387"/>
      <point x="797" y="1387" type="curve" smooth="yes"/>
      <point x="296" y="1387" type="line"/>
      <point x="702" y="813" type="line"/>
      <point x="252" y="113" type="line"/>
      <point x="776" y="113" type="line" smooth="yes"/>
      <point x="1049" y="113"/>
      <point x="1076" y="196"/>
      <point x="1076" y="450" type="curve"/>
      <point x="1189" y="450" type="line"/>
      <point x="1189" y="0" type="line"/>
      <point x="56" y="0" type="line"/>
      <point x="528" y="750" type="line"/>
      <point x="66" y="1387" type="line"/>
    </contour>
  </outline>
</glyph>
<glyph name="radical" format="2">
  <advance width="1130"/>
  <unicode hex="221A"/>
  <outline>
    <contour>
      <point x="966" y="1390" type="line"/>
      <point x="657" y="-20" type="line"/>
      <point x="539" y="-20" type="line"/>
      <point x="263" y="421" type="line"/>
      <point x="151" y="363" type="line"/>
      <point x="111" y="450" type="line"/>
      <point x="342" y="580" type="line"/>
      <point x="586" y="160" type="line"/>
      <point x="889" y="1500" type="line"/>
      <point x="1130" y="1500" type="line"/>
      <point x="1130" y="1390" type="line"/>
    </contour>
  </outline>
</glyph>
<glyph name="infinity" format="2">
  <advance width="1813"/>
  <unicode hex="221E"/>
  <outline>
    <contour>
      <point x="1622" y="780" type="curve" smooth="yes"/>
      <point x="1622" y="948"/>
      <point x="1517" y="1047"/>
      <point x="1364" y="1047" type="curve" smooth="yes"/>
      <point x="1236.87" y="1047"/>
      <point x="1126.34" y="945.046"/>
      <point x="1031" y="825.452" type="curve" smooth="yes"/>
      <point x="1003.51" y="790.974"/>
      <point x="991.631" y="784.893"/>
      <point x="1020" y="748.45" type="curve" smooth="yes"/>
      <point x="1117.11" y="623.701"/>
      <point x="1232.04" y="513"/>
      <point x="1364" y="513" type="curve" smooth="yes"/>
      <point x="1517" y="513"/>
      <point x="1622" y="622"/>
    </contour>
    <contour>
      <point x="1763" y="780" type="curve" smooth="yes"/>
      <point x="1763" y="540"/>
      <point x="1606" y="401"/>
      <point x="1364" y="401" type="curve" smooth="yes"/>
      <point x="1208.64" y="401"/>
      <point x="1061.4" y="507.728"/>
      <point x="946" y="644.222" type="curve" smooth="yes"/>
      <point x="905.906" y="691.644"/>
      <point x="910.427" y="696.013"/>
      <point x="870" y="647.786" type="curve" smooth="yes"/>
      <point x="754.155" y="509.59"/>
      <point x="605.71" y="401"/>
      <point x="449" y="401" type="curve" smooth="yes"/>
      <point x="207" y="401"/>
      <point x="50" y="550"/>
      <point x="50" y="780" type="curve" smooth="yes"/>
      <point x="50" y="1020"/>
      <point x="207" y="1159"/>
      <point x="449" y="1159" type="curve" smooth="yes"/>
      <point x="611.101" y="1159"/>
      <point x="762.86" y="1044.16"/>
      <point x="881" y="898.685" type="curve" smooth="yes"/>
      <point x="906.292" y="867.541"/>
      <point x="904.231" y="864.291"/>
      <point x="929.826" y="896" type="curve" smooth="yes"/>
      <point x="1048.28" y="1042.75"/>
      <point x="1200.9" y="1159"/>
      <point x="1364" y="1159" type="curve" smooth="yes"/>
      <point x="1606" y="1159"/>
      <point x="1763" y="1020"/>
    </contour>
    <contour>
      <point x="786.06" y="820" type="curve" smooth="yes"/>
      <point x="688.154" y="941.93"/>
      <point x="568.056" y="1047"/>
      <point x="439" y="1047" type="curve" smooth="yes"/>
      <point x="286" y="1047"/>
      <point x="191" y="928"/>
      <point x="191" y="780" type="curve" smooth="yes"/>
      <point x="191" y="622"/>
      <point x="286" y="513"/>
      <point x="439" y="513" type="curve" smooth="yes"/>
      <point x="569.388" y="513"/>
      <point x="691.463" y="621.081"/>
      <point x="789.304" y="744" type="curve" smooth="yes"/>
      <point x="818.305" y="780.435"/>
      <point x="814.661" y="784.381"/>
    </contour>
  </outline>
</glyph>
<glyph name="integral" format="2">
  <advance width="782"/>
  <unicode hex="222B"/>
  <outline>
    <contour>
      <point x="222" y="1144" type="line" smooth="yes"/>
      <point x="222" y="1406"/>
      <point x="356" y="1580"/>
      <point x="616" y="1580" type="curve" smooth="yes"/>
      <point x="818" y="1580"/>
      <point x="952" y="1472"/>
      <point x="952" y="1358" type="curve" smooth="yes"/>
      <point x="952" y="1272"/>
      <point x="904" y="1226"/>
      <point x="834" y="1226" type="curve" smooth="yes"/>
      <point x="764" y="1226"/>
      <point x="718" y="1266"/>
      <point x="718" y="1322" type="curve" smooth="yes"/>
      <point x="718" y="1382"/>
      <point x="760" y="1396"/>
      <point x="760" y="1436" type="curve" smooth="yes"/>
      <point x="760" y="1460"/>
      <point x="724" y="1490"/>
      <point x="620" y="1490" type="curve" smooth="yes"/>
      <point x="460" y="1490"/>
      <point x="402" y="1354"/>
      <point x="402" y="1100" type="curve" smooth="yes"/>
      <point x="402" y="-85" type="line" smooth="yes"/>
      <point x="402" y="-347"/>
      <point x="268" y="-521"/>
      <point x="8" y="-521" type="curve" smooth="yes"/>
      <point x="-194" y="-521"/>
      <point x="-328" y="-413"/>
      <point x="-328" y="-299" type="curve" smooth="yes"/>
      <point x="-328" y="-213"/>
      <point x="-280" y="-167"/>
      <point x="-210" y="-167" type="curve" smooth="yes"/>
      <point x="-140" y="-167"/>
      <point x="-94" y="-207"/>
      <point x="-94" y="-263" type="curve" smooth="yes"/>
      <point x="-94" y="-323"/>
      <point x="-136" y="-337"/>
      <point x="-136" y="-377" type="curve" smooth="yes"/>
      <point x="-136" y="-401"/>
      <point x="-100" y="-431"/>
      <point x="4" y="-431" type="curve" smooth="yes"/>
      <point x="164" y="-431"/>
      <point x="222" y="-295"/>
      <point x="222" y="-41" type="curve" smooth="yes"/>
    </contour>
  </outline>
</glyph>
